<svg xmlns="http://www.w3.org/2000/svg" viewBox="0 0 1920 1080">
  <defs>
    <style>
      .\32 86b55b7-7e78-46e9-acc0-52f6b085b1b9 {
        fill: #ffc34b;
      }

      .\35 28f6b92-94a6-4984-aed1-20dcbbe9f9d2 {
        fill: #f6891f;
      }

      .\35 6e797b3-ff7c-4d1b-84dc-5d00f20e79ce {
        fill: #fff;
      }

      .\37 0816a23-df7e-4951-8e55-991990369c63 {
        fill: #00ff97;
      }

      .\30 c851b04-fb1f-4a32-ad05-1186bc25c395 {
        fill: #dc88ff;
      }

      .c0cbe7b7-3648-4179-9a2d-8ce8816c41eb {
        fill: #f91653;
      }

      .\30 9738fab-4ff7-4688-8e6b-15c6c1d65d56, .\32 087db48-127c-44cf-a31c-985641d8149a, .\32 6362136-9d07-4f7a-9396-2ec0b27c719f, .\34 507adb0-5e68-4f5a-8074-54aec9752413, .\34 cae7597-4c2a-4660-8789-e097668a2840, .\34 ef5d982-2b1e-4eb3-942a-031616789ba9, .\35 57f6e90-42cf-4a02-9479-09f377d35dcb, .\36 e5879d2-1a9e-4a97-9f94-d641e858d737, .\38 531b9d9-7872-4102-b998-170103ac718e, .\38 fc2f6dc-f8fd-4bb5-89ea-378046e005ef, .\39 4b902c6-573c-4416-a664-6df590b3f4fd, .a6e3172f-80d7-4c26-ab63-a19a6286ab2f, .d09f8560-7730-4b5c-a04e-baad9b088252, .ff0cf023-d2a9-47d9-a5a0-b832c4092710 {
        fill: none;
      }

      .\32 087db48-127c-44cf-a31c-985641d8149a, .\32 6362136-9d07-4f7a-9396-2ec0b27c719f, .\34 507adb0-5e68-4f5a-8074-54aec9752413, .\34 cae7597-4c2a-4660-8789-e097668a2840, .\34 ef5d982-2b1e-4eb3-942a-031616789ba9, .\35 57f6e90-42cf-4a02-9479-09f377d35dcb, .\36 e5879d2-1a9e-4a97-9f94-d641e858d737, .\38 531b9d9-7872-4102-b998-170103ac718e, .\38 fc2f6dc-f8fd-4bb5-89ea-378046e005ef, .a6e3172f-80d7-4c26-ab63-a19a6286ab2f, .d09f8560-7730-4b5c-a04e-baad9b088252, .ff0cf023-d2a9-47d9-a5a0-b832c4092710 {
        stroke: #582e91;
      }

      .\30 9738fab-4ff7-4688-8e6b-15c6c1d65d56, .\32 087db48-127c-44cf-a31c-985641d8149a, .\32 6362136-9d07-4f7a-9396-2ec0b27c719f, .\34 507adb0-5e68-4f5a-8074-54aec9752413, .\35 57f6e90-42cf-4a02-9479-09f377d35dcb, .\36 e5879d2-1a9e-4a97-9f94-d641e858d737, .\38 fc2f6dc-f8fd-4bb5-89ea-378046e005ef, .\39 4b902c6-573c-4416-a664-6df590b3f4fd, .d09f8560-7730-4b5c-a04e-baad9b088252, .ff0cf023-d2a9-47d9-a5a0-b832c4092710 {
        stroke-linecap: round;
      }

      .\32 087db48-127c-44cf-a31c-985641d8149a, .\32 6362136-9d07-4f7a-9396-2ec0b27c719f, .\34 507adb0-5e68-4f5a-8074-54aec9752413, .\35 57f6e90-42cf-4a02-9479-09f377d35dcb, .\36 e5879d2-1a9e-4a97-9f94-d641e858d737, .\38 fc2f6dc-f8fd-4bb5-89ea-378046e005ef, .d09f8560-7730-4b5c-a04e-baad9b088252, .ff0cf023-d2a9-47d9-a5a0-b832c4092710 {
        stroke-linejoin: round;
      }

      .\36 e5879d2-1a9e-4a97-9f94-d641e858d737 {
        stroke-width: 10px;
      }

      .\38 fc2f6dc-f8fd-4bb5-89ea-378046e005ef, .a6e3172f-80d7-4c26-ab63-a19a6286ab2f {
        stroke-width: 6px;
      }

      .\32 087db48-127c-44cf-a31c-985641d8149a, .\32 6362136-9d07-4f7a-9396-2ec0b27c719f, .\34 507adb0-5e68-4f5a-8074-54aec9752413, .d09f8560-7730-4b5c-a04e-baad9b088252, .ff0cf023-d2a9-47d9-a5a0-b832c4092710 {
        stroke-width: 8px;
      }

      .\34 507adb0-5e68-4f5a-8074-54aec9752413 {
        stroke-dasharray: 1.96 12.71;
      }

      .d09f8560-7730-4b5c-a04e-baad9b088252 {
        stroke-dasharray: 1.96 12.74;
      }

      .ff0cf023-d2a9-47d9-a5a0-b832c4092710 {
        stroke-dasharray: 1.93 12.52;
      }

      .\32 6362136-9d07-4f7a-9396-2ec0b27c719f {
        stroke-dasharray: 2 13;
      }

      .\35 6bdd63f-ee86-46fd-b721-0d36f29c63ae {
        fill: #dbdad9;
      }

      .\34 370b363-3320-47cf-bc58-5b582aab3b62 {
        fill: #582e91;
      }

      .\34 ec8a331-2c4b-4559-bb69-45f07544edb5 {
        fill: #43d3e8;
      }

      .\30 9738fab-4ff7-4688-8e6b-15c6c1d65d56, .\34 cae7597-4c2a-4660-8789-e097668a2840, .\34 ef5d982-2b1e-4eb3-942a-031616789ba9, .\38 531b9d9-7872-4102-b998-170103ac718e, .\39 4b902c6-573c-4416-a664-6df590b3f4fd, .a6e3172f-80d7-4c26-ab63-a19a6286ab2f {
        stroke-miterlimit: 10;
      }

      .\38 531b9d9-7872-4102-b998-170103ac718e {
        stroke-width: 7px;
      }

      .\30 223048f-8792-4dc3-a696-9457871dbc1b {
        fill: #f75c06;
      }

      .\34 cae7597-4c2a-4660-8789-e097668a2840, .\34 ef5d982-2b1e-4eb3-942a-031616789ba9 {
        stroke-width: 8.05px;
      }

      .\34 cae7597-4c2a-4660-8789-e097668a2840 {
        fill-rule: evenodd;
      }

      .\38 0aa2228-e1dd-404c-b026-1a4a0fcc4f6c {
        fill: #d3ef30;
      }

      .\35 4a29890-3322-4805-bf4e-0e80b28383c8 {
        fill: #ffed97;
      }

      .\35 57f6e90-42cf-4a02-9479-09f377d35dcb {
        stroke-width: 2.93px;
      }

      .\30 9738fab-4ff7-4688-8e6b-15c6c1d65d56 {
        stroke: #f6891f;
      }

      .\30 9738fab-4ff7-4688-8e6b-15c6c1d65d56, .\39 4b902c6-573c-4416-a664-6df590b3f4fd {
        stroke-width: 11px;
      }

      .\39 4b902c6-573c-4416-a664-6df590b3f4fd {
        stroke: #fff;
      }
    </style>
  </defs>
  <title>without</title>
  <g id="c8e24296-b74a-4e8b-b3c6-1ef96e4eeb85" data-name="Layer 3">
    <rect class="286b55b7-7e78-46e9-acc0-52f6b085b1b9" width="1920" height="1080"/>
  </g>
  <g id="fd0dc085-8e47-4fe8-b5c4-0476d30db892" data-name="Layer 1">
    <rect class="528f6b92-94a6-4984-aed1-20dcbbe9f9d2" x="768.5" y="923.5" width="400" height="93.17" rx="46.58" ry="46.58"/>
    <rect class="56e797b3-ff7c-4d1b-84dc-5d00f20e79ce" x="760" y="916" width="400" height="93.17" rx="46.58" ry="46.58"/>
    <circle id="560d058a-dd72-4f5b-ae4c-5f2e944f60c3" data-name="Trophy-back" class="70816a23-df7e-4951-8e55-991990369c63" cx="1508.06" cy="610.04" r="65.83"/>
    <ellipse id="2a6e12e2-8959-49cb-a504-0679be0ab616" data-name="tennis-back" class="0c851b04-fb1f-4a32-ad05-1186bc25c395" cx="426.26" cy="982.66" rx="65.83" ry="23.07"/>
    <ellipse class="56e797b3-ff7c-4d1b-84dc-5d00f20e79ce" cx="1320.78" cy="898.75" rx="58.13" ry="27.25"/>
    <g id="cb47ce37-ff03-41b5-8b54-c94583dd563f" data-name="bosm-main">
      <path class="c0cbe7b7-3648-4179-9a2d-8ce8816c41eb" d="M547.86,404h87.93c39.46,0,64,28.27,63.07,67.42-.62,16.78-6.52,34.18-20.51,43.81,14.6,9.94,23,27,23,44.43,0,37.28-29.52,66.8-65.56,66.8H547.86Zm44.74,89.17h39.46c12.74,0,20.51-10.25,20.51-22.37,0-12.43-7.77-22.37-20.51-22.37H592.6Zm0,88.86h39.46a22.08,22.08,0,0,0,22.37-22.37c0-12.43-9.63-22.06-22.37-22.06H592.6Z"/>
      <path class="c0cbe7b7-3648-4179-9a2d-8ce8816c41eb" d="M847.68,400.58c152.86,0,152.86,229,0,229S694.82,400.58,847.68,400.58Zm0,45.67c-88.86,0-88.86,137.33,0,137.33S936.54,446.25,847.68,446.25Z"/>
      <path class="c0cbe7b7-3648-4179-9a2d-8ce8816c41eb" d="M999.3,565.56c25.48,18,53.13,18.64,63.38,17.71,13-.93,24.23-10.25,23-22.37-.93-12.74-10.56-18.33-23-22.68-34.8-12.74-65.87-30.45-65.87-67.73s25.79-65.87,62.76-67.73c11.5-.62,26.72-.62,55.3,9.32l-5.59,42.88c-24.54-9.94-38.53-9.63-45.36-9.32-15.85.93-23,12.43-22.06,24.86,1.24,12.43,12.12,18,24.86,22.37,34.49,12.74,64.31,32.62,64.31,68,0,37-25.48,65.25-67.11,67.42-12.43.93-40.08-.62-70.22-16.16Z"/>
      <path class="c0cbe7b7-3648-4179-9a2d-8ce8816c41eb" d="M1357.85,400.89h14V626.45h-45.05l.31-124-56.86,59.65-56.86-59.65v124h-45.05V400.89h14.29l87.62,97.56Z"/>
    </g>
    <g id="520c4e38-8159-42be-8489-7f1767558c9d" data-name="bosm-line">
      <path class="6e5879d2-1a9e-4a97-9f94-d641e858d737" d="M539.86,399h87.93c39.46,0,64,28.27,63.07,67.42-.62,16.78-6.52,34.18-20.51,43.81,14.6,9.94,23,27,23,44.43,0,37.28-29.52,66.8-65.56,66.8H539.86Zm44.74,89.17h39.46c12.74,0,20.51-10.25,20.51-22.37,0-12.43-7.77-22.37-20.51-22.37H584.6Zm0,88.86h39.46a22.08,22.08,0,0,0,22.37-22.37c0-12.43-9.63-22.06-22.37-22.06H584.6Z"/>
      <path class="6e5879d2-1a9e-4a97-9f94-d641e858d737" d="M839.68,395.58c152.86,0,152.86,229,0,229S686.82,395.58,839.68,395.58Zm0,45.67c-88.86,0-88.86,137.33,0,137.33S928.54,441.25,839.68,441.25Z"/>
      <path class="6e5879d2-1a9e-4a97-9f94-d641e858d737" d="M991.3,560.56c25.48,18,53.13,18.64,63.38,17.71,13-.93,24.23-10.25,23-22.37-.93-12.74-10.56-18.33-23-22.68-34.8-12.74-65.87-30.45-65.87-67.73s25.79-65.87,62.76-67.73c11.5-.62,26.72-.62,55.3,9.32l-5.59,42.88c-24.54-9.94-38.53-9.63-45.36-9.32-15.85.93-23,12.43-22.06,24.86,1.24,12.43,12.12,18,24.86,22.37,34.49,12.74,64.31,32.62,64.31,68,0,37-25.48,65.25-67.11,67.42-12.43.93-40.08-.62-70.22-16.16Z"/>
      <path class="6e5879d2-1a9e-4a97-9f94-d641e858d737" d="M1349.85,395.89h14V621.45h-45.05l.31-124-56.86,59.65-56.86-59.65v124h-45.05V395.89h14.29l87.62,97.56Z"/>
    </g>
    <g id="5f31ceb5-c71c-4d45-9e07-8599ca9c76af" data-name="2017-main">
      <path class="c0cbe7b7-3648-4179-9a2d-8ce8816c41eb" d="M875.29,689.6c0-4.86-3.89-8.51-9-8.75-7.66-.49-17.26,4.5-20.05,6.93L842,671c6.68-4.86,17.26-8.26,25.77-7.9,25.52,1.34,34,23.7,19.45,44L870.06,733.6h25.77v17.62H838.46l32.45-51.53C875.53,693.13,875.29,689.6,875.29,689.6Z"/>
      <path class="c0cbe7b7-3648-4179-9a2d-8ce8816c41eb" d="M907.38,707.71c0-24.67,8.39-44.6,29.78-44.6,21.63,0,29.9,19.93,29.9,44.6s-8.27,44.73-29.9,44.73C915.76,752.44,907.38,732.38,907.38,707.71Zm42.9,0c0-15.56-3.28-28.32-13.13-28.32-9.6,0-12.88,12.76-12.88,28.32S927.55,736,937.15,736C947,736,950.28,723.39,950.28,707.71Z"/>
      <path class="c0cbe7b7-3648-4179-9a2d-8ce8816c41eb" d="M975.32,664.45h31.48v86.78H989.54v-69.4H975.32Z"/>
      <path class="c0cbe7b7-3648-4179-9a2d-8ce8816c41eb" d="M1053.59,680.85h-35V664.45h59.67l-35.49,86.78h-18.72Z"/>
    </g>
    <g id="b34b61dc-fe5e-433b-bb11-831878676bc1" data-name="2017-line">
      <path class="8fc2f6dc-f8fd-4bb5-89ea-378046e005ef" d="M869.29,686.6c0-4.86-3.89-8.51-9-8.75-7.66-.49-17.26,4.5-20.05,6.93L836,668c6.68-4.86,17.26-8.26,25.77-7.9,25.52,1.34,34,23.7,19.45,44L864.06,730.6h25.77v17.62H832.46l32.45-51.53C869.53,690.13,869.29,686.6,869.29,686.6Z"/>
      <path class="8fc2f6dc-f8fd-4bb5-89ea-378046e005ef" d="M901.38,704.71c0-24.67,8.39-44.6,29.78-44.6,21.63,0,29.9,19.93,29.9,44.6s-8.27,44.73-29.9,44.73C909.76,749.44,901.38,729.38,901.38,704.71Zm42.9,0c0-15.56-3.28-28.32-13.13-28.32-9.6,0-12.88,12.76-12.88,28.32S921.55,733,931.15,733C941,733,944.28,720.39,944.28,704.71Z"/>
      <path class="8fc2f6dc-f8fd-4bb5-89ea-378046e005ef" d="M969.32,661.45h31.48v86.78H983.54v-69.4H969.32Z"/>
      <path class="8fc2f6dc-f8fd-4bb5-89ea-378046e005ef" d="M1047.59,677.85h-35V661.45h59.67l-35.49,86.78h-18.72Z"/>
    </g>
    <rect id="8fac6499-48ea-47f8-aa87-6c29ef1ca282" data-name="left-main" class="c0cbe7b7-3648-4179-9a2d-8ce8816c41eb" x="586" y="707" width="181" height="14"/>
    <rect id="0bb97ce5-3049-447d-a34d-28046636fdab" data-name="left-line" class="8fc2f6dc-f8fd-4bb5-89ea-378046e005ef" x="582" y="702" width="181" height="14"/>
    <rect id="f97dadf6-19da-4729-b484-a3ff40bf2be3" data-name="right-main" class="c0cbe7b7-3648-4179-9a2d-8ce8816c41eb" x="1131" y="707" width="181" height="14"/>
    <rect id="4446a27a-4d1b-4352-ad8c-7a353bc89e69" data-name="right-line" class="8fc2f6dc-f8fd-4bb5-89ea-378046e005ef" x="1125" y="702" width="181" height="14"/>
    <g>
      <line class="2087db48-127c-44cf-a31c-985641d8149a" x1="1135" y1="210" x2="1136" y2="210"/>
      <path class="4507adb0-5e68-4f5a-8074-54aec9752413" d="M1148.71,210H1365a31,31,0,0,1,30.14,23.71"/>
      <path class="2087db48-127c-44cf-a31c-985641d8149a" d="M1396,240q0,.5,0,1v-1"/>
      <path class="2087db48-127c-44cf-a31c-985641d8149a" d="M1396,238v-1q0,.5,0,1"/>
      <path class="d09f8560-7730-4b5c-a04e-baad9b088252" d="M1393,250.31A31,31,0,0,1,1365,268h-35a31,31,0,0,0-30.13,23.69"/>
      <path class="2087db48-127c-44cf-a31c-985641d8149a" d="M1299,298q0,.5,0,1v-1"/>
      <polyline class="2087db48-127c-44cf-a31c-985641d8149a" points="1299 297 1299 296 1299 297"/>
      <line class="ff0cf023-d2a9-47d9-a5a0-b832c4092710" x1="1299" y1="309.52" x2="1299" y2="447.74"/>
      <line class="2087db48-127c-44cf-a31c-985641d8149a" x1="1299" y1="454" x2="1299" y2="455"/>
    </g>
    <path id="69444ea5-cd21-4f59-a121-0cfb97e5d48e" data-name="jersey-line" class="26362136-9d07-4f7a-9396-2ec0b27c719f" d="M499.67,231.5H396.33a31,31,0,0,0,0,62,31,31,0,1,1,0,62H368.5a31,31,0,0,0,0,62h174"/>
    <path id="eb154a88-ffbd-46c5-86d3-0363da418824" data-name="tennis-line" class="26362136-9d07-4f7a-9396-2ec0b27c719f" d="M435.25,870.5V824.08a31,31,0,0,1,31-31h50.61a31,31,0,0,0,31-31V626.45"/>
    <line id="7086cb3d-c604-4738-8ec4-5bb46a6e93fd" data-name="trophy-line" class="26362136-9d07-4f7a-9396-2ec0b27c719f" x1="1363.57" y1="586.59" x2="1509.06" y2="586.59"/>
    <path class="26362136-9d07-4f7a-9396-2ec0b27c719f" d="M1263.75,849H1184a31,31,0,0,1-31-31V716"/>
    <g id="e870bb13-42dc-4222-bb27-a7b95d8241da" data-name="Trophy">
      <path class="56bdd63f-ee86-46fd-b721-0d36f29c63ae" d="M1495.42,519.92l77-1s3,87-37,87S1495.42,542.42,1495.42,519.92Z"/>
      <path class="56bdd63f-ee86-46fd-b721-0d36f29c63ae" d="M1565.8,645.88h-9.73V626.67a24.24,24.24,0,0,1-11.82-10.61,23.79,23.79,0,0,1-2.83-11.73,12.16,12.16,0,0,1-13.5,0,26.2,26.2,0,0,1-13.6,22.33v19.21h-10.73a7.42,7.42,0,0,0-7.42,7.42v8.45h77.05V653.3A7.42,7.42,0,0,0,1565.8,645.88Z"/>
      <polygon class="528f6b92-94a6-4984-aed1-20dcbbe9f9d2" points="1529.44 538.44 1534.12 547.91 1544.57 549.43 1537.01 556.8 1538.79 567.21 1529.44 562.3 1520.09 567.21 1521.88 556.8 1514.32 549.43 1524.77 547.91 1529.44 538.44"/>
      <path class="4370b363-3320-47cf-bc58-5b582aab3b62" d="M1591.48,525.09a10.92,10.92,0,0,0-8.33-3.85H1572.6v-3.3a7.41,7.41,0,0,0-7.4-7.4h-71.51a7.41,7.41,0,0,0-7.4,7.4v3.3h-10.55a10.92,10.92,0,0,0-8.33,3.85,10.79,10.79,0,0,0-2.44,8.73,56.52,56.52,0,0,0,28.71,40.35,74.53,74.53,0,0,0,4.72,9.46c5.6,9.43,12.56,15.94,20.23,19.09a16,16,0,0,1-12.32,17.07h0a3.49,3.49,0,0,0-2.68,3.39v16h-6.48a10.49,10.49,0,0,0-10.48,10.48V658a3.49,3.49,0,0,0,3.49,3.49h79a3.49,3.49,0,0,0,3.49-3.49V649.7a10.49,10.49,0,0,0-10.48-10.48h-6.48v-16a3.49,3.49,0,0,0-2.69-3.4h0a15.94,15.94,0,0,1-12.31-17.21c7.53-3.2,14.37-9.66,19.89-18.94a74.56,74.56,0,0,0,4.72-9.46,56.52,56.52,0,0,0,28.71-40.35A10.79,10.79,0,0,0,1591.48,525.09Zm-119.62,7.61a3.76,3.76,0,0,1,.87-3.09,4,4,0,0,1,3-1.39h10.55v6.43a109.76,109.76,0,0,0,3.72,28.77A49.47,49.47,0,0,1,1471.86,532.7Zm90.26,113.5a3.5,3.5,0,0,1,3.49,3.49v4.78h-72V649.7a3.5,3.5,0,0,1,3.49-3.49Zm-13.47-19.52v12.53h-38.09V626.69Zm-28.93-7a23.13,23.13,0,0,0,2.36-3.08,22.72,22.72,0,0,0,3.6-12,27.39,27.39,0,0,0,7.84,0,23,23,0,0,0,6,15.12h-19.8Zm45.89-85.05c0,17.21-4,33.34-11.13,45.41-6.84,11.51-15.73,17.84-25,17.84s-18.21-6.34-25-17.84c-7.18-12.07-11.13-28.2-11.13-45.41V517.94a.42.42,0,0,1,.42-.42h71.51a.42.42,0,0,1,.42.42ZM1587,532.7a49.47,49.47,0,0,1-18.15,30.71,109.77,109.77,0,0,0,3.72-28.76v-6.43h10.55a4,4,0,0,1,3,1.39A3.76,3.76,0,0,1,1587,532.7Z"/>
      <path class="4370b363-3320-47cf-bc58-5b582aab3b62" d="M1550.65,546.4a3.5,3.5,0,0,0-2.82-2.38l-10.54-1.53-4.71-9.55a3.49,3.49,0,0,0-6.26,0l-4.71,9.55L1511.05,544a3.49,3.49,0,0,0-1.94,6l7.63,7.43-1.8,10.5a3.49,3.49,0,0,0,5.07,3.68l9.43-5,9.43,5a3.49,3.49,0,0,0,5.07-3.68l-1.8-10.5,7.63-7.43A3.49,3.49,0,0,0,1550.65,546.4Zm-14.7,7.29a3.49,3.49,0,0,0-1,3.09l.91,5.33-4.79-2.52a3.5,3.5,0,0,0-3.25,0l-4.79,2.52.91-5.33a3.49,3.49,0,0,0-1-3.09l-3.87-3.78,5.35-.78a3.49,3.49,0,0,0,2.63-1.91l2.39-4.85,2.39,4.85a3.49,3.49,0,0,0,2.63,1.91l5.35.78Z"/>
    </g>
    <circle id="d35c29f7-c590-4818-b456-34096483375d" data-name="chess-back" class="4ec8a331-2c4b-4559-bb69-45f07544edb5" cx="1101.73" cy="140.01" r="65.83"/>
    <circle id="2c5228bb-e74d-4f14-bd91-b6d03058f0ca" data-name="jersey-back" class="56e797b3-ff7c-4d1b-84dc-5d00f20e79ce" cx="582" cy="248.3" r="65.83"/>
    <g id="dced9953-5c1b-4e03-86c7-1a6efdda268a" data-name="chess">
      <path class="56e797b3-ff7c-4d1b-84dc-5d00f20e79ce" d="M1151.6,268.67H1150c-23.67-35.67-23.67-92.33-23.67-92.33h5.83a5.83,5.83,0,1,0,0-11.67h-4.83l16.5-40h-15.5V110h-6.75l-6.75-17.81,3.5-1.5,15.25,8.25V69.17l-17.25,6-1.5-2.25,4.5-15.25h-27.5l4.75,15.75-1.5,2.25-15.25-6.5V97.92l15.63-4.75,3.13,2.25L1092.35,110h-7.67v14.69h-15.83l16.5,40h-5.5a5.83,5.83,0,0,0,0,11.67h5.83s0,56.67-23.67,92.33h-2.42a11.5,11.5,0,0,0,0,23H1062V304h88.33V291.67h1.25a11.5,11.5,0,0,0,0-23Z"/>
      <path class="8531b9d9-7872-4102-b998-170103ac718e" d="M1121.35,171.67h-40.67s0,56.67-23.67,92.33h88C1121.35,228.34,1121.35,171.67,1121.35,171.67Z"/>
      <polygon class="8531b9d9-7872-4102-b998-170103ac718e" points="1063.85 120.01 1138.85 120.01 1122.35 160.01 1080.35 160.01 1063.85 120.01"/>
      <rect class="8531b9d9-7872-4102-b998-170103ac718e" x="1069.02" y="160.01" width="64" height="11.67" rx="5.83" ry="5.83"/>
      <rect class="8531b9d9-7872-4102-b998-170103ac718e" x="1043.1" y="264.01" width="115" height="23" rx="11.5" ry="11.5"/>
      <polyline class="8531b9d9-7872-4102-b998-170103ac718e" points="1145.35 288.51 1145.35 298.34 1057.02 298.34 1057.02 288.2"/>
      <polyline class="8531b9d9-7872-4102-b998-170103ac718e" points="1079.68 119.01 1079.68 105.32 1123.35 105.32 1123.35 118.26"/>
      <polygon class="8531b9d9-7872-4102-b998-170103ac718e" points="1087.35 105.32 1093.6 90.76 1090.48 88.51 1074.85 93.26 1074.85 64.51 1090.1 71.01 1091.6 68.76 1086.85 53.01 1114.35 53.01 1109.85 68.26 1111.35 70.51 1128.6 64.51 1128.6 94.26 1113.35 86.01 1109.85 87.51 1116.6 105.32 1087.35 105.32"/>
    </g>
    <g id="187e7e40-d5be-4f04-a3b8-531b6c2ec8ba" data-name="Basketball">
      <circle class="0223048f-8792-4dc3-a696-9457871dbc1b" cx="1320.78" cy="852.06" r="55.51"/>
      <circle class="4ef5d982-2b1e-4eb3-942a-031616789ba9" cx="1314.45" cy="845.94" r="55.51"/>
      <path class="4cae7597-4c2a-4660-8789-e097668a2840" d="M1298.5,792.76s45,54.61,33.05,106"/>
      <path class="4cae7597-4c2a-4660-8789-e097668a2840" d="M1259.93,834.66s62.4,5.93,99.59-21.12"/>
      <path class="4cae7597-4c2a-4660-8789-e097668a2840" d="M1271.6,881.22s38-39.22,98.36-31.46"/>
    </g>
    <path class="80aa2228-e1dd-404c-b026-1a4a0fcc4f6c" d="M440.72,884.93a51.23,51.23,0,0,0-18.51,3.45c4.47,3.88,10.81,5.67,18.42,5.16h.2c14.32.59,26.06,8.72,31.41,21.73,4.61,11.23,2.69,24.73-5,35.26a63.76,63.76,0,0,1-8.58,9.52,36.37,36.37,0,0,1-17.86,9.21,37.16,37.16,0,0,1-6.46.57,36.25,36.25,0,0,1-22.75-8,34.92,34.92,0,0,1-12.92-26.22v-.2c.53-7.8-1.36-14.24-5.42-18.72a51.37,51.37,0,1,0,47.5-31.79Z"/>
    <g id="0110f5c7-8e25-46a6-9322-fb64e6851022" data-name="tennis">
      <polyline class="56e797b3-ff7c-4d1b-84dc-5d00f20e79ce" points="422.22 888.38 418.63 889.92 395.35 913.59 393.23 916.73 399.13 952.63 414.13 972.13 451 974.5 475.75 941.88 475.75 913.38 464.88 898.38 450.38 890.88 425.63 888.38 422.85 888.15"/>
      <path class="80aa2228-e1dd-404c-b026-1a4a0fcc4f6c" d="M402.31,935.59A31.29,31.29,0,0,0,413.86,959a31.9,31.9,0,0,0,42.3-1.67,59.94,59.94,0,0,0,8.09-9c7-9.5,8.72-21.64,4.6-31.69-4.78-11.62-15.26-18.89-28.07-19.45-9,.58-16.51-1.73-21.75-6.72a1.82,1.82,0,0,1-.4-.57,51.54,51.54,0,0,0-23.8,23.31,1.81,1.81,0,0,1,.52.35C400.51,918.83,402.92,926.44,402.31,935.59Z"/>
      <path class="80aa2228-e1dd-404c-b026-1a4a0fcc4f6c" d="M440.72,884.93a51.23,51.23,0,0,0-18.51,3.45c4.47,3.88,10.81,5.67,18.42,5.16h.2c14.32.59,26.06,8.72,31.41,21.73,4.61,11.23,2.69,24.73-5,35.26a63.76,63.76,0,0,1-8.58,9.52,36.37,36.37,0,0,1-17.86,9.21,37.16,37.16,0,0,1-6.46.57,36.25,36.25,0,0,1-22.75-8,34.92,34.92,0,0,1-12.92-26.22v-.2c.53-7.8-1.36-14.24-5.42-18.72a51.37,51.37,0,1,0,47.5-31.79Z"/>
      <circle class="a6e3172f-80d7-4c26-ab63-a19a6286ab2f" cx="434.22" cy="931.3" r="51.37"/>
    </g>
    <g id="c337bd28-18e0-4dbc-aac6-3e1d671faa1b" data-name="jersey">
      <g>
        <rect class="80aa2228-e1dd-404c-b026-1a4a0fcc4f6c" x="606.64" y="199.7" width="26.88" height="13.69"/>
        <rect class="80aa2228-e1dd-404c-b026-1a4a0fcc4f6c" x="477.44" y="199.7" width="26.88" height="13.69"/>
      </g>
      <polyline class="80aa2228-e1dd-404c-b026-1a4a0fcc4f6c" points="633.52 213.39 633.52 213.39 606.64 213.39 606.64 199.7 504.32 199.7 504.32 213.39 504.32 213.39 504.32 213.39 504.32 266.07 606.64 266.07 606.64 213.39"/>
      <rect class="c0cbe7b7-3648-4179-9a2d-8ce8816c41eb" x="504.32" y="266.07" width="102.32" height="19.67"/>
      <rect class="54a29890-3322-4805-bf4e-0e80b28383c8" x="519.26" y="199.7" width="72.45" height="47.83"/>
      <path class="80aa2228-e1dd-404c-b026-1a4a0fcc4f6c" d="M576.62,151.42a22.79,22.79,0,0,1-42.27,0H519.73a36.76,36.76,0,0,0,71.51,0Z"/>
      <g id="60d78df0-3f9e-4643-9a2e-3d3bae511513" data-name="jersey">
        <path class="c0cbe7b7-3648-4179-9a2d-8ce8816c41eb" d="M633.52,168a16.57,16.57,0,0,0-16.57-16.57H576.62a22.79,22.79,0,0,1-42.27,0H494A16.57,16.57,0,0,0,477.44,168V199.7H633.52V168Z"/>
        <g id="7352055b-7b60-492d-9b59-e3567e692e05" data-name="v">
          <path class="4370b363-3320-47cf-bc58-5b582aab3b62" d="M540.72,214.77l-1.35.84a2.12,2.12,0,0,1-1.16.37c-1.35,0-2.28-1.44-2.28-2.89a2.78,2.78,0,0,1,1.35-2.47l6.15-3.72a2.53,2.53,0,0,1,1.35-.33c1.49,0,3.21.88,3.21,2.28v29.61c0,1.49-1.82,2.23-3.63,2.23s-3.63-.74-3.63-2.23v-23.7Z"/>
          <path class="4370b363-3320-47cf-bc58-5b582aab3b62" d="M552.18,230V217.66c0-8,5-11,11.41-11s11.45,3,11.45,11V230c0,8-5,11-11.45,11S552.18,238,552.18,230Zm15.6-12.34c0-3.21-1.58-4.66-4.19-4.66s-4.14,1.44-4.14,4.66V230c0,3.21,1.54,4.66,4.14,4.66s4.19-1.44,4.19-4.66Z"/>
          <path id="9a6b2a3a-26c6-4e47-8784-2071f2f934f1" data-name="jersey" class="4370b363-3320-47cf-bc58-5b582aab3b62" d="M616.95,148.25H576.38a3.17,3.17,0,0,0-2.7,2,19.62,19.62,0,0,1-36.38,0,3.17,3.17,0,0,0-2.94-2H494A19.77,19.77,0,0,0,474.27,168v45.4a3.17,3.17,0,0,0,3.17,3.17h23.71v31h0v38.2a3.17,3.17,0,0,0,3.17,3.17H606.64a3.17,3.17,0,0,0,3.17-3.17V216.56h23.71a3.17,3.17,0,0,0,3.17-3.17V168A19.77,19.77,0,0,0,616.95,148.25Zm-84.64,6.35a26,26,0,0,0,46.35,0H587a33.59,33.59,0,0,1-63,0ZM480.62,168a13.42,13.42,0,0,1,13.4-13.4h23.3a39.92,39.92,0,0,0,76.33,0h23.3a13.42,13.42,0,0,1,13.4,13.4v28.54H609.81v-7.79a3.17,3.17,0,1,0-6.34,0v7.79h-96v-7.79a3.17,3.17,0,1,0-6.34,0v7.79H480.62Zm35.47,34.88v41.49h-8.59V202.87h8.59Zm72.45,41.49H522.43V202.87h66.11v41.49Zm-81,6.34h96v12.2h-96Zm96-37.32v31h-8.59V202.87h8.59Zm-122.85-3.17v-7.34h20.53v7.34Zm122.86,72.35h-96V269.24h96Zm6.34-72.35v-7.34h20.54v7.34Z"/>
        </g>
      </g>
    </g>
    <g id="134d79fa-488e-4193-bed7-060165aecd8a" data-name="register-back">
      <path class="c0cbe7b7-3648-4179-9a2d-8ce8816c41eb" d="M860.2,981.55,852,966.05H848.1v15.5H840V941h16c14.48,0,15.9,20.39,4,23.85l9.43,16.75Zm-12.1-23.39h7.16c5.51,0,5.51-9.09,0-9.09H848.1Z"/>
      <path class="c0cbe7b7-3648-4179-9a2d-8ce8816c41eb" d="M874.79,981.55V941h20.33v8.12H882.91v8.12h10.68v8.12H882.91v8.12H895.8v8.12Z"/>
      <path class="c0cbe7b7-3648-4179-9a2d-8ce8816c41eb" d="M922.21,981.78c-26.8,0-28.16-40.15,0-41.17a27.37,27.37,0,0,1,9.48,1.48l-1,8.23a19.25,19.25,0,0,0-8.52-1.48c-16.41.57-15.67,24.81,0,24.81a15.34,15.34,0,0,0,2.27-.23V961.22h8.23v17.83A21.13,21.13,0,0,1,922.21,981.78Z"/>
      <path class="c0cbe7b7-3648-4179-9a2d-8ce8816c41eb" d="M941.63,981.55V941h8.12v40.6Z"/>
      <path class="c0cbe7b7-3648-4179-9a2d-8ce8816c41eb" d="M958,970.42a18.22,18.22,0,0,0,11.58,3.24c2.39-.17,4.43-1.87,4.2-4.09s-1.93-3.35-4.2-4.15c-6.36-2.33-12-5.57-12-12.38s4.71-12,11.47-12.38c2.1-.11,4.88-.11,10.11,1.7l-1,7.84c-4.49-1.82-7-1.76-8.29-1.7a4,4,0,0,0-4,4.54c.23,2.27,2.21,3.29,4.54,4.09,6.3,2.33,11.75,6,11.75,12.44,0,6.76-4.66,11.92-12.27,12.32a25.4,25.4,0,0,1-12.83-3Z"/>
      <path class="c0cbe7b7-3648-4179-9a2d-8ce8816c41eb" d="M995.64,981.55V949.07H985.53V941h28.34v8.06h-10.11v32.48Z"/>
      <path class="c0cbe7b7-3648-4179-9a2d-8ce8816c41eb" d="M1020,981.55V941h20.33v8.12h-12.21v8.12h10.68v8.12h-10.68v8.12H1041v8.12Z"/>
      <path class="c0cbe7b7-3648-4179-9a2d-8ce8816c41eb" d="M1068.84,981.55l-8.18-15.5h-3.92v15.5h-8.12V941h16c14.48,0,15.9,20.39,4,23.85l9.43,16.75Zm-12.09-23.39h7.15c5.51,0,5.51-9.09,0-9.09h-7.15Z"/>
    </g>
    <g id="b0f01bc1-cbe7-40ea-858d-4893255c15a0" data-name="register-utline">
      <path class="557f6e90-42cf-4a02-9479-09f377d35dcb" d="M862.4,984.12l-8.18-15.5H850.3v15.5h-8.12v-40.6h16c14.48,0,15.9,20.39,4,23.85l9.43,16.75Zm-12.1-23.39h7.16c5.51,0,5.51-9.09,0-9.09H850.3Z"/>
      <path class="557f6e90-42cf-4a02-9479-09f377d35dcb" d="M877,984.12v-40.6h20.33v8.12H885.11v8.12h10.68v8.12H885.11V976H898v8.12Z"/>
      <path class="557f6e90-42cf-4a02-9479-09f377d35dcb" d="M924.41,984.35c-26.8,0-28.16-40.15,0-41.17a27.37,27.37,0,0,1,9.48,1.48l-1,8.23a19.25,19.25,0,0,0-8.52-1.48c-16.41.57-15.67,24.81,0,24.81a15.34,15.34,0,0,0,2.27-.23V963.79h8.23v17.83A21.13,21.13,0,0,1,924.41,984.35Z"/>
      <path class="557f6e90-42cf-4a02-9479-09f377d35dcb" d="M943.83,984.12v-40.6H952v40.6Z"/>
      <path class="557f6e90-42cf-4a02-9479-09f377d35dcb" d="M960.24,973a18.22,18.22,0,0,0,11.58,3.24c2.39-.17,4.43-1.87,4.2-4.09s-1.93-3.35-4.2-4.15c-6.36-2.33-12-5.57-12-12.38s4.71-12,11.47-12.38c2.1-.11,4.88-.11,10.11,1.7l-1,7.84c-4.49-1.82-7-1.76-8.29-1.7a4,4,0,0,0-4,4.54c.23,2.27,2.21,3.29,4.54,4.09,6.3,2.33,11.75,6,11.75,12.44,0,6.76-4.66,11.92-12.27,12.32a25.4,25.4,0,0,1-12.83-3Z"/>
      <path class="557f6e90-42cf-4a02-9479-09f377d35dcb" d="M997.84,984.12V951.64H987.73v-8.06h28.34v8.06H1006v32.48Z"/>
      <path class="557f6e90-42cf-4a02-9479-09f377d35dcb" d="M1022.2,984.12v-40.6h20.33v8.12h-12.21v8.12H1041v8.12h-10.68V976h12.89v8.12Z"/>
      <path class="557f6e90-42cf-4a02-9479-09f377d35dcb" d="M1071,984.12l-8.18-15.5h-3.92v15.5h-8.12v-40.6h16c14.48,0,15.9,20.39,4,23.85l9.43,16.75Zm-12.09-23.39h7.15c5.51,0,5.51-9.09,0-9.09h-7.15Z"/>
    </g>
    <g id="b40c2725-ecce-46d7-841b-2c121b94fac3" data-name="re9">
      <line class="09738fab-4ff7-4688-8e6b-15c6c1d65d56" x1="348.96" y1="559.74" x2="334.37" y2="596.26"/>
      <line class="09738fab-4ff7-4688-8e6b-15c6c1d65d56" x1="359.93" y1="585.3" x2="323.4" y2="570.7"/>
    </g>
    <g id="2f2ecd3c-861e-45d1-8447-2685cbb372c2" data-name="re8">
      <line class="09738fab-4ff7-4688-8e6b-15c6c1d65d56" x1="1431.26" y1="314.24" x2="1416.67" y2="350.76"/>
      <line class="09738fab-4ff7-4688-8e6b-15c6c1d65d56" x1="1442.23" y1="339.8" x2="1405.7" y2="325.2"/>
    </g>
    <g id="eea8929f-8165-4120-81e3-706052cb0eff" data-name="re7">
      <line class="09738fab-4ff7-4688-8e6b-15c6c1d65d56" x1="889.83" y1="823.15" x2="853.35" y2="837.87"/>
      <line class="09738fab-4ff7-4688-8e6b-15c6c1d65d56" x1="878.95" y1="848.75" x2="864.23" y2="812.27"/>
    </g>
    <g id="2cd2c9c2-bd01-4b22-822e-e0cfe756c09c" data-name="re6">
      <line class="94b902c6-573c-4416-a664-6df590b3f4fd" x1="967.69" y1="240.17" x2="931.21" y2="254.89"/>
      <line class="94b902c6-573c-4416-a664-6df590b3f4fd" x1="956.81" y1="265.77" x2="942.09" y2="229.29"/>
    </g>
    <circle id="32381bb5-dbbc-4ffe-8775-0b5977fddf3c" data-name="re5" class="94b902c6-573c-4416-a664-6df590b3f4fd" cx="586" cy="792.76" r="17"/>
    <circle id="0743b885-eab5-423c-bf04-3231e9163d32" data-name="re4" class="09738fab-4ff7-4688-8e6b-15c6c1d65d56" cx="1481.82" cy="775.76" r="17"/>
    <circle id="bb7e7cef-a739-4082-addc-96431a6cdeb7" data-name="re3" class="09738fab-4ff7-4688-8e6b-15c6c1d65d56" cx="765.73" cy="193.77" r="17"/>
    <circle id="c36fffa3-bb22-4e17-9eca-a67a0cf251cf" data-name="re2" class="94b902c6-573c-4416-a664-6df590b3f4fd" cx="252.47" cy="258.76" r="17"/>
    <circle id="5e425740-13c1-4377-a57f-a6d0dba22be1" data-name="re1" class="94b902c6-573c-4416-a664-6df590b3f4fd" cx="1594.06" cy="210" r="17"/>
  </g>
</svg>
