<svg xmlns="http://www.w3.org/2000/svg" viewBox="0 0 424.58 39.3">
  <defs>
    <style>
      .f584001a-db53-43e3-811e-de98a29ef4f7 {
        fill: #f91653;
      }

      .a711b13b-396c-41f5-905e-b7a1b428040f {
        fill: none;
        stroke: #582e91;
        stroke-miterlimit: 10;
        stroke-width: 3px;
      }
    </style>
  </defs>
  <title>Date</title>
  <g id="855c9895-541e-447b-be76-2925a48ade5b" data-name="Layer 2">
    <g id="a61118bd-7562-426a-b85c-e6f43c93751b" data-name="Shine">
      <g>
        <path class="f584001a-db53-43e3-811e-de98a29ef4f7" d="M17.73,12.35a3.64,3.64,0,0,0-3.67-3.57c-3.12-.2-7,1.83-8.17,2.82L4.15,4.77a18.27,18.27,0,0,1,10.5-3.22c10.4.54,13.87,9.66,7.93,17.94l-7,10.8H26.1v7.18H2.72l13.23-21C17.83,13.79,17.73,12.35,17.73,12.35Z"/>
        <path class="f584001a-db53-43e3-811e-de98a29ef4f7" d="M29.72,2.09H42.55V37.47h-7V9.18h-5.8Z"/>
        <path class="f584001a-db53-43e3-811e-de98a29ef4f7" d="M62.52,17.26h18v6.59h-18Z"/>
        <path class="f584001a-db53-43e3-811e-de98a29ef4f7" d="M112.51,12.35a3.64,3.64,0,0,0-3.67-3.57c-3.12-.2-7,1.83-8.17,2.82L98.93,4.77a18.27,18.27,0,0,1,10.5-3.22c10.4.54,13.87,9.66,7.93,17.94l-7,10.8h10.5v7.18H97.5l13.23-21C112.61,13.79,112.51,12.35,112.51,12.35Z"/>
        <path class="f584001a-db53-43e3-811e-de98a29ef4f7" d="M146.94,27.07c0,5.9-4,10.35-10.65,10.7A32.91,32.91,0,0,1,125,36.18l.64-7c11,3.77,14.17.74,14.12-2.23,0-4.16-2.63-5.45-13.43-6.24V2h18V8.83h-10.9V15C142.38,15.82,146.94,18.89,146.94,27.07Z"/>
        <path class="f584001a-db53-43e3-811e-de98a29ef4f7" d="M166.31,27.76a15.91,15.91,0,0,0,10.11,2.82c2.08-.15,3.86-1.64,3.67-3.57s-1.68-2.92-3.67-3.62c-5.55-2-10.5-4.86-10.5-10.8s4.11-10.5,10-10.8a21,21,0,0,1,8.82,1.49l-.89,6.84a16.09,16.09,0,0,0-7.23-1.49,3.51,3.51,0,0,0-3.52,4c.2,2,1.93,2.87,4,3.57,5.5,2,10.26,5.2,10.26,10.85,0,5.9-4.06,10.4-10.7,10.75a22.16,22.16,0,0,1-11.2-2.58Z"/>
        <path class="f584001a-db53-43e3-811e-de98a29ef4f7" d="M193.27,37.47V2H211V9.13H200.35v7.08h9.31V23.3h-9.31v7.08H211.6v7.08Z"/>
        <path class="f584001a-db53-43e3-811e-de98a29ef4f7" d="M218.24,37.47V2.09h13.92c13.77,0,13.72,21.85,0,21.85h-6.84V37.47Zm13.33-20.41c4.76,0,4.76-7.93,0-7.93h-6.24v7.93Z"/>
        <path class="f584001a-db53-43e3-811e-de98a29ef4f7" d="M254,37.47V9.13h-8.82v-7h24.72v7H261V37.47Z"/>
        <path class="f584001a-db53-43e3-811e-de98a29ef4f7" d="M275.21,37.47V2h17.74V9.13H282.3v7.08h9.31V23.3H282.3v7.08h11.25v7.08Z"/>
        <path class="f584001a-db53-43e3-811e-de98a29ef4f7" d="M330.41,1.5h2.23v36h-7.18l0-19.77-9.07,9.51-9.07-9.51V37.47h-7.18V1.5h2.28l14,15.56Z"/>
        <path class="f584001a-db53-43e3-811e-de98a29ef4f7" d="M340.61,2h14c6.29,0,10.21,4.51,10.06,10.75-.1,2.68-1,5.45-3.27,7a8.6,8.6,0,0,1,3.67,7.08,10.53,10.53,0,0,1-10.45,10.65h-14Zm7.13,14.22H354a3.31,3.31,0,0,0,3.27-3.57A3.28,3.28,0,0,0,354,9.08h-6.29Zm0,14.17H354a3.52,3.52,0,0,0,3.57-3.57A3.48,3.48,0,0,0,354,23.3h-6.29Z"/>
        <path class="f584001a-db53-43e3-811e-de98a29ef4f7" d="M371.38,37.47V2h17.74V9.13H378.46v7.08h9.31V23.3h-9.31v7.08h11.25v7.08Z"/>
        <path class="f584001a-db53-43e3-811e-de98a29ef4f7" d="M414,37.47l-7.13-13.53h-3.42V37.47h-7.08V2h14c12.63,0,13.87,17.79,3.47,20.81L422,37.47ZM403.43,17.06h6.24c4.81,0,4.81-7.93,0-7.93h-6.24Z"/>
      </g>
      <g>
        <path class="a711b13b-396c-41f5-905e-b7a1b428040f" d="M17.73,12.35a3.64,3.64,0,0,0-3.67-3.57c-3.12-.2-7,1.83-8.17,2.82L4.15,4.77a18.27,18.27,0,0,1,10.5-3.22c10.4.54,13.87,9.66,7.93,17.94l-7,10.8H26.1v7.18H2.72l13.23-21C17.83,13.79,17.73,12.35,17.73,12.35Z"/>
        <path class="a711b13b-396c-41f5-905e-b7a1b428040f" d="M29.72,2.09H42.55V37.47h-7V9.18h-5.8Z"/>
        <path class="a711b13b-396c-41f5-905e-b7a1b428040f" d="M62.52,17.26h18v6.59h-18Z"/>
        <path class="a711b13b-396c-41f5-905e-b7a1b428040f" d="M112.51,12.35a3.64,3.64,0,0,0-3.67-3.57c-3.12-.2-7,1.83-8.17,2.82L98.93,4.77a18.27,18.27,0,0,1,10.5-3.22c10.4.54,13.87,9.66,7.93,17.94l-7,10.8h10.5v7.18H97.5l13.23-21C112.61,13.79,112.51,12.35,112.51,12.35Z"/>
        <path class="a711b13b-396c-41f5-905e-b7a1b428040f" d="M146.94,27.07c0,5.9-4,10.35-10.65,10.7A32.91,32.91,0,0,1,125,36.18l.64-7c11,3.77,14.17.74,14.12-2.23,0-4.16-2.63-5.45-13.43-6.24V2h18V8.83h-10.9V15C142.38,15.82,146.94,18.89,146.94,27.07Z"/>
        <path class="a711b13b-396c-41f5-905e-b7a1b428040f" d="M166.31,27.76a15.91,15.91,0,0,0,10.11,2.82c2.08-.15,3.86-1.64,3.67-3.57s-1.68-2.92-3.67-3.62c-5.55-2-10.5-4.86-10.5-10.8s4.11-10.5,10-10.8a21,21,0,0,1,8.82,1.49l-.89,6.84a16.09,16.09,0,0,0-7.23-1.49,3.51,3.51,0,0,0-3.52,4c.2,2,1.93,2.87,4,3.57,5.5,2,10.26,5.2,10.26,10.85,0,5.9-4.06,10.4-10.7,10.75a22.16,22.16,0,0,1-11.2-2.58Z"/>
        <path class="a711b13b-396c-41f5-905e-b7a1b428040f" d="M193.27,37.47V2H211V9.13H200.35v7.08h9.31V23.3h-9.31v7.08H211.6v7.08Z"/>
        <path class="a711b13b-396c-41f5-905e-b7a1b428040f" d="M218.24,37.47V2.09h13.92c13.77,0,13.72,21.85,0,21.85h-6.84V37.47Zm13.33-20.41c4.76,0,4.76-7.93,0-7.93h-6.24v7.93Z"/>
        <path class="a711b13b-396c-41f5-905e-b7a1b428040f" d="M254,37.47V9.13h-8.82v-7h24.72v7H261V37.47Z"/>
        <path class="a711b13b-396c-41f5-905e-b7a1b428040f" d="M275.21,37.47V2h17.74V9.13H282.3v7.08h9.31V23.3H282.3v7.08h11.25v7.08Z"/>
        <path class="a711b13b-396c-41f5-905e-b7a1b428040f" d="M330.41,1.5h2.23v36h-7.18l0-19.77-9.07,9.51-9.07-9.51V37.47h-7.18V1.5h2.28l14,15.56Z"/>
        <path class="a711b13b-396c-41f5-905e-b7a1b428040f" d="M340.61,2h14c6.29,0,10.21,4.51,10.06,10.75-.1,2.68-1,5.45-3.27,7a8.6,8.6,0,0,1,3.67,7.08,10.53,10.53,0,0,1-10.45,10.65h-14Zm7.13,14.22H354a3.31,3.31,0,0,0,3.27-3.57A3.28,3.28,0,0,0,354,9.08h-6.29Zm0,14.17H354a3.52,3.52,0,0,0,3.57-3.57A3.48,3.48,0,0,0,354,23.3h-6.29Z"/>
        <path class="a711b13b-396c-41f5-905e-b7a1b428040f" d="M371.38,37.47V2h17.74V9.13H378.46v7.08h9.31V23.3h-9.31v7.08h11.25v7.08Z"/>
        <path class="a711b13b-396c-41f5-905e-b7a1b428040f" d="M414,37.47l-7.13-13.53h-3.42V37.47h-7.08V2h14c12.63,0,13.87,17.79,3.47,20.81L422,37.47ZM403.43,17.06h6.24c4.81,0,4.81-7.93,0-7.93h-6.24Z"/>
      </g>
    </g>
  </g>
</svg>
