<svg xmlns="http://www.w3.org/2000/svg" viewBox="0 0 49.19 49.69">
  <defs>
    <style>
      .\37 94bbcca-d54d-432c-87f2-c2960f901f4b {
        fill: #f6891f;
      }

      .\32 cc6062d-0a59-4c7e-b2cd-d6c17ef5418d {
        fill: #fff;
      }
    </style>
  </defs>
  <title>Asset 3</title>
  <g id="51a1d56b-e838-41ad-a563-226b3366c98c" data-name="Layer 2">
    <g id="9b777bf5-7029-4f5f-9c9f-013b3890c9ca" data-name="Layer 1">
      <g id="9ccabe99-4b01-4502-b48b-3909efb0968f" data-name="facebook">
        <path class="794bbcca-d54d-432c-87f2-c2960f901f4b" d="M46.64,3.5H5.55A2.55,2.55,0,0,0,3,6V47.14a2.55,2.55,0,0,0,2.55,2.55H27.67V31.8h-6v-7h6V19.69c0-6,3.64-9.21,9-9.21a49.4,49.4,0,0,1,5.38.27V17H38.32c-2.89,0-3.45,1.38-3.45,3.39v4.45h6.9l-.9,7h-6V49.69H46.64a2.55,2.55,0,0,0,2.55-2.55V6A2.55,2.55,0,0,0,46.64,3.5Z"/>
        <path class="2cc6062d-0a59-4c7e-b2cd-d6c17ef5418d" d="M43.64,0H2.55A2.55,2.55,0,0,0,0,2.55V43.64a2.55,2.55,0,0,0,2.55,2.55H24.67V28.3h-6v-7h6V16.19c0-6,3.64-9.21,9-9.21A49.4,49.4,0,0,1,39,7.25v6.23H35.32c-2.89,0-3.45,1.38-3.45,3.39v4.45h6.9l-.9,7h-6V46.19H43.64a2.55,2.55,0,0,0,2.55-2.55V2.55A2.55,2.55,0,0,0,43.64,0Z"/>
      </g>
    </g>
  </g>
</svg>
