<svg xmlns="http://www.w3.org/2000/svg" viewBox="0 0 60.89 47.22">
  <defs>
    <style>
      .\38 c80b85a-acac-4493-8d2c-599691c0f83f {
        fill: #f6891f;
      }

      .\31 9262b65-29b1-4c36-950e-fb712e64706a, .\38 c80b85a-acac-4493-8d2c-599691c0f83f {
        fill-rule: evenodd;
      }

      .\31 9262b65-29b1-4c36-950e-fb712e64706a {
        fill: #fff;
      }
    </style>
  </defs>
  <title>Asset 4</title>
  <g id="c6fc352f-1b0a-40e4-b0cc-3abc4cf159b0" data-name="Layer 2">
    <g id="1a3df094-2ab9-4a59-a068-4ad798a0f113" data-name="Layer 1">
      <g id="8f7b4578-1afe-4381-ba07-b6740402a474" data-name="youtube">
        <path class="8c80b85a-acac-4493-8d2c-599691c0f83f" d="M41.45,25.21,25.7,33.71V16.64l7.1,3.86ZM60.31,13.67S59.74,9.46,58,7.61A8.21,8.21,0,0,0,52.14,5c-8.17-.6-20.41-.6-20.41-.6h0s-12.24,0-20.41.6A8.19,8.19,0,0,0,5.44,7.64c-1.74,1.84-2.29,6-2.29,6a93.17,93.17,0,0,0-.6,9.84v4.61A93.19,93.19,0,0,0,3.15,38s.55,4.19,2.29,6c2.24,2.44,5.16,2.37,6.45,2.62,4.66.45,19.84.6,19.84.6s12.24,0,20.41-.62A8.15,8.15,0,0,0,58,44c1.74-1.84,2.32-6,2.32-6a97.25,97.25,0,0,0,.57-9.84V23.51a97.23,97.23,0,0,0-.57-9.84Z"/>
        <path class="19262b65-29b1-4c36-950e-fb712e64706a" d="M38.9,20.76l-15.75,8.5V12.19l7.1,3.86ZM57.76,9.22S57.19,5,55.45,3.17A8.21,8.21,0,0,0,49.59.6C41.42,0,29.18,0,29.18,0h0S16.92,0,8.75.6A8.19,8.19,0,0,0,2.89,3.19C1.15,5,.6,9.22.6,9.22A93.17,93.17,0,0,0,0,19.07v4.61a93.19,93.19,0,0,0,.6,9.84s.55,4.19,2.29,6C5.13,42,8,41.92,9.35,42.17c4.66.45,19.84.6,19.84.6s12.24,0,20.41-.62a8.15,8.15,0,0,0,5.86-2.59c1.74-1.84,2.32-6,2.32-6a97.25,97.25,0,0,0,.57-9.84V19.07a97.23,97.23,0,0,0-.57-9.84Z"/>
      </g>
    </g>
  </g>
</svg>
