<svg xmlns="http://www.w3.org/2000/svg" xmlns:xlink="http://www.w3.org/1999/xlink" viewBox="0 0 1920 1080">
  <defs>
    <style>
      .\36 a31ba18-6e84-4a99-aca6-eec7119598c2 {
        fill: #ffc34b;
      }

      .ab994b11-b9af-4c4d-84a7-9d6cc725bd26 {
        fill: #00ff97;
      }

      .\35 414c9a5-f0ef-4d47-9596-828a140aa72c {
        fill: #dc88ff;
      }

      .\32 c268ad7-e129-4826-9008-fe36bd464225, .\32 f10eb83-a3e3-4060-9752-fbde95df2be6 {
        fill: #fff;
      }

      .d04affa8-8e03-407b-a856-78f226625551 {
        fill: #f91653;
      }

      .\30 29cecd9-1ef2-4ca1-94e5-27178f4995fc, .\31 de747e5-6751-43fc-9501-4f65fea7ecd2, .\35 32be33a-c67f-4722-88cc-7f2903698063, .\35 6cd197e-c3e7-40ca-b9c2-129de8b8458f, .\35 95ec4e5-df44-4210-b806-4982302691bc, .b0de67e4-ba68-42ca-a11f-a9294b70101b, .c7185ddd-8d4e-443f-8921-9ab2d3097c1a, .c7444cee-3d27-4f72-91c7-4eece072cafa, .cd6b3d92-74d0-4176-8198-1e0b8de9683f, .d0577629-fc16-4153-b5e0-72753a378216, .e6c0540a-522e-4bd8-af1f-2a37987ab0bb, .ed01d2ae-9bef-4afa-97e4-7880a783fe22, .f97ad880-a3a0-4143-beee-2082f54a9596 {
        fill: none;
      }

      .\30 29cecd9-1ef2-4ca1-94e5-27178f4995fc, .\35 32be33a-c67f-4722-88cc-7f2903698063, .\35 6cd197e-c3e7-40ca-b9c2-129de8b8458f, .\35 95ec4e5-df44-4210-b806-4982302691bc, .b0de67e4-ba68-42ca-a11f-a9294b70101b, .c7185ddd-8d4e-443f-8921-9ab2d3097c1a, .c7444cee-3d27-4f72-91c7-4eece072cafa, .cd6b3d92-74d0-4176-8198-1e0b8de9683f, .d0577629-fc16-4153-b5e0-72753a378216, .ed01d2ae-9bef-4afa-97e4-7880a783fe22, .f97ad880-a3a0-4143-beee-2082f54a9596 {
        stroke: #582e91;
      }

      .\30 29cecd9-1ef2-4ca1-94e5-27178f4995fc, .\31 de747e5-6751-43fc-9501-4f65fea7ecd2, .\35 32be33a-c67f-4722-88cc-7f2903698063, .\35 6cd197e-c3e7-40ca-b9c2-129de8b8458f, .c7185ddd-8d4e-443f-8921-9ab2d3097c1a, .c7444cee-3d27-4f72-91c7-4eece072cafa, .cd6b3d92-74d0-4176-8198-1e0b8de9683f, .e6c0540a-522e-4bd8-af1f-2a37987ab0bb, .ed01d2ae-9bef-4afa-97e4-7880a783fe22 {
        stroke-linecap: round;
      }

      .\30 29cecd9-1ef2-4ca1-94e5-27178f4995fc, .\35 32be33a-c67f-4722-88cc-7f2903698063, .\35 6cd197e-c3e7-40ca-b9c2-129de8b8458f, .c7185ddd-8d4e-443f-8921-9ab2d3097c1a, .c7444cee-3d27-4f72-91c7-4eece072cafa, .cd6b3d92-74d0-4176-8198-1e0b8de9683f, .ed01d2ae-9bef-4afa-97e4-7880a783fe22 {
        stroke-linejoin: round;
      }

      .\35 32be33a-c67f-4722-88cc-7f2903698063 {
        stroke-width: 10px;
      }

      .c7185ddd-8d4e-443f-8921-9ab2d3097c1a, .d0577629-fc16-4153-b5e0-72753a378216 {
        stroke-width: 6px;
      }

      .\30 29cecd9-1ef2-4ca1-94e5-27178f4995fc, .\35 6cd197e-c3e7-40ca-b9c2-129de8b8458f, .c7444cee-3d27-4f72-91c7-4eece072cafa, .cd6b3d92-74d0-4176-8198-1e0b8de9683f, .ed01d2ae-9bef-4afa-97e4-7880a783fe22 {
        stroke-width: 8px;
      }

      .cd6b3d92-74d0-4176-8198-1e0b8de9683f {
        stroke-dasharray: 1.96 12.71;
      }

      .\35 6cd197e-c3e7-40ca-b9c2-129de8b8458f {
        stroke-dasharray: 1.96 12.74;
      }

      .c7444cee-3d27-4f72-91c7-4eece072cafa {
        stroke-dasharray: 1.93 12.52;
      }

      .ed01d2ae-9bef-4afa-97e4-7880a783fe22 {
        stroke-dasharray: 2 13;
      }

      .\33 b9b3df0-ffa4-47f9-bc82-ed6fd5104b54 {
        fill: #dbdad9;
      }

      .db59e2c9-0999-4971-a810-00ff55b49d2c {
        fill: #f6891f;
      }

      .\35 50af0d9-8fe1-434b-8913-80c3381cccc2 {
        fill: #582e91;
      }

      .\33 a7891e1-ff7d-4a71-82ec-116db2d7e519 {
        fill: #43d3e8;
      }

      .\31 de747e5-6751-43fc-9501-4f65fea7ecd2, .\35 95ec4e5-df44-4210-b806-4982302691bc, .b0de67e4-ba68-42ca-a11f-a9294b70101b, .d0577629-fc16-4153-b5e0-72753a378216, .e6c0540a-522e-4bd8-af1f-2a37987ab0bb, .f97ad880-a3a0-4143-beee-2082f54a9596 {
        stroke-miterlimit: 10;
      }

      .\35 95ec4e5-df44-4210-b806-4982302691bc {
        stroke-width: 7px;
      }

      .b6907022-d9bd-48a8-9292-f68a0f782879 {
        fill: #f75c06;
      }

      .b0de67e4-ba68-42ca-a11f-a9294b70101b, .f97ad880-a3a0-4143-beee-2082f54a9596 {
        stroke-width: 8.05px;
      }

      .f97ad880-a3a0-4143-beee-2082f54a9596 {
        fill-rule: evenodd;
      }

      .b6fa6418-6a0d-42f3-adc7-320d12a8e71b {
        fill: #d3ef30;
      }

      .f802076a-0475-420b-a731-7a039f67afff {
        fill: #ffed97;
      }

      .\32 c268ad7-e129-4826-9008-fe36bd464225 {
        font-size: 36.65px;
        font-family: Lovelo-Black, Lovelo;
      }

      .\31 de747e5-6751-43fc-9501-4f65fea7ecd2 {
        stroke: #f6891f;
      }

      .\31 de747e5-6751-43fc-9501-4f65fea7ecd2, .e6c0540a-522e-4bd8-af1f-2a37987ab0bb {
        stroke-width: 11px;
      }

      .e6c0540a-522e-4bd8-af1f-2a37987ab0bb {
        stroke: #fff;
      }

      .\30 872fd46-9481-4dda-85ca-57b87de64299, .\32 47fba62-0663-4df6-a942-1db1ddc108c9, .\32 6d60cfb-eceb-4fe4-8656-fc63d01e9095, .\33 5064528-07ca-41e2-91b5-dc9426429712, .\33 ee0508d-bf0e-42a7-b856-cf68de2b2e80, .\34 264895c-4985-496b-ae87-9ad327726091, .\34 85ef5f0-c534-4f72-946c-c76bec8514b9, .\34 b810cfb-e19a-4902-8a09-fcdbe52d91c4, .\37 2fa6814-c2ac-4e0b-b943-5411f3875d0d, .\37 56d772a-3a21-4793-8484-0bd7f464dfcd, .b512ae48-820b-4fe4-b1a0-b378dffafb74, .e73b6275-3881-41e6-b882-a7ae919e897c, .f355bd7a-3d9a-43fe-8aa8-33ab6f1c04ba {
        opacity: 0.34;
      }

      .b512ae48-820b-4fe4-b1a0-b378dffafb74 {
        fill: url(#ff26a241-bb88-4685-8798-df942ae33d0c);
      }

      .\33 5064528-07ca-41e2-91b5-dc9426429712 {
        fill: url(#a100a3e4-cbe4-4a89-974d-0f4e3c518aed);
      }

      .\33 ee0508d-bf0e-42a7-b856-cf68de2b2e80 {
        fill: url(#4330c1f4-cc17-49ed-aed6-5e86b4385c93);
      }

      .\37 56d772a-3a21-4793-8484-0bd7f464dfcd {
        fill: url(#92e69b06-0548-402c-884d-cce46ed3c15c);
      }

      .\34 b810cfb-e19a-4902-8a09-fcdbe52d91c4 {
        fill: url(#6a1815b2-3df7-4fca-a5f5-eda2f7b92c80);
      }

      .\34 264895c-4985-496b-ae87-9ad327726091 {
        fill: url(#4f6589e8-261d-41e5-a560-cb429b9f3795);
      }

      .\34 85ef5f0-c534-4f72-946c-c76bec8514b9 {
        fill: url(#7e464b20-5b31-4e75-8934-e82772829971);
      }

      .\37 2fa6814-c2ac-4e0b-b943-5411f3875d0d {
        fill: url(#12840ba6-94bf-4655-b90b-e10d8035caa0);
      }

      .\30 872fd46-9481-4dda-85ca-57b87de64299 {
        fill: url(#3d53f5f8-a432-45dc-beef-02f9bc8928ad);
      }

      .\32 47fba62-0663-4df6-a942-1db1ddc108c9 {
        fill: url(#60b1703a-0b89-4bce-8fbe-9dddd6978e2a);
      }

      .e73b6275-3881-41e6-b882-a7ae919e897c {
        fill: url(#723594a5-63e2-450a-858c-47978a316f53);
      }

      .f355bd7a-3d9a-43fe-8aa8-33ab6f1c04ba {
        fill: url(#2fc176f0-fced-4345-ab1e-80381c524781);
      }

      .\32 6d60cfb-eceb-4fe4-8656-fc63d01e9095 {
        fill: url(#6e178b1e-3413-47f4-9bf8-ec383bde8d61);
      }
    </style>
    <linearGradient id="ff26a241-bb88-4685-8798-df942ae33d0c" x1="1341.22" y1="905.89" x2="2095.98" y2="-70.8" gradientTransform="translate(94.95 1118.75) rotate(-37.01)" gradientUnits="userSpaceOnUse">
      <stop offset="0" stop-color="#fff" stop-opacity="0"/>
      <stop offset="0.22" stop-color="#fff" stop-opacity="0.5"/>
      <stop offset="0.49" stop-color="#fff"/>
      <stop offset="0.75" stop-color="#fff" stop-opacity="0.5"/>
      <stop offset="1" stop-color="#fff" stop-opacity="0"/>
    </linearGradient>
    <linearGradient id="a100a3e4-cbe4-4a89-974d-0f4e3c518aed" x1="-48.01" y1="1406.22" x2="706.75" y2="429.52" gradientTransform="translate(-486.19 383.24) rotate(-37.01)" gradientUnits="userSpaceOnUse">
      <stop offset="0" stop-color="#fff" stop-opacity="0"/>
      <stop offset="0.22" stop-color="#fff" stop-opacity="0.5"/>
      <stop offset="0.49" stop-color="#fff"/>
      <stop offset="0.75" stop-color="#fff" stop-opacity="0.5"/>
      <stop offset="1" stop-color="#fff" stop-opacity="0"/>
    </linearGradient>
    <linearGradient id="4330c1f4-cc17-49ed-aed6-5e86b4385c93" x1="824.99" y1="298.22" x2="1579.75" y2="-678.48" gradientTransform="translate(356.75 685.52) rotate(-37.01)" xlink:href="#a100a3e4-cbe4-4a89-974d-0f4e3c518aed"/>
    <linearGradient id="92e69b06-0548-402c-884d-cce46ed3c15c" x1="998.99" y1="377.22" x2="1753.75" y2="-599.48" gradientTransform="matrix(0.46, -0.6, 0.34, 0.8, 742.92, 772.22)" xlink:href="#a100a3e4-cbe4-4a89-974d-0f4e3c518aed"/>
    <linearGradient id="6a1815b2-3df7-4fca-a5f5-eda2f7b92c80" x1="484.92" y1="1881.33" x2="1239.68" y2="904.64" gradientTransform="matrix(0.38, -0.6, 0.28, 0.8, -85.63, 630.08)" xlink:href="#a100a3e4-cbe4-4a89-974d-0f4e3c518aed"/>
    <linearGradient id="4f6589e8-261d-41e5-a560-cb429b9f3795" x1="619.77" y1="1950.72" x2="1374.53" y2="974.03" gradientTransform="matrix(0.3, -0.6, 0.22, 0.8, 75.98, 669.79)" xlink:href="#a100a3e4-cbe4-4a89-974d-0f4e3c518aed"/>
    <linearGradient id="7e464b20-5b31-4e75-8934-e82772829971" x1="-195.38" y1="424.8" x2="559.38" y2="-551.89" gradientTransform="matrix(0.43, -0.6, 0.32, 0.8, 173.81, 133.64)" xlink:href="#a100a3e4-cbe4-4a89-974d-0f4e3c518aed"/>
    <linearGradient id="12840ba6-94bf-4655-b90b-e10d8035caa0" x1="-356.46" y1="308.04" x2="398.3" y2="-668.65" gradientTransform="matrix(0.21, -0.6, 0.16, 0.8, 196.39, 90.09)" xlink:href="#a100a3e4-cbe4-4a89-974d-0f4e3c518aed"/>
    <linearGradient id="3d53f5f8-a432-45dc-beef-02f9bc8928ad" x1="2503.96" y1="1782.53" x2="3258.72" y2="805.83" gradientTransform="matrix(0.21, -0.6, 0.16, 0.8, 1052.33, 1239.38)" xlink:href="#a100a3e4-cbe4-4a89-974d-0f4e3c518aed"/>
    <linearGradient id="60b1703a-0b89-4bce-8fbe-9dddd6978e2a" x1="3142.49" y1="2576.38" x2="3897.25" y2="1599.69" gradientTransform="matrix(0.21, -0.6, 0.16, 0.8, 848.74, 1348.63)" xlink:href="#a100a3e4-cbe4-4a89-974d-0f4e3c518aed"/>
    <linearGradient id="723594a5-63e2-450a-858c-47978a316f53" x1="2964.19" y1="2510.88" x2="3718.95" y2="1534.18" gradientTransform="matrix(0.14, -0.6, 0.1, 0.8, 1218.97, 1315.98)" xlink:href="#a100a3e4-cbe4-4a89-974d-0f4e3c518aed"/>
    <linearGradient id="2fc176f0-fced-4345-ab1e-80381c524781" x1="-1901.83" y1="82.09" x2="-1147.08" y2="-894.6" gradientTransform="matrix(0.21, -0.6, 0.16, 0.8, 518.53, 245)" xlink:href="#a100a3e4-cbe4-4a89-974d-0f4e3c518aed"/>
    <linearGradient id="6e178b1e-3413-47f4-9bf8-ec383bde8d61" x1="-2245.48" y1="-166.5" x2="-1490.72" y2="-1143.19" gradientTransform="matrix(0.15, -0.6, 0.11, 0.8, 451.64, 221.42)" xlink:href="#a100a3e4-cbe4-4a89-974d-0f4e3c518aed"/>
  </defs>
  <title>Final</title>
  <g id="ce84c224-c229-40da-95d2-bceb27213e6d" data-name="Layer 3">
    <rect class="6a31ba18-6e84-4a99-aca6-eec7119598c2" width="1920" height="1080"/>
  </g>
  <g id="0b7ff2ad-515a-432c-8101-81a37f478f61" data-name="Layer 1">
    <circle class="ab994b11-b9af-4c4d-84a7-9d6cc725bd26" cx="1508.06" cy="610.04" r="65.83"/>
    <ellipse class="5414c9a5-f0ef-4d47-9596-828a140aa72c" cx="426.26" cy="982.66" rx="65.83" ry="23.07"/>
    <ellipse class="2f10eb83-a3e3-4060-9752-fbde95df2be6" cx="1320.78" cy="898.75" rx="58.13" ry="27.25"/>
    <polyline class="2f10eb83-a3e3-4060-9752-fbde95df2be6" points="422.22 888.38 418.63 889.92 395.35 913.59 393.23 916.73 399.13 952.63 414.13 972.13 451 974.5 475.75 941.88 475.75 913.38 464.88 898.38 450.38 890.88 425.63 888.38 422.85 888.15"/>
    <g>
      <path class="d04affa8-8e03-407b-a856-78f226625551" d="M547.86,404h87.93c39.46,0,64,28.27,63.07,67.42-.62,16.78-6.52,34.18-20.51,43.81,14.6,9.94,23,27,23,44.43,0,37.28-29.52,66.8-65.56,66.8H547.86Zm44.74,89.17h39.46c12.74,0,20.51-10.25,20.51-22.37,0-12.43-7.77-22.37-20.51-22.37H592.6Zm0,88.86h39.46a22.08,22.08,0,0,0,22.37-22.37c0-12.43-9.63-22.06-22.37-22.06H592.6Z"/>
      <path class="d04affa8-8e03-407b-a856-78f226625551" d="M847.68,400.58c152.86,0,152.86,229,0,229S694.82,400.58,847.68,400.58Zm0,45.67c-88.86,0-88.86,137.33,0,137.33S936.54,446.25,847.68,446.25Z"/>
      <path class="d04affa8-8e03-407b-a856-78f226625551" d="M999.3,565.56c25.48,18,53.13,18.64,63.38,17.71,13-.93,24.23-10.25,23-22.37-.93-12.74-10.56-18.33-23-22.68-34.8-12.74-65.87-30.45-65.87-67.73s25.79-65.87,62.76-67.73c11.5-.62,26.72-.62,55.3,9.32l-5.59,42.88c-24.54-9.94-38.53-9.63-45.36-9.32-15.85.93-23,12.43-22.06,24.86,1.24,12.43,12.12,18,24.86,22.37,34.49,12.74,64.31,32.62,64.31,68,0,37-25.48,65.25-67.11,67.42-12.43.93-40.08-.62-70.22-16.16Z"/>
      <path class="d04affa8-8e03-407b-a856-78f226625551" d="M1357.85,400.89h14V626.45h-45.05l.31-124-56.86,59.65-56.86-59.65v124h-45.05V400.89h14.29l87.62,97.56Z"/>
    </g>
    <g>
      <path class="532be33a-c67f-4722-88cc-7f2903698063" d="M539.86,399h87.93c39.46,0,64,28.27,63.07,67.42-.62,16.78-6.52,34.18-20.51,43.81,14.6,9.94,23,27,23,44.43,0,37.28-29.52,66.8-65.56,66.8H539.86Zm44.74,89.17h39.46c12.74,0,20.51-10.25,20.51-22.37,0-12.43-7.77-22.37-20.51-22.37H584.6Zm0,88.86h39.46a22.08,22.08,0,0,0,22.37-22.37c0-12.43-9.63-22.06-22.37-22.06H584.6Z"/>
      <path class="532be33a-c67f-4722-88cc-7f2903698063" d="M839.68,395.58c152.86,0,152.86,229,0,229S686.82,395.58,839.68,395.58Zm0,45.67c-88.86,0-88.86,137.33,0,137.33S928.54,441.25,839.68,441.25Z"/>
      <path class="532be33a-c67f-4722-88cc-7f2903698063" d="M991.3,560.56c25.48,18,53.13,18.64,63.38,17.71,13-.93,24.23-10.25,23-22.37-.93-12.74-10.56-18.33-23-22.68-34.8-12.74-65.87-30.45-65.87-67.73s25.79-65.87,62.76-67.73c11.5-.62,26.72-.62,55.3,9.32l-5.59,42.88c-24.54-9.94-38.53-9.63-45.36-9.32-15.85.93-23,12.43-22.06,24.86,1.24,12.43,12.12,18,24.86,22.37,34.49,12.74,64.31,32.62,64.31,68,0,37-25.48,65.25-67.11,67.42-12.43.93-40.08-.62-70.22-16.16Z"/>
      <path class="532be33a-c67f-4722-88cc-7f2903698063" d="M1349.85,395.89h14V621.45h-45.05l.31-124-56.86,59.65-56.86-59.65v124h-45.05V395.89h14.29l87.62,97.56Z"/>
    </g>
    <g>
      <path class="d04affa8-8e03-407b-a856-78f226625551" d="M875.29,689.6c0-4.86-3.89-8.51-9-8.75-7.66-.49-17.26,4.5-20.05,6.93L842,671c6.68-4.86,17.26-8.26,25.77-7.9,25.52,1.34,34,23.7,19.45,44L870.06,733.6h25.77v17.62H838.46l32.45-51.53C875.53,693.13,875.29,689.6,875.29,689.6Z"/>
      <path class="d04affa8-8e03-407b-a856-78f226625551" d="M907.38,707.71c0-24.67,8.39-44.6,29.78-44.6,21.63,0,29.9,19.93,29.9,44.6s-8.27,44.73-29.9,44.73C915.76,752.44,907.38,732.38,907.38,707.71Zm42.9,0c0-15.56-3.28-28.32-13.13-28.32-9.6,0-12.88,12.76-12.88,28.32S927.55,736,937.15,736C947,736,950.28,723.39,950.28,707.71Z"/>
      <path class="d04affa8-8e03-407b-a856-78f226625551" d="M975.32,664.45h31.48v86.78H989.54v-69.4H975.32Z"/>
      <path class="d04affa8-8e03-407b-a856-78f226625551" d="M1053.59,680.85h-35V664.45h59.67l-35.49,86.78h-18.72Z"/>
    </g>
    <g>
      <path class="c7185ddd-8d4e-443f-8921-9ab2d3097c1a" d="M869.29,686.6c0-4.86-3.89-8.51-9-8.75-7.66-.49-17.26,4.5-20.05,6.93L836,668c6.68-4.86,17.26-8.26,25.77-7.9,25.52,1.34,34,23.7,19.45,44L864.06,730.6h25.77v17.62H832.46l32.45-51.53C869.53,690.13,869.29,686.6,869.29,686.6Z"/>
      <path class="c7185ddd-8d4e-443f-8921-9ab2d3097c1a" d="M901.38,704.71c0-24.67,8.39-44.6,29.78-44.6,21.63,0,29.9,19.93,29.9,44.6s-8.27,44.73-29.9,44.73C909.76,749.44,901.38,729.38,901.38,704.71Zm42.9,0c0-15.56-3.28-28.32-13.13-28.32-9.6,0-12.88,12.76-12.88,28.32S921.55,733,931.15,733C941,733,944.28,720.39,944.28,704.71Z"/>
      <path class="c7185ddd-8d4e-443f-8921-9ab2d3097c1a" d="M969.32,661.45h31.48v86.78H983.54v-69.4H969.32Z"/>
      <path class="c7185ddd-8d4e-443f-8921-9ab2d3097c1a" d="M1047.59,677.85h-35V661.45h59.67l-35.49,86.78h-18.72Z"/>
    </g>
    <rect class="d04affa8-8e03-407b-a856-78f226625551" x="586" y="707" width="181" height="14"/>
    <rect class="c7185ddd-8d4e-443f-8921-9ab2d3097c1a" x="582" y="702" width="181" height="14"/>
    <rect class="d04affa8-8e03-407b-a856-78f226625551" x="1131" y="707" width="181" height="14"/>
    <rect class="c7185ddd-8d4e-443f-8921-9ab2d3097c1a" x="1125" y="702" width="181" height="14"/>
    <g>
      <line class="029cecd9-1ef2-4ca1-94e5-27178f4995fc" x1="1135" y1="210" x2="1136" y2="210"/>
      <path class="cd6b3d92-74d0-4176-8198-1e0b8de9683f" d="M1148.71,210H1365a31,31,0,0,1,30.14,23.71"/>
      <path class="029cecd9-1ef2-4ca1-94e5-27178f4995fc" d="M1396,240q0,.5,0,1v-1"/>
      <path class="029cecd9-1ef2-4ca1-94e5-27178f4995fc" d="M1396,238v-1q0,.5,0,1"/>
      <path class="56cd197e-c3e7-40ca-b9c2-129de8b8458f" d="M1393,250.31A31,31,0,0,1,1365,268h-35a31,31,0,0,0-30.13,23.69"/>
      <path class="029cecd9-1ef2-4ca1-94e5-27178f4995fc" d="M1299,298q0,.5,0,1v-1"/>
      <polyline class="029cecd9-1ef2-4ca1-94e5-27178f4995fc" points="1299 297 1299 296 1299 297"/>
      <line class="c7444cee-3d27-4f72-91c7-4eece072cafa" x1="1299" y1="309.52" x2="1299" y2="447.74"/>
      <line class="029cecd9-1ef2-4ca1-94e5-27178f4995fc" x1="1299" y1="454" x2="1299" y2="455"/>
    </g>
    <path class="ed01d2ae-9bef-4afa-97e4-7880a783fe22" d="M499.67,231.5H396.33a31,31,0,0,0,0,62,31,31,0,1,1,0,62H368.5a31,31,0,0,0,0,62h174"/>
    <path class="ed01d2ae-9bef-4afa-97e4-7880a783fe22" d="M435.25,870.5V824.08a31,31,0,0,1,31-31h50.61a31,31,0,0,0,31-31V626.45"/>
    <line class="ed01d2ae-9bef-4afa-97e4-7880a783fe22" x1="1363.57" y1="586.59" x2="1509.06" y2="586.59"/>
    <path class="ed01d2ae-9bef-4afa-97e4-7880a783fe22" d="M1263.75,849H1184a31,31,0,0,1-31-31V716"/>
    <path class="3b9b3df0-ffa4-47f9-bc82-ed6fd5104b54" d="M1495.42,519.92l77-1s3,87-37,87S1495.42,542.42,1495.42,519.92Z"/>
    <path class="3b9b3df0-ffa4-47f9-bc82-ed6fd5104b54" d="M1565.8,645.88h-9.73V626.67a24.24,24.24,0,0,1-11.82-10.61,23.79,23.79,0,0,1-2.83-11.73,12.16,12.16,0,0,1-13.5,0,26.2,26.2,0,0,1-13.6,22.33v19.21h-10.73a7.42,7.42,0,0,0-7.42,7.42v8.45h77.05V653.3A7.42,7.42,0,0,0,1565.8,645.88Z"/>
    <polygon class="db59e2c9-0999-4971-a810-00ff55b49d2c" points="1529.44 538.44 1534.12 547.91 1544.57 549.43 1537.01 556.8 1538.79 567.21 1529.44 562.3 1520.09 567.21 1521.88 556.8 1514.32 549.43 1524.77 547.91 1529.44 538.44"/>
    <path class="550af0d9-8fe1-434b-8913-80c3381cccc2" d="M1591.48,525.09a10.92,10.92,0,0,0-8.33-3.85H1572.6v-3.3a7.41,7.41,0,0,0-7.4-7.4h-71.51a7.41,7.41,0,0,0-7.4,7.4v3.3h-10.55a10.92,10.92,0,0,0-8.33,3.85,10.79,10.79,0,0,0-2.44,8.73,56.52,56.52,0,0,0,28.71,40.35,74.53,74.53,0,0,0,4.72,9.46c5.6,9.43,12.56,15.94,20.23,19.09a16,16,0,0,1-12.32,17.07h0a3.49,3.49,0,0,0-2.68,3.39v16h-6.48a10.49,10.49,0,0,0-10.48,10.48V658a3.49,3.49,0,0,0,3.49,3.49h79a3.49,3.49,0,0,0,3.49-3.49V649.7a10.49,10.49,0,0,0-10.48-10.48h-6.48v-16a3.49,3.49,0,0,0-2.69-3.4h0a15.94,15.94,0,0,1-12.31-17.21c7.53-3.2,14.37-9.66,19.89-18.94a74.56,74.56,0,0,0,4.72-9.46,56.52,56.52,0,0,0,28.71-40.35A10.79,10.79,0,0,0,1591.48,525.09Zm-119.62,7.61a3.76,3.76,0,0,1,.87-3.09,4,4,0,0,1,3-1.39h10.55v6.43a109.76,109.76,0,0,0,3.72,28.77A49.47,49.47,0,0,1,1471.86,532.7Zm90.26,113.5a3.5,3.5,0,0,1,3.49,3.49v4.78h-72V649.7a3.5,3.5,0,0,1,3.49-3.49Zm-13.47-19.52v12.53h-38.09V626.69Zm-28.93-7a23.13,23.13,0,0,0,2.36-3.08,22.72,22.72,0,0,0,3.6-12,27.39,27.39,0,0,0,7.84,0,23,23,0,0,0,6,15.12h-19.8Zm45.89-85.05c0,17.21-4,33.34-11.13,45.41-6.84,11.51-15.73,17.84-25,17.84s-18.21-6.34-25-17.84c-7.18-12.07-11.13-28.2-11.13-45.41V517.94a.42.42,0,0,1,.42-.42h71.51a.42.42,0,0,1,.42.42ZM1587,532.7a49.47,49.47,0,0,1-18.15,30.71,109.77,109.77,0,0,0,3.72-28.76v-6.43h10.55a4,4,0,0,1,3,1.39A3.76,3.76,0,0,1,1587,532.7Z"/>
    <path class="550af0d9-8fe1-434b-8913-80c3381cccc2" d="M1550.65,546.4a3.5,3.5,0,0,0-2.82-2.38l-10.54-1.53-4.71-9.55a3.49,3.49,0,0,0-6.26,0l-4.71,9.55L1511.05,544a3.49,3.49,0,0,0-1.94,6l7.63,7.43-1.8,10.5a3.49,3.49,0,0,0,5.07,3.68l9.43-5,9.43,5a3.49,3.49,0,0,0,5.07-3.68l-1.8-10.5,7.63-7.43A3.49,3.49,0,0,0,1550.65,546.4Zm-14.7,7.29a3.49,3.49,0,0,0-1,3.09l.91,5.33-4.79-2.52a3.5,3.5,0,0,0-3.25,0l-4.79,2.52.91-5.33a3.49,3.49,0,0,0-1-3.09l-3.87-3.78,5.35-.78a3.49,3.49,0,0,0,2.63-1.91l2.39-4.85,2.39,4.85a3.49,3.49,0,0,0,2.63,1.91l5.35.78Z"/>
    <circle class="3a7891e1-ff7d-4a71-82ec-116db2d7e519" cx="1101.73" cy="140.01" r="65.83"/>
    <circle class="2f10eb83-a3e3-4060-9752-fbde95df2be6" cx="582" cy="248.3" r="65.83"/>
    <g>
      <path class="2f10eb83-a3e3-4060-9752-fbde95df2be6" d="M1151.6,268.67H1150c-23.67-35.67-23.67-92.33-23.67-92.33h5.83a5.83,5.83,0,1,0,0-11.67h-4.83l16.5-40h-15.5V110h-6.75l-6.75-17.81,3.5-1.5,15.25,8.25V69.17l-17.25,6-1.5-2.25,4.5-15.25h-27.5l4.75,15.75-1.5,2.25-15.25-6.5V97.92l15.63-4.75,3.13,2.25L1092.35,110h-7.67v14.69h-15.83l16.5,40h-5.5a5.83,5.83,0,0,0,0,11.67h5.83s0,56.67-23.67,92.33h-2.42a11.5,11.5,0,0,0,0,23H1062V304h88.33V291.67h1.25a11.5,11.5,0,0,0,0-23Z"/>
      <path class="595ec4e5-df44-4210-b806-4982302691bc" d="M1121.35,171.67h-40.67s0,56.67-23.67,92.33h88C1121.35,228.34,1121.35,171.67,1121.35,171.67Z"/>
      <polygon class="595ec4e5-df44-4210-b806-4982302691bc" points="1063.85 120.01 1138.85 120.01 1122.35 160.01 1080.35 160.01 1063.85 120.01"/>
      <rect class="595ec4e5-df44-4210-b806-4982302691bc" x="1069.02" y="160.01" width="64" height="11.67" rx="5.83" ry="5.83"/>
      <rect class="595ec4e5-df44-4210-b806-4982302691bc" x="1043.1" y="264.01" width="115" height="23" rx="11.5" ry="11.5"/>
      <polyline class="595ec4e5-df44-4210-b806-4982302691bc" points="1145.35 288.51 1145.35 298.34 1057.02 298.34 1057.02 288.2"/>
      <polyline class="595ec4e5-df44-4210-b806-4982302691bc" points="1079.68 119.01 1079.68 105.32 1123.35 105.32 1123.35 118.26"/>
      <polygon class="595ec4e5-df44-4210-b806-4982302691bc" points="1087.35 105.32 1093.6 90.76 1090.48 88.51 1074.85 93.26 1074.85 64.51 1090.1 71.01 1091.6 68.76 1086.85 53.01 1114.35 53.01 1109.85 68.26 1111.35 70.51 1128.6 64.51 1128.6 94.26 1113.35 86.01 1109.85 87.51 1116.6 105.32 1087.35 105.32"/>
    </g>
    <g>
      <circle class="b6907022-d9bd-48a8-9292-f68a0f782879" cx="1320.78" cy="852.06" r="55.51"/>
      <circle class="b0de67e4-ba68-42ca-a11f-a9294b70101b" cx="1314.45" cy="845.94" r="55.51"/>
      <path class="f97ad880-a3a0-4143-beee-2082f54a9596" d="M1298.5,792.76s45,54.61,33.05,106"/>
      <path class="f97ad880-a3a0-4143-beee-2082f54a9596" d="M1259.93,834.66s62.4,5.93,99.59-21.12"/>
      <path class="f97ad880-a3a0-4143-beee-2082f54a9596" d="M1271.6,881.22s38-39.22,98.36-31.46"/>
    </g>
    <path class="b6fa6418-6a0d-42f3-adc7-320d12a8e71b" d="M402.31,935.59A31.29,31.29,0,0,0,413.86,959a31.9,31.9,0,0,0,42.3-1.67,59.94,59.94,0,0,0,8.09-9c7-9.5,8.72-21.64,4.6-31.69-4.78-11.62-15.26-18.89-28.07-19.45-9,.58-16.51-1.73-21.75-6.72a1.82,1.82,0,0,1-.4-.57,51.54,51.54,0,0,0-23.8,23.31,1.81,1.81,0,0,1,.52.35C400.51,918.83,402.92,926.44,402.31,935.59Z"/>
    <path class="b6fa6418-6a0d-42f3-adc7-320d12a8e71b" d="M440.72,884.93a51.23,51.23,0,0,0-18.51,3.45c4.47,3.88,10.81,5.67,18.42,5.16h.2c14.32.59,26.06,8.72,31.41,21.73,4.61,11.23,2.69,24.73-5,35.26a63.76,63.76,0,0,1-8.58,9.52,36.37,36.37,0,0,1-17.86,9.21,37.16,37.16,0,0,1-6.46.57,36.25,36.25,0,0,1-22.75-8,34.92,34.92,0,0,1-12.92-26.22v-.2c.53-7.8-1.36-14.24-5.42-18.72a51.37,51.37,0,1,0,47.5-31.79Z"/>
    <path class="b6fa6418-6a0d-42f3-adc7-320d12a8e71b" d="M440.72,884.93a51.23,51.23,0,0,0-18.51,3.45c4.47,3.88,10.81,5.67,18.42,5.16h.2c14.32.59,26.06,8.72,31.41,21.73,4.61,11.23,2.69,24.73-5,35.26a63.76,63.76,0,0,1-8.58,9.52,36.37,36.37,0,0,1-17.86,9.21,37.16,37.16,0,0,1-6.46.57,36.25,36.25,0,0,1-22.75-8,34.92,34.92,0,0,1-12.92-26.22v-.2c.53-7.8-1.36-14.24-5.42-18.72a51.37,51.37,0,1,0,47.5-31.79Z"/>
    <circle class="d0577629-fc16-4153-b5e0-72753a378216" cx="434.22" cy="931.3" r="51.37"/>
    <path class="d04affa8-8e03-407b-a856-78f226625551" d="M633.52,168a16.57,16.57,0,0,0-16.57-16.57H576.62a22.79,22.79,0,0,1-42.27,0H494A16.57,16.57,0,0,0,477.44,168V199.7H633.52V168Z"/>
    <g>
      <rect class="b6fa6418-6a0d-42f3-adc7-320d12a8e71b" x="606.64" y="199.7" width="26.88" height="13.69"/>
      <rect class="b6fa6418-6a0d-42f3-adc7-320d12a8e71b" x="477.44" y="199.7" width="26.88" height="13.69"/>
    </g>
    <polyline class="b6fa6418-6a0d-42f3-adc7-320d12a8e71b" points="633.52 213.39 633.52 213.39 606.64 213.39 606.64 199.7 504.32 199.7 504.32 213.39 504.32 213.39 504.32 213.39 504.32 266.07 606.64 266.07 606.64 213.39"/>
    <rect class="d04affa8-8e03-407b-a856-78f226625551" x="504.32" y="266.07" width="102.32" height="19.67"/>
    <path class="550af0d9-8fe1-434b-8913-80c3381cccc2" d="M504.4,179.84a3.18,3.18,0,0,1-.62-.06,3.34,3.34,0,0,1-.59-.18,3.21,3.21,0,0,1-.55-.29,3.15,3.15,0,0,1-.88-.88,3.13,3.13,0,0,1-.29-.55,3.2,3.2,0,0,1-.18-.59,3.13,3.13,0,0,1-.06-.62,3.18,3.18,0,0,1,.06-.62,3.36,3.36,0,0,1,.18-.59,3.22,3.22,0,0,1,.29-.55,3.06,3.06,0,0,1,.4-.48,3.16,3.16,0,0,1,1-.69,3.34,3.34,0,0,1,.59-.18,3.16,3.16,0,0,1,1.83.18,3.24,3.24,0,0,1,.55.29,3.41,3.41,0,0,1,.48.4,3,3,0,0,1,.39.48,3.22,3.22,0,0,1,.29.55,3.36,3.36,0,0,1,.18.59,3.18,3.18,0,0,1,.06.62,3.13,3.13,0,0,1-.06.62,3.2,3.2,0,0,1-.18.59,3.13,3.13,0,0,1-.29.55,3,3,0,0,1-.39.48,3.17,3.17,0,0,1-.48.39,3.37,3.37,0,0,1-.55.29,3.2,3.2,0,0,1-.59.18A3.12,3.12,0,0,1,504.4,179.84Z"/>
    <path class="550af0d9-8fe1-434b-8913-80c3381cccc2" d="M606.64,179.84a3.13,3.13,0,0,1-.62-.06,3.19,3.19,0,0,1-.59-.18,3.13,3.13,0,0,1-.55-.29,3.08,3.08,0,0,1-.88-.88,3.13,3.13,0,0,1-.29-.55,3.2,3.2,0,0,1-.18-.59,3.13,3.13,0,0,1-.06-.62,3.18,3.18,0,0,1,.06-.62,3.36,3.36,0,0,1,.18-.59,3.22,3.22,0,0,1,.29-.55,3,3,0,0,1,.39-.48,3.24,3.24,0,0,1,.48-.4,3.13,3.13,0,0,1,.55-.29,3.2,3.2,0,0,1,.59-.18,3.14,3.14,0,0,1,1.24,0,3.35,3.35,0,0,1,.59.18,3.16,3.16,0,0,1,1,.69,3.16,3.16,0,0,1,.69,1,3.36,3.36,0,0,1,.18.59,3.16,3.16,0,0,1-.18,1.83,3.13,3.13,0,0,1-.29.55,3.24,3.24,0,0,1-.4.48,3,3,0,0,1-.48.39,3.19,3.19,0,0,1-.55.29,3.35,3.35,0,0,1-.59.18A3.18,3.18,0,0,1,606.64,179.84Z"/>
    <rect class="f802076a-0475-420b-a731-7a039f67afff" x="519.26" y="199.7" width="72.45" height="47.83"/>
    <path class="550af0d9-8fe1-434b-8913-80c3381cccc2" d="M540.72,214.77l-1.35.84a2.12,2.12,0,0,1-1.16.37c-1.35,0-2.28-1.44-2.28-2.89a2.78,2.78,0,0,1,1.35-2.47l6.15-3.72a2.53,2.53,0,0,1,1.35-.33c1.49,0,3.21.88,3.21,2.28v29.61c0,1.49-1.82,2.23-3.63,2.23s-3.63-.74-3.63-2.23v-23.7Z"/>
    <path class="550af0d9-8fe1-434b-8913-80c3381cccc2" d="M552.18,230V217.66c0-8,5-11,11.41-11s11.45,3,11.45,11V230c0,8-5,11-11.45,11S552.18,238,552.18,230Zm15.6-12.34c0-3.21-1.58-4.66-4.19-4.66s-4.14,1.44-4.14,4.66V230c0,3.21,1.54,4.66,4.14,4.66s4.19-1.44,4.19-4.66Z"/>
    <path class="b6fa6418-6a0d-42f3-adc7-320d12a8e71b" d="M576.62,151.42a22.79,22.79,0,0,1-42.27,0H519.73a36.76,36.76,0,0,0,71.51,0Z"/>
    <path class="550af0d9-8fe1-434b-8913-80c3381cccc2" d="M616.95,148.25H576.38a3.17,3.17,0,0,0-2.7,2,19.62,19.62,0,0,1-36.38,0,3.17,3.17,0,0,0-2.94-2H494A19.77,19.77,0,0,0,474.27,168v45.4a3.17,3.17,0,0,0,3.17,3.17h23.71v31h0v38.2a3.17,3.17,0,0,0,3.17,3.17H606.64a3.17,3.17,0,0,0,3.17-3.17V216.56h23.71a3.17,3.17,0,0,0,3.17-3.17V168A19.77,19.77,0,0,0,616.95,148.25Zm-84.64,6.35a26,26,0,0,0,46.35,0H587a33.59,33.59,0,0,1-63,0ZM480.62,168a13.42,13.42,0,0,1,13.4-13.4h23.3a39.92,39.92,0,0,0,76.33,0h23.3a13.42,13.42,0,0,1,13.4,13.4v28.54H609.81v-7.79a3.17,3.17,0,1,0-6.34,0v7.79h-96v-7.79a3.17,3.17,0,1,0-6.34,0v7.79H480.62Zm35.47,34.88v41.49h-8.59V202.87h8.59Zm72.45,41.49H522.43V202.87h66.11v41.49Zm-81,6.34h96v12.2h-96Zm96-37.32v31h-8.59V202.87h8.59Zm-122.85-3.17v-7.34h20.53v7.34Zm122.86,72.35h-96V269.24h96Zm6.34-72.35v-7.34h20.54v7.34Z"/>
    <rect class="550af0d9-8fe1-434b-8913-80c3381cccc2" x="846.5" y="994.79" width="227" height="31.33" transform="translate(-58.82 59.34) rotate(-3.44)"/>
    <text class="2c268ad7-e129-4826-9008-fe36bd464225" transform="translate(858.51 1021.43)">Read More</text>
    <g>
      <line class="1de747e5-6751-43fc-9501-4f65fea7ecd2" x1="348.96" y1="559.74" x2="334.37" y2="596.26"/>
      <line class="1de747e5-6751-43fc-9501-4f65fea7ecd2" x1="359.93" y1="585.3" x2="323.4" y2="570.7"/>
    </g>
    <g>
      <line class="1de747e5-6751-43fc-9501-4f65fea7ecd2" x1="1431.26" y1="314.24" x2="1416.67" y2="350.76"/>
      <line class="1de747e5-6751-43fc-9501-4f65fea7ecd2" x1="1442.23" y1="339.8" x2="1405.7" y2="325.2"/>
    </g>
    <g>
      <line class="1de747e5-6751-43fc-9501-4f65fea7ecd2" x1="889.83" y1="823.15" x2="853.35" y2="837.87"/>
      <line class="1de747e5-6751-43fc-9501-4f65fea7ecd2" x1="878.95" y1="848.75" x2="864.23" y2="812.27"/>
    </g>
    <g>
      <line class="e6c0540a-522e-4bd8-af1f-2a37987ab0bb" x1="967.69" y1="240.17" x2="931.21" y2="254.89"/>
      <line class="e6c0540a-522e-4bd8-af1f-2a37987ab0bb" x1="956.81" y1="265.77" x2="942.09" y2="229.29"/>
    </g>
    <circle class="e6c0540a-522e-4bd8-af1f-2a37987ab0bb" cx="586" cy="792.76" r="17"/>
    <circle class="1de747e5-6751-43fc-9501-4f65fea7ecd2" cx="1481.82" cy="775.76" r="17"/>
    <circle class="1de747e5-6751-43fc-9501-4f65fea7ecd2" cx="765.73" cy="193.77" r="17"/>
    <circle class="e6c0540a-522e-4bd8-af1f-2a37987ab0bb" cx="252.47" cy="258.26" r="17"/>
    <circle class="e6c0540a-522e-4bd8-af1f-2a37987ab0bb" cx="1594.06" cy="210" r="17"/>
  </g>
  <g id="858ff877-4124-45aa-960a-1806e97328ea" data-name="Shine">
    <rect class="b512ae48-820b-4fe4-b1a0-b378dffafb74" x="1587.34" y="-198.1" width="262.52" height="1231.3" transform="translate(597.68 -950.47) rotate(37.01)"/>
    <rect class="35064528-07ca-41e2-91b5-dc9426429712" x="198.11" y="302.22" width="262.52" height="1231.3" transform="translate(618.94 -13.32) rotate(37.01)"/>
    <rect class="3ee0508d-bf0e-42a7-b856-cf68de2b2e80" x="1071.11" y="-805.78" width="262.52" height="1231.3" transform="translate(127.83 -762.15) rotate(37.01)"/>
    <rect class="756d772a-3a21-4793-8484-0bd7f464dfcd" x="1256.48" y="-760.75" width="149.66" height="1231.3" transform="translate(180.92 -830.7) rotate(37.01)"/>
    <rect class="4b810cfb-e19a-4902-8a09-fcdbe52d91c4" x="575.04" y="607.6" width="124.25" height="1231.3" transform="matrix(0.8, 0.6, -0.6, 0.8, 864.8, -137.08)"/>
    <rect class="4264895c-4985-496b-ae87-9ad327726091" x="649.74" y="621.54" width="97.47" height="1231.3" transform="translate(885.55 -171.18) rotate(37.01)"/>
    <rect class="485ef5f0-c534-4f72-946c-c76bec8514b9" x="160.91" y="-642.32" width="140.01" height="1231.3" transform="translate(30.48 -144.39) rotate(37.01)"/>
    <rect class="72fa6814-c2ac-4e0b-b943-5411f3875d0d" x="136.9" y="-682.13" width="70" height="1231.3" transform="translate(-5.38 -116.88) rotate(37.01)"/>
    <rect class="0872fd46-9481-4dda-85ca-57b87de64299" x="1843.38" y="-77.48" width="70.43" height="1231.3" transform="translate(702.54 -1022.48) rotate(37.01)"/>
    <rect class="247fba62-0663-4df6-a942-1db1ddc108c9" x="1904.79" y="281.27" width="70.43" height="1231.3" transform="translate(930.88 -987.16) rotate(37.01)"/>
    <rect class="e73b6275-3881-41e6-b882-a7ae919e897c" x="1855.99" y="303.64" width="44.54" height="1231.3" transform="translate(931.91 -945.48) rotate(37.01)"/>
    <rect class="f355bd7a-3d9a-43fe-8aa8-33ab6f1c04ba" x="91.14" y="222.7" width="70.43" height="1231.3" transform="translate(530.15 92.87) rotate(37.01)"/>
    <rect class="26d60cfb-eceb-4fe4-8656-fc63d01e9095" x="67.26" y="207.49" width="50.03" height="1231.3" transform="translate(514.13 110.32) rotate(37.01)"/>
  </g>
</svg>
