<svg xmlns="http://www.w3.org/2000/svg" xmlns:xlink="http://www.w3.org/1999/xlink" width="2637.07" height="2518.86" viewBox="0 0 2637.07 2518.86"><defs><linearGradient id="linear-gradient" x1="1341.22" y1="905.89" x2="2095.98" y2="-70.8" gradientTransform="translate(94.95 1118.75) rotate(-37.01)" gradientUnits="userSpaceOnUse"><stop offset="0" stop-color="#fff" stop-opacity="0"/><stop offset="0.22" stop-color="#fff" stop-opacity="0.5"/><stop offset="0.49" stop-color="#fff"/><stop offset="0.75" stop-color="#fff" stop-opacity="0.5"/><stop offset="1" stop-color="#fff" stop-opacity="0"/></linearGradient><linearGradient id="linear-gradient-2" x1="-48.01" y1="1406.22" x2="706.75" y2="429.52" gradientTransform="translate(-486.19 383.24) rotate(-37.01)" gradientUnits="userSpaceOnUse"><stop offset="0" stop-color="#fff" stop-opacity="0"/><stop offset="0.22" stop-color="#fff" stop-opacity="0.5"/><stop offset="0.49" stop-color="#fff"/><stop offset="0.75" stop-color="#fff" stop-opacity="0.5"/><stop offset="1" stop-color="#fff" stop-opacity="0"/></linearGradient><linearGradient id="linear-gradient-3" x1="824.99" y1="298.22" x2="1579.75" y2="-678.48" gradientTransform="translate(356.75 685.52) rotate(-37.01)" xlink:href="#linear-gradient-2"/><linearGradient id="linear-gradient-4" x1="998.99" y1="377.22" x2="1753.75" y2="-599.48" gradientTransform="matrix(0.46, -0.6, 0.34, 0.8, 742.92, 772.22)" xlink:href="#linear-gradient-2"/><linearGradient id="linear-gradient-5" x1="484.92" y1="1881.33" x2="1239.68" y2="904.64" gradientTransform="matrix(0.38, -0.6, 0.28, 0.8, -85.63, 630.08)" xlink:href="#linear-gradient-2"/><linearGradient id="linear-gradient-6" x1="619.77" y1="1950.72" x2="1374.53" y2="974.03" gradientTransform="matrix(0.3, -0.6, 0.22, 0.8, 75.98, 669.79)" xlink:href="#linear-gradient-2"/><linearGradient id="linear-gradient-7" x1="-195.38" y1="424.8" x2="559.38" y2="-551.89" gradientTransform="matrix(0.43, -0.6, 0.32, 0.8, 173.81, 133.64)" xlink:href="#linear-gradient-2"/><linearGradient id="linear-gradient-8" x1="-356.46" y1="308.04" x2="398.3" y2="-668.65" gradientTransform="matrix(0.21, -0.6, 0.16, 0.8, 196.39, 90.09)" xlink:href="#linear-gradient-2"/><linearGradient id="linear-gradient-9" x1="2503.96" y1="1782.53" x2="3258.72" y2="805.83" gradientTransform="matrix(0.21, -0.6, 0.16, 0.8, 1052.33, 1239.38)" xlink:href="#linear-gradient-2"/><linearGradient id="linear-gradient-10" x1="3142.49" y1="2576.38" x2="3897.25" y2="1599.69" gradientTransform="matrix(0.21, -0.6, 0.16, 0.8, 848.74, 1348.63)" xlink:href="#linear-gradient-2"/><linearGradient id="linear-gradient-11" x1="2964.19" y1="2510.88" x2="3718.95" y2="1534.18" gradientTransform="matrix(0.14, -0.6, 0.1, 0.8, 1218.97, 1315.98)" xlink:href="#linear-gradient-2"/><linearGradient id="linear-gradient-12" x1="-1901.83" y1="82.09" x2="-1147.08" y2="-894.6" gradientTransform="matrix(0.21, -0.6, 0.16, 0.8, 518.53, 245)" xlink:href="#linear-gradient-2"/><linearGradient id="linear-gradient-13" x1="-2245.48" y1="-166.5" x2="-1490.72" y2="-1143.19" gradientTransform="matrix(0.15, -0.6, 0.11, 0.8, 451.64, 221.42)" xlink:href="#linear-gradient-2"/></defs><title>final</title><g id="Layer_3" data-name="Layer 3"><rect x="298.33" y="760.74" width="1920" height="1080" fill="#ffc34b"/></g><g id="Layer_1" data-name="Layer 1"><circle cx="1806.39" cy="1370.78" r="65.83" fill="#00ff97"/><ellipse cx="724.58" cy="1743.4" rx="65.83" ry="23.07" fill="#dc88ff"/><ellipse cx="1619.11" cy="1659.49" rx="58.13" ry="27.25" fill="#fff"/><polyline points="720.54 1649.12 716.96 1650.66 693.68 1674.33 691.56 1677.47 697.45 1713.36 712.45 1732.86 749.33 1735.24 774.08 1702.61 774.08 1674.11 763.2 1659.11 748.7 1651.61 723.95 1649.12 721.18 1648.88" fill="#fff"/><path d="M547.86,404h87.93c39.46,0,64,28.27,63.07,67.42-.62,16.78-6.52,34.18-20.51,43.81,14.6,9.94,23,27,23,44.43,0,37.28-29.52,66.8-65.56,66.8H547.86Zm44.74,89.17h39.46c12.74,0,20.51-10.25,20.51-22.37,0-12.43-7.77-22.37-20.51-22.37H592.6Zm0,88.86h39.46a22.08,22.08,0,0,0,22.37-22.37c0-12.43-9.63-22.06-22.37-22.06H592.6Z" transform="translate(298.33 760.74)" fill="#f91653"/><path d="M847.68,400.58c152.86,0,152.86,229,0,229S694.82,400.58,847.68,400.58Zm0,45.67c-88.86,0-88.86,137.33,0,137.33S936.54,446.25,847.68,446.25Z" transform="translate(298.33 760.74)" fill="#f91653"/><path d="M999.3,565.56c25.48,18,53.13,18.64,63.38,17.71,13-.93,24.23-10.25,23-22.37-.93-12.74-10.56-18.33-23-22.68-34.8-12.74-65.87-30.45-65.87-67.73s25.79-65.87,62.76-67.73c11.5-.62,26.72-.62,55.3,9.32l-5.59,42.88c-24.54-9.94-38.53-9.63-45.36-9.32-15.85.93-23,12.43-22.06,24.86,1.24,12.43,12.12,18,24.86,22.37,34.49,12.74,64.31,32.62,64.31,68,0,37-25.48,65.25-67.11,67.42-12.43.93-40.08-.62-70.22-16.16Z" transform="translate(298.33 760.74)" fill="#f91653"/><path d="M1357.85,400.89h14V626.45h-45.05l.31-124-56.86,59.65-56.86-59.65v124h-45.05V400.89h14.29l87.62,97.56Z" transform="translate(298.33 760.74)" fill="#f91653"/><text transform="translate(813.88 1395.8)" font-size="310.7" fill="none" stroke="#582e91" stroke-linecap="round" stroke-linejoin="round" stroke-width="10" font-family="LoveloBlack, Lovelo">BOSM</text><text transform="translate(1136.06 1511.96)" font-size="121.54" fill="#f91653" font-family="LoveloBlack, Lovelo">2<tspan x="63.32" y="0" letter-spacing="-0.02em">0</tspan><tspan x="133.94" y="0">17</tspan></text><text transform="translate(1130.06 1508.96)" font-size="121.54" fill="none" stroke="#582e91" stroke-linecap="round" stroke-linejoin="round" stroke-width="6" font-family="LoveloBlack, Lovelo">2<tspan x="63.32" y="0" letter-spacing="-0.02em">0</tspan><tspan x="133.94" y="0">17</tspan></text><rect x="884.33" y="1467.74" width="181" height="14" fill="#f91653"/><rect x="880.33" y="1462.74" width="181" height="14" fill="none" stroke="#582e91" stroke-linecap="round" stroke-linejoin="round" stroke-width="6"/><rect x="1429.33" y="1467.74" width="181" height="14" fill="#f91653"/><rect x="1423.33" y="1462.74" width="181" height="14" fill="none" stroke="#582e91" stroke-linecap="round" stroke-linejoin="round" stroke-width="6"/><line x1="1433.33" y1="970.74" x2="1434.33" y2="970.74" fill="none" stroke="#582e91" stroke-linecap="round" stroke-linejoin="round" stroke-width="8"/><path d="M1148.71,210H1365a31,31,0,0,1,30.14,23.71" transform="translate(298.33 760.74)" fill="none" stroke="#582e91" stroke-linecap="round" stroke-linejoin="round" stroke-width="8" stroke-dasharray="1.96 12.71"/><path d="M1396,240q0,.5,0,1v-1" transform="translate(298.33 760.74)" fill="none" stroke="#582e91" stroke-linecap="round" stroke-linejoin="round" stroke-width="8"/><path d="M1396,238v-1q0,.5,0,1" transform="translate(298.33 760.74)" fill="none" stroke="#582e91" stroke-linecap="round" stroke-linejoin="round" stroke-width="8"/><path d="M1393,250.31A31,31,0,0,1,1365,268h-35a31,31,0,0,0-30.13,23.69" transform="translate(298.33 760.74)" fill="none" stroke="#582e91" stroke-linecap="round" stroke-linejoin="round" stroke-width="8" stroke-dasharray="1.96 12.74"/><path d="M1299,298q0,.5,0,1v-1" transform="translate(298.33 760.74)" fill="none" stroke="#582e91" stroke-linecap="round" stroke-linejoin="round" stroke-width="8"/><polyline points="1597.33 1057.74 1597.33 1056.74 1597.33 1057.74" fill="none" stroke="#582e91" stroke-linecap="round" stroke-linejoin="round" stroke-width="8"/><line x1="1597.33" y1="1070.26" x2="1597.33" y2="1208.48" fill="none" stroke="#582e91" stroke-linecap="round" stroke-linejoin="round" stroke-width="8" stroke-dasharray="1.93 12.52"/><line x1="1597.33" y1="1214.74" x2="1597.33" y2="1215.74" fill="none" stroke="#582e91" stroke-linecap="round" stroke-linejoin="round" stroke-width="8"/><path d="M499.67,231.5H396.33a31,31,0,0,0,0,62,31,31,0,1,1,0,62H368.5a31,31,0,0,0,0,62h174" transform="translate(298.33 760.74)" fill="none" stroke="#582e91" stroke-linecap="round" stroke-linejoin="round" stroke-width="8" stroke-dasharray="2 13"/><path d="M435.25,870.5V824.08a31,31,0,0,1,31-31h50.61a31,31,0,0,0,31-31V626.45" transform="translate(298.33 760.74)" fill="none" stroke="#582e91" stroke-linecap="round" stroke-linejoin="round" stroke-width="8" stroke-dasharray="2 13"/><line x1="1661.9" y1="1347.33" x2="1807.39" y2="1347.33" fill="none" stroke="#582e91" stroke-linecap="round" stroke-linejoin="round" stroke-width="8" stroke-dasharray="2 13"/><path d="M1263.75,849H1184a31,31,0,0,1-31-31V716" transform="translate(298.33 760.74)" fill="none" stroke="#582e91" stroke-linecap="round" stroke-linejoin="round" stroke-width="8" stroke-dasharray="2 13"/><path d="M1495.42,519.92l77-1s3,87-37,87S1495.42,542.42,1495.42,519.92Z" transform="translate(298.33 760.74)" fill="#bcbbbb"/><path d="M1565.8,645.88h-9.73V626.67a24.24,24.24,0,0,1-11.82-10.61,23.79,23.79,0,0,1-2.83-11.73,12.16,12.16,0,0,1-13.5,0,26.2,26.2,0,0,1-13.6,22.33v19.21h-10.73a7.42,7.42,0,0,0-7.42,7.42v8.45h77.05V653.3A7.42,7.42,0,0,0,1565.8,645.88Z" transform="translate(298.33 760.74)" fill="#bcbbbb"/><polygon points="1827.77 1299.18 1832.44 1308.65 1842.9 1310.17 1835.33 1317.54 1837.12 1327.95 1827.77 1323.04 1818.42 1327.95 1820.21 1317.54 1812.64 1310.17 1823.1 1308.65 1827.77 1299.18" fill="#f6891f"/><path d="M1591.48,525.09a10.92,10.92,0,0,0-8.33-3.85H1572.6v-3.3a7.41,7.41,0,0,0-7.4-7.4h-71.51a7.41,7.41,0,0,0-7.4,7.4v3.3h-10.55a10.92,10.92,0,0,0-8.33,3.85,10.79,10.79,0,0,0-2.44,8.73,56.52,56.52,0,0,0,28.71,40.35,74.53,74.53,0,0,0,4.72,9.46c5.6,9.43,12.56,15.94,20.23,19.09a16,16,0,0,1-12.32,17.07h0a3.49,3.49,0,0,0-2.68,3.39v16h-6.48a10.49,10.49,0,0,0-10.48,10.48V658a3.49,3.49,0,0,0,3.49,3.49h79a3.49,3.49,0,0,0,3.49-3.49V649.7a10.49,10.49,0,0,0-10.48-10.48h-6.48v-16a3.49,3.49,0,0,0-2.69-3.4h0a15.94,15.94,0,0,1-12.31-17.21c7.53-3.2,14.37-9.66,19.89-18.94a74.56,74.56,0,0,0,4.72-9.46,56.52,56.52,0,0,0,28.71-40.35A10.79,10.79,0,0,0,1591.48,525.09Zm-119.62,7.61a3.76,3.76,0,0,1,.87-3.09,4,4,0,0,1,3-1.39h10.55v6.43a109.76,109.76,0,0,0,3.72,28.77A49.47,49.47,0,0,1,1471.86,532.7Zm90.26,113.5a3.5,3.5,0,0,1,3.49,3.49v4.78h-72V649.7a3.5,3.5,0,0,1,3.49-3.49Zm-13.47-19.52v12.53h-38.09V626.69Zm-28.93-7a23.13,23.13,0,0,0,2.36-3.08,22.72,22.72,0,0,0,3.6-12,27.39,27.39,0,0,0,7.84,0,23,23,0,0,0,6,15.12h-19.8Zm45.89-85.05c0,17.21-4,33.34-11.13,45.41-6.84,11.51-15.73,17.84-25,17.84s-18.21-6.34-25-17.84c-7.18-12.07-11.13-28.2-11.13-45.41V517.94a.42.42,0,0,1,.42-.42h71.51a.42.42,0,0,1,.42.42ZM1587,532.7a49.47,49.47,0,0,1-18.15,30.71,109.77,109.77,0,0,0,3.72-28.76v-6.43h10.55a4,4,0,0,1,3,1.39A3.76,3.76,0,0,1,1587,532.7Z" transform="translate(298.33 760.74)" fill="#582e91"/><path d="M1550.65,546.4a3.5,3.5,0,0,0-2.82-2.38l-10.54-1.53-4.71-9.55a3.49,3.49,0,0,0-6.26,0l-4.71,9.55L1511.05,544a3.49,3.49,0,0,0-1.94,6l7.63,7.43-1.8,10.5a3.49,3.49,0,0,0,5.07,3.68l9.43-5,9.43,5a3.49,3.49,0,0,0,5.07-3.68l-1.8-10.5,7.63-7.43A3.49,3.49,0,0,0,1550.65,546.4Zm-14.7,7.29a3.49,3.49,0,0,0-1,3.09l.91,5.33-4.79-2.52a3.5,3.5,0,0,0-3.25,0l-4.79,2.52.91-5.33a3.49,3.49,0,0,0-1-3.09l-3.87-3.78,5.35-.78a3.49,3.49,0,0,0,2.63-1.91l2.39-4.85,2.39,4.85a3.49,3.49,0,0,0,2.63,1.91l5.35.78Z" transform="translate(298.33 760.74)" fill="#582e91"/><circle cx="1400.06" cy="900.75" r="65.83" fill="#43d3e8"/><circle cx="880.33" cy="1009.04" r="65.83" fill="#fff"/><path d="M2256.33,245.67" transform="translate(298.33 760.74)" fill="#f6891f"/><path d="M1151.6,268.67H1150c-23.67-35.67-23.67-92.33-23.67-92.33h5.83a5.83,5.83,0,1,0,0-11.67h-4.83l16.5-40h-15.5V110h-6.75l-6.75-17.81,3.5-1.5,15.25,8.25V69.17l-17.25,6-1.5-2.25,4.5-15.25h-27.5l4.75,15.75-1.5,2.25-15.25-6.5V97.92l15.63-4.75,3.13,2.25L1092.35,110h-7.67v14.69h-15.83l16.5,40h-5.5a5.83,5.83,0,0,0,0,11.67h5.83s0,56.67-23.67,92.33h-2.42a11.5,11.5,0,0,0,0,23H1062V304h88.33V291.67h1.25a11.5,11.5,0,0,0,0-23Z" transform="translate(298.33 760.74)" fill="#fff"/><path d="M1121.35,171.67h-40.67s0,56.67-23.67,92.33h88C1121.35,228.34,1121.35,171.67,1121.35,171.67Z" transform="translate(298.33 760.74)" fill="none" stroke="#582e91" stroke-miterlimit="10" stroke-width="7"/><polygon points="1362.18 880.75 1437.18 880.75 1420.68 920.75 1378.68 920.75 1362.18 880.75" fill="none" stroke="#582e91" stroke-miterlimit="10" stroke-width="7"/><rect x="1367.35" y="920.75" width="64" height="11.67" rx="5.83" ry="5.83" fill="none" stroke="#582e91" stroke-miterlimit="10" stroke-width="7"/><rect x="1341.43" y="1024.75" width="115" height="23" rx="11.5" ry="11.5" fill="none" stroke="#582e91" stroke-miterlimit="10" stroke-width="7"/><polyline points="1443.68 1049.25 1443.68 1059.08 1355.35 1059.08 1355.35 1048.93" fill="none" stroke="#582e91" stroke-miterlimit="10" stroke-width="7"/><polyline points="1378.01 879.75 1378.01 866.06 1421.68 866.06 1421.68 879" fill="none" stroke="#582e91" stroke-miterlimit="10" stroke-width="7"/><polygon points="1385.68 866.06 1391.93 851.5 1388.81 849.25 1373.18 854 1373.18 825.25 1388.43 831.75 1389.93 829.5 1385.18 813.75 1412.68 813.75 1408.18 829 1409.68 831.25 1426.93 825.25 1426.93 855 1411.68 846.75 1408.18 848.25 1414.93 866.06 1385.68 866.06" fill="none" stroke="#582e91" stroke-miterlimit="10" stroke-width="7"/><line x1="2577.33" y1="1006.43" x2="2549.77" y2="1007.99" fill="#f6891f"/><path d="M2278,265" transform="translate(298.33 760.74)" fill="#f6891f"/><circle cx="1619.11" cy="1612.8" r="55.51" fill="#f75c06"/><circle cx="1612.78" cy="1606.67" r="55.51" fill="none" stroke="#582e91" stroke-miterlimit="10" stroke-width="8.05"/><path d="M1298.5,792.76s45,54.61,33.05,106" transform="translate(298.33 760.74)" fill="none" stroke="#582e91" stroke-miterlimit="10" stroke-width="8.05" fill-rule="evenodd"/><path d="M1259.93,834.66s62.4,5.93,99.59-21.12" transform="translate(298.33 760.74)" fill="none" stroke="#582e91" stroke-miterlimit="10" stroke-width="8.05" fill-rule="evenodd"/><path d="M1271.6,881.22s38-39.22,98.36-31.46" transform="translate(298.33 760.74)" fill="none" stroke="#582e91" stroke-miterlimit="10" stroke-width="8.05" fill-rule="evenodd"/><path d="M402.31,935.59A31.29,31.29,0,0,0,413.86,959a31.9,31.9,0,0,0,42.3-1.67,59.94,59.94,0,0,0,8.09-9c7-9.5,8.72-21.64,4.6-31.69-4.78-11.62-15.26-18.89-28.07-19.45-9,.58-16.51-1.73-21.75-6.72a1.82,1.82,0,0,1-.4-.57,51.54,51.54,0,0,0-23.8,23.31,1.81,1.81,0,0,1,.52.35C400.51,918.83,402.92,926.44,402.31,935.59Z" transform="translate(298.33 760.74)" fill="#d3ef30"/><path d="M440.72,884.93a51.23,51.23,0,0,0-18.51,3.45c4.47,3.88,10.81,5.67,18.42,5.16h.2c14.32.59,26.06,8.72,31.41,21.73,4.61,11.23,2.69,24.73-5,35.26a63.76,63.76,0,0,1-8.58,9.52,36.37,36.37,0,0,1-17.86,9.21,37.16,37.16,0,0,1-6.46.57,36.25,36.25,0,0,1-22.75-8,34.92,34.92,0,0,1-12.92-26.22v-.2c.53-7.8-1.36-14.24-5.42-18.72a51.37,51.37,0,1,0,47.5-31.79Z" transform="translate(298.33 760.74)" fill="#d3ef30"/><path d="M440.72,884.93a51.23,51.23,0,0,0-18.51,3.45c4.47,3.88,10.81,5.67,18.42,5.16h.2c14.32.59,26.06,8.72,31.41,21.73,4.61,11.23,2.69,24.73-5,35.26a63.76,63.76,0,0,1-8.58,9.52,36.37,36.37,0,0,1-17.86,9.21,37.16,37.16,0,0,1-6.46.57,36.25,36.25,0,0,1-22.75-8,34.92,34.92,0,0,1-12.92-26.22v-.2c.53-7.8-1.36-14.24-5.42-18.72a51.37,51.37,0,1,0,47.5-31.79Z" transform="translate(298.33 760.74)" fill="#d3ef30"/><circle cx="732.55" cy="1692.04" r="51.37" fill="none" stroke="#582e91" stroke-miterlimit="10" stroke-width="6"/><path d="M422.22,888.38" transform="translate(298.33 760.74)" fill="none" stroke="#582e91" stroke-miterlimit="10" stroke-width="8.05"/><path d="M633.52,168a16.57,16.57,0,0,0-16.57-16.57H576.62a22.79,22.79,0,0,1-42.27,0H494A16.57,16.57,0,0,0,477.44,168V199.7H633.52V168Z" transform="translate(298.33 760.74)" fill="#f91653"/><rect x="904.97" y="960.44" width="26.88" height="13.69" fill="#d3ef30"/><rect x="775.77" y="960.44" width="26.88" height="13.69" fill="#d3ef30"/><polyline points="931.85 974.13 931.85 974.13 904.97 974.13 904.97 960.44 802.65 960.44 802.65 974.13 802.65 974.13 802.65 974.13 802.65 1026.81 904.97 1026.81 904.97 974.13" fill="#d3ef30"/><rect x="802.65" y="1026.81" width="102.32" height="19.67" fill="#f91653"/><path d="M504.4,179.84a3.18,3.18,0,0,1-.62-.06,3.34,3.34,0,0,1-.59-.18,3.21,3.21,0,0,1-.55-.29,3.15,3.15,0,0,1-.88-.88,3.13,3.13,0,0,1-.29-.55,3.2,3.2,0,0,1-.18-.59,3.13,3.13,0,0,1-.06-.62,3.18,3.18,0,0,1,.06-.62,3.36,3.36,0,0,1,.18-.59,3.22,3.22,0,0,1,.29-.55,3.06,3.06,0,0,1,.4-.48,3.16,3.16,0,0,1,1-.69,3.34,3.34,0,0,1,.59-.18,3.16,3.16,0,0,1,1.83.18,3.24,3.24,0,0,1,.55.29,3.41,3.41,0,0,1,.48.4,3,3,0,0,1,.39.48,3.22,3.22,0,0,1,.29.55,3.36,3.36,0,0,1,.18.59,3.18,3.18,0,0,1,.06.62,3.13,3.13,0,0,1-.06.62,3.2,3.2,0,0,1-.18.59,3.13,3.13,0,0,1-.29.55,3,3,0,0,1-.39.48,3.17,3.17,0,0,1-.48.39,3.37,3.37,0,0,1-.55.29,3.2,3.2,0,0,1-.59.18A3.12,3.12,0,0,1,504.4,179.84Z" transform="translate(298.33 760.74)" fill="#582e91"/><path d="M606.64,179.84a3.13,3.13,0,0,1-.62-.06,3.19,3.19,0,0,1-.59-.18,3.13,3.13,0,0,1-.55-.29,3.08,3.08,0,0,1-.88-.88,3.13,3.13,0,0,1-.29-.55,3.2,3.2,0,0,1-.18-.59,3.13,3.13,0,0,1-.06-.62,3.18,3.18,0,0,1,.06-.62,3.36,3.36,0,0,1,.18-.59,3.22,3.22,0,0,1,.29-.55,3,3,0,0,1,.39-.48,3.24,3.24,0,0,1,.48-.4,3.13,3.13,0,0,1,.55-.29,3.2,3.2,0,0,1,.59-.18,3.14,3.14,0,0,1,1.24,0,3.35,3.35,0,0,1,.59.18,3.16,3.16,0,0,1,1,.69,3.16,3.16,0,0,1,.69,1,3.36,3.36,0,0,1,.18.59,3.16,3.16,0,0,1-.18,1.83,3.13,3.13,0,0,1-.29.55,3.24,3.24,0,0,1-.4.48,3,3,0,0,1-.48.39,3.19,3.19,0,0,1-.55.29,3.35,3.35,0,0,1-.59.18A3.18,3.18,0,0,1,606.64,179.84Z" transform="translate(298.33 760.74)" fill="#582e91"/><rect x="817.59" y="960.44" width="72.45" height="47.83" fill="#ffed97"/><path d="M540.72,214.77l-1.35.84a2.12,2.12,0,0,1-1.16.37c-1.35,0-2.28-1.44-2.28-2.89a2.78,2.78,0,0,1,1.35-2.47l6.15-3.72a2.53,2.53,0,0,1,1.35-.33c1.49,0,3.21.88,3.21,2.28v29.61c0,1.49-1.82,2.23-3.63,2.23s-3.63-.74-3.63-2.23v-23.7Z" transform="translate(298.33 760.74)" fill="#582e91"/><path d="M552.18,230V217.66c0-8,5-11,11.41-11s11.45,3,11.45,11V230c0,8-5,11-11.45,11S552.18,238,552.18,230Zm15.6-12.34c0-3.21-1.58-4.66-4.19-4.66s-4.14,1.44-4.14,4.66V230c0,3.21,1.54,4.66,4.14,4.66s4.19-1.44,4.19-4.66Z" transform="translate(298.33 760.74)" fill="#582e91"/><path d="M576.62,151.42a22.79,22.79,0,0,1-42.27,0H519.73a36.76,36.76,0,0,0,71.51,0Z" transform="translate(298.33 760.74)" fill="#d3ef30"/><path d="M616.95,148.25H576.38a3.17,3.17,0,0,0-2.7,2,19.62,19.62,0,0,1-36.38,0,3.17,3.17,0,0,0-2.94-2H494A19.77,19.77,0,0,0,474.27,168v45.4a3.17,3.17,0,0,0,3.17,3.17h23.71v31h0v38.2a3.17,3.17,0,0,0,3.17,3.17H606.64a3.17,3.17,0,0,0,3.17-3.17V216.56h23.71a3.17,3.17,0,0,0,3.17-3.17V168A19.77,19.77,0,0,0,616.95,148.25Zm-84.64,6.35a26,26,0,0,0,46.35,0H587a33.59,33.59,0,0,1-63,0ZM480.62,168a13.42,13.42,0,0,1,13.4-13.4h23.3a39.92,39.92,0,0,0,76.33,0h23.3a13.42,13.42,0,0,1,13.4,13.4v28.54H609.81v-7.79a3.17,3.17,0,1,0-6.34,0v7.79h-96v-7.79a3.17,3.17,0,1,0-6.34,0v7.79H480.62Zm35.47,34.88v41.49h-8.59V202.87h8.59Zm72.45,41.49H522.43V202.87h66.11v41.49Zm-81,6.34h96v12.2h-96Zm96-37.32v31h-8.59V202.87h8.59Zm-122.85-3.17v-7.34h20.53v7.34Zm122.86,72.35h-96V269.24h96Zm6.34-72.35v-7.34h20.54v7.34Z" transform="translate(298.33 760.74)" fill="#582e91"/></g><g id="Shine"><rect x="1587.34" y="-198.1" width="262.52" height="1231.3" transform="translate(896.01 -189.73) rotate(37.01)" opacity="0.34" fill="url(#linear-gradient)"/><rect x="198.11" y="302.22" width="262.52" height="1231.3" transform="translate(917.27 747.42) rotate(37.01)" opacity="0.34" fill="url(#linear-gradient-2)"/><rect x="1071.11" y="-805.78" width="262.52" height="1231.3" transform="translate(426.16 -1.41) rotate(37.01)" opacity="0.34" fill="url(#linear-gradient-3)"/><rect x="1256.48" y="-760.75" width="149.66" height="1231.3" transform="translate(479.25 -69.96) rotate(37.01)" opacity="0.34" fill="url(#linear-gradient-4)"/><rect x="575.04" y="607.6" width="124.25" height="1231.3" transform="matrix(0.8, 0.6, -0.6, 0.8, 1163.13, 623.66)" opacity="0.34" fill="url(#linear-gradient-5)"/><rect x="649.74" y="621.54" width="97.47" height="1231.3" transform="translate(1183.88 589.56) rotate(37.01)" opacity="0.34" fill="url(#linear-gradient-6)"/><rect x="160.91" y="-642.32" width="140.01" height="1231.3" transform="translate(328.8 616.35) rotate(37.01)" opacity="0.34" fill="url(#linear-gradient-7)"/><rect x="136.9" y="-682.13" width="70" height="1231.3" transform="translate(292.95 643.86) rotate(37.01)" opacity="0.34" fill="url(#linear-gradient-8)"/><rect x="1843.38" y="-77.48" width="70.43" height="1231.3" transform="translate(1000.87 -261.74) rotate(37.01)" opacity="0.34" fill="url(#linear-gradient-9)"/><rect x="1904.79" y="281.27" width="70.43" height="1231.3" transform="translate(1229.21 -226.42) rotate(37.01)" opacity="0.34" fill="url(#linear-gradient-10)"/><rect x="1855.99" y="303.64" width="44.54" height="1231.3" transform="translate(1230.24 -184.74) rotate(37.01)" opacity="0.34" fill="url(#linear-gradient-11)"/><rect x="91.14" y="222.7" width="70.43" height="1231.3" transform="translate(828.48 853.61) rotate(37.01)" opacity="0.34" fill="url(#linear-gradient-12)"/><rect x="67.26" y="207.49" width="50.03" height="1231.3" transform="matrix(0.8, 0.6, -0.6, 0.8, 812.46, 871.06)" opacity="0.34" fill="url(#linear-gradient-13)"/></g></svg>