<svg xmlns="http://www.w3.org/2000/svg" viewBox="0 0 1920 1080">
  <defs>
    <style>
      .ae0b048c-edbd-44c7-b68e-dbcddf09ba68 {
        fill: #ffc34b;
      }

      .e39bf781-e6c2-41bc-a972-ca3eb9457449 {
        fill: #00ff97;
      }

      .\39 483e79d-96e0-4a48-9bb3-9d9df5bdd729 {
        fill: #dc88ff;
      }

      .\34 20eaf47-e603-4a74-a6d8-e8931852b8f6, .cdc4634f-e332-419c-9434-fee26fbb2d06 {
        fill: #fff;
      }

      .\34 8a14f27-98ac-4694-8909-78122d533acc {
        fill: #f91653;
      }

      .\30 399dd57-4056-437d-b50d-a79384066d54, .\30 7504d0d-89ed-49eb-85af-72a67eb65685, .\31 1321db4-128a-48ae-9d43-7d2784757bb0, .\32 2e34e12-5278-49c9-b886-a80458193356, .\37 5170e93-0de9-4ffa-b25f-98fb1a401ada, .\37 680c324-368d-48d4-a07c-8ddfc21d9a0e, .\37 b2e31af-8a90-470d-af87-e8dacd90e360, .\39 8b90a9d-c61a-4f50-881c-cc659b5fdab9, .ace4d83b-94e8-4704-9941-488da025f5ae, .bc8f597b-69bc-4d8c-aee4-f85c5c0b60d6, .d3114450-fe9d-4573-b91a-812464841fda, .db358d98-42f6-497a-8e65-8f9dd2559d25, .fc181837-e78f-4d03-b463-302771c49bf4, .fe2098a0-2b6f-48e2-b9e3-647393740b69 {
        fill: none;
      }

      .\30 399dd57-4056-437d-b50d-a79384066d54, .\30 7504d0d-89ed-49eb-85af-72a67eb65685, .\31 1321db4-128a-48ae-9d43-7d2784757bb0, .\32 2e34e12-5278-49c9-b886-a80458193356, .\37 5170e93-0de9-4ffa-b25f-98fb1a401ada, .\37 680c324-368d-48d4-a07c-8ddfc21d9a0e, .\37 b2e31af-8a90-470d-af87-e8dacd90e360, .\39 8b90a9d-c61a-4f50-881c-cc659b5fdab9, .ace4d83b-94e8-4704-9941-488da025f5ae, .bc8f597b-69bc-4d8c-aee4-f85c5c0b60d6, .db358d98-42f6-497a-8e65-8f9dd2559d25, .fc181837-e78f-4d03-b463-302771c49bf4 {
        stroke: #582e91;
      }

      .\30 399dd57-4056-437d-b50d-a79384066d54, .\30 7504d0d-89ed-49eb-85af-72a67eb65685, .\32 2e34e12-5278-49c9-b886-a80458193356, .\37 5170e93-0de9-4ffa-b25f-98fb1a401ada, .ace4d83b-94e8-4704-9941-488da025f5ae, .bc8f597b-69bc-4d8c-aee4-f85c5c0b60d6, .d3114450-fe9d-4573-b91a-812464841fda, .db358d98-42f6-497a-8e65-8f9dd2559d25, .fc181837-e78f-4d03-b463-302771c49bf4, .fe2098a0-2b6f-48e2-b9e3-647393740b69 {
        stroke-linecap: round;
      }

      .\30 399dd57-4056-437d-b50d-a79384066d54, .\30 7504d0d-89ed-49eb-85af-72a67eb65685, .\32 2e34e12-5278-49c9-b886-a80458193356, .\37 5170e93-0de9-4ffa-b25f-98fb1a401ada, .ace4d83b-94e8-4704-9941-488da025f5ae, .bc8f597b-69bc-4d8c-aee4-f85c5c0b60d6, .db358d98-42f6-497a-8e65-8f9dd2559d25, .fc181837-e78f-4d03-b463-302771c49bf4 {
        stroke-linejoin: round;
      }

      .ace4d83b-94e8-4704-9941-488da025f5ae {
        stroke-width: 10px;
      }

      .\39 8b90a9d-c61a-4f50-881c-cc659b5fdab9, .db358d98-42f6-497a-8e65-8f9dd2559d25 {
        stroke-width: 6px;
      }

      .d35f7662-e8bc-4cf6-9080-8d6a19484b2b {
        fill: #582e91;
      }

      .\30 399dd57-4056-437d-b50d-a79384066d54, .\30 7504d0d-89ed-49eb-85af-72a67eb65685, .\32 2e34e12-5278-49c9-b886-a80458193356, .bc8f597b-69bc-4d8c-aee4-f85c5c0b60d6, .fc181837-e78f-4d03-b463-302771c49bf4 {
        stroke-width: 8px;
      }

      .\30 7504d0d-89ed-49eb-85af-72a67eb65685 {
        stroke-dasharray: 1.96 12.71;
      }

      .fc181837-e78f-4d03-b463-302771c49bf4 {
        stroke-dasharray: 1.96 12.74;
      }

      .\32 2e34e12-5278-49c9-b886-a80458193356 {
        stroke-dasharray: 1.93 12.52;
      }

      .\30 399dd57-4056-437d-b50d-a79384066d54 {
        stroke-dasharray: 2 13;
      }

      .f0eb17d0-4e0d-46dc-a114-02cfeea67f30 {
        fill: #dbdad9;
      }

      .\30 d030b03-a9e2-4d3d-b0ff-b11606ca47b8, .\39 fcc4797-8a1e-4ca3-ae35-66fbdcc4388e {
        fill: #f6891f;
      }

      .d0f00e3b-59eb-400e-a57e-b958f38b010f {
        fill: #43d3e8;
      }

      .\31 1321db4-128a-48ae-9d43-7d2784757bb0, .\37 680c324-368d-48d4-a07c-8ddfc21d9a0e, .\37 b2e31af-8a90-470d-af87-e8dacd90e360, .\39 8b90a9d-c61a-4f50-881c-cc659b5fdab9, .d3114450-fe9d-4573-b91a-812464841fda, .fe2098a0-2b6f-48e2-b9e3-647393740b69 {
        stroke-miterlimit: 10;
      }

      .\37 680c324-368d-48d4-a07c-8ddfc21d9a0e {
        stroke-width: 7px;
      }

      .\37 ae73c2a-bc36-466c-8056-e8b4a767e291 {
        fill: #f75c06;
      }

      .\31 1321db4-128a-48ae-9d43-7d2784757bb0, .\37 b2e31af-8a90-470d-af87-e8dacd90e360 {
        stroke-width: 8.05px;
      }

      .\30 d030b03-a9e2-4d3d-b0ff-b11606ca47b8, .\37 b2e31af-8a90-470d-af87-e8dacd90e360, .cdc4634f-e332-419c-9434-fee26fbb2d06 {
        fill-rule: evenodd;
      }

      .\38 8156638-a3bd-47ac-8899-3569baa709d4 {
        fill: #d3ef30;
      }

      .\36 2992a26-81d4-4c39-bc1a-f03dba708be5 {
        fill: #ffed97;
      }

      .\37 5170e93-0de9-4ffa-b25f-98fb1a401ada {
        stroke-width: 4px;
      }

      .fe2098a0-2b6f-48e2-b9e3-647393740b69 {
        stroke: #f6891f;
      }

      .d3114450-fe9d-4573-b91a-812464841fda, .fe2098a0-2b6f-48e2-b9e3-647393740b69 {
        stroke-width: 11px;
      }

      .d3114450-fe9d-4573-b91a-812464841fda {
        stroke: #fff;
      }
    </style>
  </defs>
  <title>Artboard 1</title>
  <g id="f86f6c69-3151-463e-a232-720961748d10" data-name="Layer 3">
    <rect class="ae0b048c-edbd-44c7-b68e-dbcddf09ba68" width="1920" height="1080"/>
  </g>
  <g id="e1952fa9-5662-4fb5-8615-9b5e6b1afd40" data-name="Layer 1">
    <circle id="769bfd80-b00a-4257-a269-566b7158bd8d" data-name="Trophy-back" class="e39bf781-e6c2-41bc-a972-ca3eb9457449" cx="1508.06" cy="610.04" r="65.83"/>
    <ellipse id="383ef3b3-092e-4e9d-9833-94c63af0fb67" data-name="tennis-back" class="9483e79d-96e0-4a48-9bb3-9d9df5bdd729" cx="426.26" cy="982.66" rx="65.83" ry="23.07"/>
    <ellipse class="420eaf47-e603-4a74-a6d8-e8931852b8f6" cx="1320.78" cy="898.75" rx="58.13" ry="27.25"/>
    <g id="0092cb94-6532-4e83-bf0d-ffbe4f6a8a54" data-name="bosm-main">
      <path class="48a14f27-98ac-4694-8909-78122d533acc" d="M547.86,404h87.93c39.46,0,64,28.27,63.07,67.42-.62,16.78-6.52,34.18-20.51,43.81,14.6,9.94,23,27,23,44.43,0,37.28-29.52,66.8-65.56,66.8H547.86Zm44.74,89.17h39.46c12.74,0,20.51-10.25,20.51-22.37,0-12.43-7.77-22.37-20.51-22.37H592.6Zm0,88.86h39.46a22.08,22.08,0,0,0,22.37-22.37c0-12.43-9.63-22.06-22.37-22.06H592.6Z"/>
      <path class="48a14f27-98ac-4694-8909-78122d533acc" d="M847.68,400.58c152.86,0,152.86,229,0,229S694.82,400.58,847.68,400.58Zm0,45.67c-88.86,0-88.86,137.33,0,137.33S936.54,446.25,847.68,446.25Z"/>
      <path class="48a14f27-98ac-4694-8909-78122d533acc" d="M999.3,565.56c25.48,18,53.13,18.64,63.38,17.71,13-.93,24.23-10.25,23-22.37-.93-12.74-10.56-18.33-23-22.68-34.8-12.74-65.87-30.45-65.87-67.73s25.79-65.87,62.76-67.73c11.5-.62,26.72-.62,55.3,9.32l-5.59,42.88c-24.54-9.94-38.53-9.63-45.36-9.32-15.85.93-23,12.43-22.06,24.86,1.24,12.43,12.12,18,24.86,22.37,34.49,12.74,64.31,32.62,64.31,68,0,37-25.48,65.25-67.11,67.42-12.43.93-40.08-.62-70.22-16.16Z"/>
      <path class="48a14f27-98ac-4694-8909-78122d533acc" d="M1357.85,400.89h14V626.45h-45.05l.31-124-56.86,59.65-56.86-59.65v124h-45.05V400.89h14.29l87.62,97.56Z"/>
    </g>
    <g id="a1dae0e4-c3fa-4138-8ff2-21e5dd9d1f92" data-name="bosm-line">
      <path class="ace4d83b-94e8-4704-9941-488da025f5ae" d="M539.86,399h87.93c39.46,0,64,28.27,63.07,67.42-.62,16.78-6.52,34.18-20.51,43.81,14.6,9.94,23,27,23,44.43,0,37.28-29.52,66.8-65.56,66.8H539.86Zm44.74,89.17h39.46c12.74,0,20.51-10.25,20.51-22.37,0-12.43-7.77-22.37-20.51-22.37H584.6Zm0,88.86h39.46a22.08,22.08,0,0,0,22.37-22.37c0-12.43-9.63-22.06-22.37-22.06H584.6Z"/>
      <path class="ace4d83b-94e8-4704-9941-488da025f5ae" d="M839.68,395.58c152.86,0,152.86,229,0,229S686.82,395.58,839.68,395.58Zm0,45.67c-88.86,0-88.86,137.33,0,137.33S928.54,441.25,839.68,441.25Z"/>
      <path class="ace4d83b-94e8-4704-9941-488da025f5ae" d="M991.3,560.56c25.48,18,53.13,18.64,63.38,17.71,13-.93,24.23-10.25,23-22.37-.93-12.74-10.56-18.33-23-22.68-34.8-12.74-65.87-30.45-65.87-67.73s25.79-65.87,62.76-67.73c11.5-.62,26.72-.62,55.3,9.32l-5.59,42.88c-24.54-9.94-38.53-9.63-45.36-9.32-15.85.93-23,12.43-22.06,24.86,1.24,12.43,12.12,18,24.86,22.37,34.49,12.74,64.31,32.62,64.31,68,0,37-25.48,65.25-67.11,67.42-12.43.93-40.08-.62-70.22-16.16Z"/>
      <path class="ace4d83b-94e8-4704-9941-488da025f5ae" d="M1349.85,395.89h14V621.45h-45.05l.31-124-56.86,59.65-56.86-59.65v124h-45.05V395.89h14.29l87.62,97.56Z"/>
    </g>
    <g id="fea962f5-c8e2-4706-9fa6-4811b669e096" data-name="2017-main">
      <path class="48a14f27-98ac-4694-8909-78122d533acc" d="M875.29,689.6c0-4.86-3.89-8.51-9-8.75-7.66-.49-17.26,4.5-20.05,6.93L842,671c6.68-4.86,17.26-8.26,25.77-7.9,25.52,1.34,34,23.7,19.45,44L870.06,733.6h25.77v17.62H838.46l32.45-51.53C875.53,693.13,875.29,689.6,875.29,689.6Z"/>
      <path class="48a14f27-98ac-4694-8909-78122d533acc" d="M907.38,707.71c0-24.67,8.39-44.6,29.78-44.6,21.63,0,29.9,19.93,29.9,44.6s-8.27,44.73-29.9,44.73C915.76,752.44,907.38,732.38,907.38,707.71Zm42.9,0c0-15.56-3.28-28.32-13.13-28.32-9.6,0-12.88,12.76-12.88,28.32S927.55,736,937.15,736C947,736,950.28,723.39,950.28,707.71Z"/>
      <path class="48a14f27-98ac-4694-8909-78122d533acc" d="M975.32,664.45h31.48v86.78H989.54v-69.4H975.32Z"/>
      <path class="48a14f27-98ac-4694-8909-78122d533acc" d="M1053.59,680.85h-35V664.45h59.67l-35.49,86.78h-18.72Z"/>
    </g>
    <g id="25e41b86-d376-46cf-bd9d-4af47e131353" data-name="2017-line">
      <path class="db358d98-42f6-497a-8e65-8f9dd2559d25" d="M869.29,686.6c0-4.86-3.89-8.51-9-8.75-7.66-.49-17.26,4.5-20.05,6.93L836,668c6.68-4.86,17.26-8.26,25.77-7.9,25.52,1.34,34,23.7,19.45,44L864.06,730.6h25.77v17.62H832.46l32.45-51.53C869.53,690.13,869.29,686.6,869.29,686.6Z"/>
      <path class="db358d98-42f6-497a-8e65-8f9dd2559d25" d="M901.38,704.71c0-24.67,8.39-44.6,29.78-44.6,21.63,0,29.9,19.93,29.9,44.6s-8.27,44.73-29.9,44.73C909.76,749.44,901.38,729.38,901.38,704.71Zm42.9,0c0-15.56-3.28-28.32-13.13-28.32-9.6,0-12.88,12.76-12.88,28.32S921.55,733,931.15,733C941,733,944.28,720.39,944.28,704.71Z"/>
      <path class="db358d98-42f6-497a-8e65-8f9dd2559d25" d="M969.32,661.45h31.48v86.78H983.54v-69.4H969.32Z"/>
      <path class="db358d98-42f6-497a-8e65-8f9dd2559d25" d="M1047.59,677.85h-35V661.45h59.67l-35.49,86.78h-18.72Z"/>
    </g>
    <rect id="0a035a62-5983-4974-8f4c-6b145c572654" data-name="left-main" class="48a14f27-98ac-4694-8909-78122d533acc" x="586" y="707" width="181" height="14"/>
    <rect id="e6d935fe-7c83-4a14-b9e9-21415631a903" data-name="left-line" class="db358d98-42f6-497a-8e65-8f9dd2559d25" x="582" y="702" width="181" height="14"/>
    <rect id="ec82fc5a-9efd-4dbd-983c-7905370f57d7" data-name="right-main" class="48a14f27-98ac-4694-8909-78122d533acc" x="1131" y="707" width="181" height="14"/>
    <rect id="a398407a-6d7c-4310-8966-64a17aba5dd6" data-name="right-line" class="db358d98-42f6-497a-8e65-8f9dd2559d25" x="1125" y="702" width="181" height="14"/>
    <!-- <rect id="36e3987a-306c-404c-a4eb-94f746ecee09" data-name="purple" class="d35f7662-e8bc-4cf6-9080-8d6a19484b2b" x="808.61" y="995.17" width="330.39" height="14"/> -->
    <!-- <rect id="1f97e586-5ee3-428a-ac05-ff9ceb89427d" data-name="red" class="48a14f27-98ac-4694-8909-78122d533acc" x="802.16" y="990.17" width="330.39" height="14"/> -->
    <g>
      <line class="bc8f597b-69bc-4d8c-aee4-f85c5c0b60d6" x1="1135" y1="210" x2="1136" y2="210"/>
      <path class="07504d0d-89ed-49eb-85af-72a67eb65685" d="M1148.71,210H1365a31,31,0,0,1,30.14,23.71"/>
      <path class="bc8f597b-69bc-4d8c-aee4-f85c5c0b60d6" d="M1396,240q0,.5,0,1v-1"/>
      <path class="bc8f597b-69bc-4d8c-aee4-f85c5c0b60d6" d="M1396,238v-1q0,.5,0,1"/>
      <path class="fc181837-e78f-4d03-b463-302771c49bf4" d="M1393,250.31A31,31,0,0,1,1365,268h-35a31,31,0,0,0-30.13,23.69"/>
      <path class="bc8f597b-69bc-4d8c-aee4-f85c5c0b60d6" d="M1299,298q0,.5,0,1v-1"/>
      <polyline class="bc8f597b-69bc-4d8c-aee4-f85c5c0b60d6" points="1299 297 1299 296 1299 297"/>
      <line class="22e34e12-5278-49c9-b886-a80458193356" x1="1299" y1="309.52" x2="1299" y2="447.74"/>
      <line class="bc8f597b-69bc-4d8c-aee4-f85c5c0b60d6" x1="1299" y1="454" x2="1299" y2="455"/>
    </g>
    <path id="35b34fec-1a53-4623-967f-a0951c7b8c5e" data-name="jersey-line" class="0399dd57-4056-437d-b50d-a79384066d54" d="M499.67,231.5H396.33a31,31,0,0,0,0,62,31,31,0,1,1,0,62H368.5a31,31,0,0,0,0,62h174"/>
    <path id="f67881dc-6e60-4006-ad85-06b63285f16b" data-name="tennis-line" class="0399dd57-4056-437d-b50d-a79384066d54" d="M435.25,870.5V824.08a31,31,0,0,1,31-31h50.61a31,31,0,0,0,31-31V626.45"/>
    <line id="d6ed7929-ccbc-4ba2-8185-36319a0c3e1d" data-name="trophy-line" class="0399dd57-4056-437d-b50d-a79384066d54" x1="1363.57" y1="586.59" x2="1509.06" y2="586.59"/>
    <path class="0399dd57-4056-437d-b50d-a79384066d54" d="M1263.75,849H1184a31,31,0,0,1-31-31V716"/>
    <g id="59cf8d81-7c10-4718-9ebc-b6901c93d528" data-name="Trophy">
      <path class="f0eb17d0-4e0d-46dc-a114-02cfeea67f30" d="M1495.42,519.92l77-1s3,87-37,87S1495.42,542.42,1495.42,519.92Z"/>
      <path class="f0eb17d0-4e0d-46dc-a114-02cfeea67f30" d="M1565.8,645.88h-9.73V626.67a24.24,24.24,0,0,1-11.82-10.61,23.79,23.79,0,0,1-2.83-11.73,12.16,12.16,0,0,1-13.5,0,26.2,26.2,0,0,1-13.6,22.33v19.21h-10.73a7.42,7.42,0,0,0-7.42,7.42v8.45h77.05V653.3A7.42,7.42,0,0,0,1565.8,645.88Z"/>
      <polygon class="9fcc4797-8a1e-4ca3-ae35-66fbdcc4388e" points="1529.44 538.44 1534.12 547.91 1544.57 549.43 1537.01 556.8 1538.79 567.21 1529.44 562.3 1520.09 567.21 1521.88 556.8 1514.32 549.43 1524.77 547.91 1529.44 538.44"/>
      <path class="d35f7662-e8bc-4cf6-9080-8d6a19484b2b" d="M1591.48,525.09a10.92,10.92,0,0,0-8.33-3.85H1572.6v-3.3a7.41,7.41,0,0,0-7.4-7.4h-71.51a7.41,7.41,0,0,0-7.4,7.4v3.3h-10.55a10.92,10.92,0,0,0-8.33,3.85,10.79,10.79,0,0,0-2.44,8.73,56.52,56.52,0,0,0,28.71,40.35,74.53,74.53,0,0,0,4.72,9.46c5.6,9.43,12.56,15.94,20.23,19.09a16,16,0,0,1-12.32,17.07h0a3.49,3.49,0,0,0-2.68,3.39v16h-6.48a10.49,10.49,0,0,0-10.48,10.48V658a3.49,3.49,0,0,0,3.49,3.49h79a3.49,3.49,0,0,0,3.49-3.49V649.7a10.49,10.49,0,0,0-10.48-10.48h-6.48v-16a3.49,3.49,0,0,0-2.69-3.4h0a15.94,15.94,0,0,1-12.31-17.21c7.53-3.2,14.37-9.66,19.89-18.94a74.56,74.56,0,0,0,4.72-9.46,56.52,56.52,0,0,0,28.71-40.35A10.79,10.79,0,0,0,1591.48,525.09Zm-119.62,7.61a3.76,3.76,0,0,1,.87-3.09,4,4,0,0,1,3-1.39h10.55v6.43a109.76,109.76,0,0,0,3.72,28.77A49.47,49.47,0,0,1,1471.86,532.7Zm90.26,113.5a3.5,3.5,0,0,1,3.49,3.49v4.78h-72V649.7a3.5,3.5,0,0,1,3.49-3.49Zm-13.47-19.52v12.53h-38.09V626.69Zm-28.93-7a23.13,23.13,0,0,0,2.36-3.08,22.72,22.72,0,0,0,3.6-12,27.39,27.39,0,0,0,7.84,0,23,23,0,0,0,6,15.12h-19.8Zm45.89-85.05c0,17.21-4,33.34-11.13,45.41-6.84,11.51-15.73,17.84-25,17.84s-18.21-6.34-25-17.84c-7.18-12.07-11.13-28.2-11.13-45.41V517.94a.42.42,0,0,1,.42-.42h71.51a.42.42,0,0,1,.42.42ZM1587,532.7a49.47,49.47,0,0,1-18.15,30.71,109.77,109.77,0,0,0,3.72-28.76v-6.43h10.55a4,4,0,0,1,3,1.39A3.76,3.76,0,0,1,1587,532.7Z"/>
      <path class="d35f7662-e8bc-4cf6-9080-8d6a19484b2b" d="M1550.65,546.4a3.5,3.5,0,0,0-2.82-2.38l-10.54-1.53-4.71-9.55a3.49,3.49,0,0,0-6.26,0l-4.71,9.55L1511.05,544a3.49,3.49,0,0,0-1.94,6l7.63,7.43-1.8,10.5a3.49,3.49,0,0,0,5.07,3.68l9.43-5,9.43,5a3.49,3.49,0,0,0,5.07-3.68l-1.8-10.5,7.63-7.43A3.49,3.49,0,0,0,1550.65,546.4Zm-14.7,7.29a3.49,3.49,0,0,0-1,3.09l.91,5.33-4.79-2.52a3.5,3.5,0,0,0-3.25,0l-4.79,2.52.91-5.33a3.49,3.49,0,0,0-1-3.09l-3.87-3.78,5.35-.78a3.49,3.49,0,0,0,2.63-1.91l2.39-4.85,2.39,4.85a3.49,3.49,0,0,0,2.63,1.91l5.35.78Z"/>
    </g>
    <circle id="43554b40-4a78-48f5-8e3b-2959085570d4" data-name="chess-back" class="d0f00e3b-59eb-400e-a57e-b958f38b010f" cx="1101.73" cy="140.01" r="65.83"/>
    <circle id="f9a4b9ed-e778-4114-b645-887a3fda15f6" data-name="jersey-back" class="420eaf47-e603-4a74-a6d8-e8931852b8f6" cx="582" cy="248.3" r="65.83"/>
    <g id="6c25b077-3b66-4454-b06c-e7d667d5f2b6" data-name="chess">
      <path class="420eaf47-e603-4a74-a6d8-e8931852b8f6" d="M1151.6,268.67H1150c-23.67-35.67-23.67-92.33-23.67-92.33h5.83a5.83,5.83,0,1,0,0-11.67h-4.83l16.5-40h-15.5V110h-6.75l-6.75-17.81,3.5-1.5,15.25,8.25V69.17l-17.25,6-1.5-2.25,4.5-15.25h-27.5l4.75,15.75-1.5,2.25-15.25-6.5V97.92l15.63-4.75,3.13,2.25L1092.35,110h-7.67v14.69h-15.83l16.5,40h-5.5a5.83,5.83,0,0,0,0,11.67h5.83s0,56.67-23.67,92.33h-2.42a11.5,11.5,0,0,0,0,23H1062V304h88.33V291.67h1.25a11.5,11.5,0,0,0,0-23Z"/>
      <path class="7680c324-368d-48d4-a07c-8ddfc21d9a0e" d="M1121.35,171.67h-40.67s0,56.67-23.67,92.33h88C1121.35,228.34,1121.35,171.67,1121.35,171.67Z"/>
      <polygon class="7680c324-368d-48d4-a07c-8ddfc21d9a0e" points="1063.85 120.01 1138.85 120.01 1122.35 160.01 1080.35 160.01 1063.85 120.01"/>
      <rect class="7680c324-368d-48d4-a07c-8ddfc21d9a0e" x="1069.02" y="160.01" width="64" height="11.67" rx="5.83" ry="5.83"/>
      <rect class="7680c324-368d-48d4-a07c-8ddfc21d9a0e" x="1043.1" y="264.01" width="115" height="23" rx="11.5" ry="11.5"/>
      <polyline class="7680c324-368d-48d4-a07c-8ddfc21d9a0e" points="1145.35 288.51 1145.35 298.34 1057.02 298.34 1057.02 288.2"/>
      <polyline class="7680c324-368d-48d4-a07c-8ddfc21d9a0e" points="1079.68 119.01 1079.68 105.32 1123.35 105.32 1123.35 118.26"/>
      <polygon class="7680c324-368d-48d4-a07c-8ddfc21d9a0e" points="1087.35 105.32 1093.6 90.76 1090.48 88.51 1074.85 93.26 1074.85 64.51 1090.1 71.01 1091.6 68.76 1086.85 53.01 1114.35 53.01 1109.85 68.26 1111.35 70.51 1128.6 64.51 1128.6 94.26 1113.35 86.01 1109.85 87.51 1116.6 105.32 1087.35 105.32"/>
    </g>
    <g id="9f65851a-c720-40df-a73e-faf6c3cd6237" data-name="Basketball">
      <circle class="7ae73c2a-bc36-466c-8056-e8b4a767e291" cx="1320.78" cy="852.06" r="55.51"/>
      <circle class="11321db4-128a-48ae-9d43-7d2784757bb0" cx="1314.45" cy="845.94" r="55.51"/>
      <path class="7b2e31af-8a90-470d-af87-e8dacd90e360" d="M1298.5,792.76s45,54.61,33.05,106"/>
      <path class="7b2e31af-8a90-470d-af87-e8dacd90e360" d="M1259.93,834.66s62.4,5.93,99.59-21.12"/>
      <path class="7b2e31af-8a90-470d-af87-e8dacd90e360" d="M1271.6,881.22s38-39.22,98.36-31.46"/>
    </g>
    <path class="88156638-a3bd-47ac-8899-3569baa709d4" d="M440.72,884.93a51.23,51.23,0,0,0-18.51,3.45c4.47,3.88,10.81,5.67,18.42,5.16h.2c14.32.59,26.06,8.72,31.41,21.73,4.61,11.23,2.69,24.73-5,35.26a63.76,63.76,0,0,1-8.58,9.52,36.37,36.37,0,0,1-17.86,9.21,37.16,37.16,0,0,1-6.46.57,36.25,36.25,0,0,1-22.75-8,34.92,34.92,0,0,1-12.92-26.22v-.2c.53-7.8-1.36-14.24-5.42-18.72a51.37,51.37,0,1,0,47.5-31.79Z"/>
    <g id="62daa714-ceea-42c5-8b1c-14a9b434c2cc" data-name="tennis">
      <polyline class="420eaf47-e603-4a74-a6d8-e8931852b8f6" points="422.22 888.38 418.63 889.92 395.35 913.59 393.23 916.73 399.13 952.63 414.13 972.13 451 974.5 475.75 941.88 475.75 913.38 464.88 898.38 450.38 890.88 425.63 888.38 422.85 888.15"/>
      <path class="88156638-a3bd-47ac-8899-3569baa709d4" d="M402.31,935.59A31.29,31.29,0,0,0,413.86,959a31.9,31.9,0,0,0,42.3-1.67,59.94,59.94,0,0,0,8.09-9c7-9.5,8.72-21.64,4.6-31.69-4.78-11.62-15.26-18.89-28.07-19.45-9,.58-16.51-1.73-21.75-6.72a1.82,1.82,0,0,1-.4-.57,51.54,51.54,0,0,0-23.8,23.31,1.81,1.81,0,0,1,.52.35C400.51,918.83,402.92,926.44,402.31,935.59Z"/>
      <path class="88156638-a3bd-47ac-8899-3569baa709d4" d="M440.72,884.93a51.23,51.23,0,0,0-18.51,3.45c4.47,3.88,10.81,5.67,18.42,5.16h.2c14.32.59,26.06,8.72,31.41,21.73,4.61,11.23,2.69,24.73-5,35.26a63.76,63.76,0,0,1-8.58,9.52,36.37,36.37,0,0,1-17.86,9.21,37.16,37.16,0,0,1-6.46.57,36.25,36.25,0,0,1-22.75-8,34.92,34.92,0,0,1-12.92-26.22v-.2c.53-7.8-1.36-14.24-5.42-18.72a51.37,51.37,0,1,0,47.5-31.79Z"/>
      <circle class="98b90a9d-c61a-4f50-881c-cc659b5fdab9" cx="434.22" cy="931.3" r="51.37"/>
    </g>
    <!--g[data-name="jersey"] -->
    <g id="9e908d94-5130-4f18-98dd-8dd46862d452" data-name="jersey">
      <g>
        <rect class="88156638-a3bd-47ac-8899-3569baa709d4" x="606.64" y="199.7" width="26.88" height="13.69"/>
        <rect class="88156638-a3bd-47ac-8899-3569baa709d4" x="477.44" y="199.7" width="26.88" height="13.69"/>
      </g>
      <polyline class="88156638-a3bd-47ac-8899-3569baa709d4" points="633.52 213.39 633.52 213.39 606.64 213.39 606.64 199.7 504.32 199.7 504.32 213.39 504.32 213.39 504.32 213.39 504.32 266.07 606.64 266.07 606.64 213.39"/>
      <rect class="48a14f27-98ac-4694-8909-78122d533acc" x="504.32" y="266.07" width="102.32" height="19.67"/>
      <rect class="62992a26-81d4-4c39-bc1a-f03dba708be5" x="519.26" y="199.7" width="72.45" height="47.83"/>
      <path class="88156638-a3bd-47ac-8899-3569baa709d4" d="M576.62,151.42a22.79,22.79,0,0,1-42.27,0H519.73a36.76,36.76,0,0,0,71.51,0Z"/>
      <g id="c742aba9-8187-4e65-b3cf-52320a0e8a28" data-name="jersey">
        <path class="48a14f27-98ac-4694-8909-78122d533acc" d="M633.52,168a16.57,16.57,0,0,0-16.57-16.57H576.62a22.79,22.79,0,0,1-42.27,0H494A16.57,16.57,0,0,0,477.44,168V199.7H633.52V168Z"/>
        <g id="a31afc5d-37a7-4271-8afc-f2b301b935a6" data-name="v">
          <path class="d35f7662-e8bc-4cf6-9080-8d6a19484b2b" d="M540.72,214.77l-1.35.84a2.12,2.12,0,0,1-1.16.37c-1.35,0-2.28-1.44-2.28-2.89a2.78,2.78,0,0,1,1.35-2.47l6.15-3.72a2.53,2.53,0,0,1,1.35-.33c1.49,0,3.21.88,3.21,2.28v29.61c0,1.49-1.82,2.23-3.63,2.23s-3.63-.74-3.63-2.23v-23.7Z"/>
          <path class="d35f7662-e8bc-4cf6-9080-8d6a19484b2b" d="M552.18,230V217.66c0-8,5-11,11.41-11s11.45,3,11.45,11V230c0,8-5,11-11.45,11S552.18,238,552.18,230Zm15.6-12.34c0-3.21-1.58-4.66-4.19-4.66s-4.14,1.44-4.14,4.66V230c0,3.21,1.54,4.66,4.14,4.66s4.19-1.44,4.19-4.66Z"/>
          <path id="2d8c1fd7-0c8d-4f8e-8301-56ad53c2b54b" data-name="jersey" class="d35f7662-e8bc-4cf6-9080-8d6a19484b2b" d="M616.95,148.25H576.38a3.17,3.17,0,0,0-2.7,2,19.62,19.62,0,0,1-36.38,0,3.17,3.17,0,0,0-2.94-2H494A19.77,19.77,0,0,0,474.27,168v45.4a3.17,3.17,0,0,0,3.17,3.17h23.71v31h0v38.2a3.17,3.17,0,0,0,3.17,3.17H606.64a3.17,3.17,0,0,0,3.17-3.17V216.56h23.71a3.17,3.17,0,0,0,3.17-3.17V168A19.77,19.77,0,0,0,616.95,148.25Zm-84.64,6.35a26,26,0,0,0,46.35,0H587a33.59,33.59,0,0,1-63,0ZM480.62,168a13.42,13.42,0,0,1,13.4-13.4h23.3a39.92,39.92,0,0,0,76.33,0h23.3a13.42,13.42,0,0,1,13.4,13.4v28.54H609.81v-7.79a3.17,3.17,0,1,0-6.34,0v7.79h-96v-7.79a3.17,3.17,0,1,0-6.34,0v7.79H480.62Zm35.47,34.88v41.49h-8.59V202.87h8.59Zm72.45,41.49H522.43V202.87h66.11v41.49Zm-81,6.34h96v12.2h-96Zm96-37.32v31h-8.59V202.87h8.59Zm-122.85-3.17v-7.34h20.53v7.34Zm122.86,72.35h-96V269.24h96Zm6.34-72.35v-7.34h20.54v7.34Z"/>
        </g>
      </g>
    </g>
    <rect xmlns="http://www.w3.org/2000/svg" class="528f6b92-94a6-4984-aed1-20dcbbe9f9d2" x="768.5" y="923.5" width="400" height="93.17" rx="46.58" ry="46.58" fill="#f6891f"/>
    <rect xmlns="http://www.w3.org/2000/svg" class="56e797b3-ff7c-4d1b-84dc-5d00f20e79ce" x="760" y="916" width="400" height="93.17" rx="46.58" ry="46.58" fill="#fff"/>
    <g xmlns="http://www.w3.org/2000/svg" id="134d79fa-488e-4193-bed7-060165aecd8a" data-name="register-back">
      <path class="c0cbe7b7-3648-4179-9a2d-8ce8816c41eb" d="M860.2,981.55,852,966.05H848.1v15.5H840V941h16c14.48,0,15.9,20.39,4,23.85l9.43,16.75Zm-12.1-23.39h7.16c5.51,0,5.51-9.09,0-9.09H848.1Z" fill="#f91653" stroke="#582e91" stroke-width="2.39px"/>
      <path class="c0cbe7b7-3648-4179-9a2d-8ce8816c41eb" d="M874.79,981.55V941h20.33v8.12H882.91v8.12h10.68v8.12H882.91v8.12H895.8v8.12Z" fill="#f91653" stroke="#582e91" stroke-width="2.39px"/>
      <path class="c0cbe7b7-3648-4179-9a2d-8ce8816c41eb" d="M922.21,981.78c-26.8,0-28.16-40.15,0-41.17a27.37,27.37,0,0,1,9.48,1.48l-1,8.23a19.25,19.25,0,0,0-8.52-1.48c-16.41.57-15.67,24.81,0,24.81a15.34,15.34,0,0,0,2.27-.23V961.22h8.23v17.83A21.13,21.13,0,0,1,922.21,981.78Z" fill="#f91653" stroke="#582e91" stroke-width="2.39px"/>
      <path class="c0cbe7b7-3648-4179-9a2d-8ce8816c41eb" d="M941.63,981.55V941h8.12v40.6Z" fill="#f91653" stroke="#582e91" stroke-width="2.39px"/>
      <path class="c0cbe7b7-3648-4179-9a2d-8ce8816c41eb" d="M958,970.42a18.22,18.22,0,0,0,11.58,3.24c2.39-.17,4.43-1.87,4.2-4.09s-1.93-3.35-4.2-4.15c-6.36-2.33-12-5.57-12-12.38s4.71-12,11.47-12.38c2.1-.11,4.88-.11,10.11,1.7l-1,7.84c-4.49-1.82-7-1.76-8.29-1.7a4,4,0,0,0-4,4.54c.23,2.27,2.21,3.29,4.54,4.09,6.3,2.33,11.75,6,11.75,12.44,0,6.76-4.66,11.92-12.27,12.32a25.4,25.4,0,0,1-12.83-3Z" fill="#f91653" stroke="#582e91" stroke-width="2.39px"/>
      <path class="c0cbe7b7-3648-4179-9a2d-8ce8816c41eb" d="M995.64,981.55V949.07H985.53V941h28.34v8.06h-10.11v32.48Z" fill="#f91653" stroke="#582e91" stroke-width="2.39px"/>
      <path class="c0cbe7b7-3648-4179-9a2d-8ce8816c41eb" d="M1020,981.55V941h20.33v8.12h-12.21v8.12h10.68v8.12h-10.68v8.12H1041v8.12Z" fill="#f91653" stroke="#582e91" stroke-width="2.39px"/>
      <path class="c0cbe7b7-3648-4179-9a2d-8ce8816c41eb" d="M1068.84,981.55l-8.18-15.5h-3.92v15.5h-8.12V941h16c14.48,0,15.9,20.39,4,23.85l9.43,16.75Zm-12.09-23.39h7.15c5.51,0,5.51-9.09,0-9.09h-7.15Z" fill="#f91653" stroke="#582e91" stroke-width="2.39px"/>
    </g>
    <g id="a7d3aa47-2bb3-4f89-a76e-cf514d9ac393" data-name="re9">
      <line class="fe2098a0-2b6f-48e2-b9e3-647393740b69" x1="348.96" y1="559.74" x2="334.37" y2="596.26"/>
      <line class="fe2098a0-2b6f-48e2-b9e3-647393740b69" x1="359.93" y1="585.3" x2="323.4" y2="570.7"/>
    </g>
    <g id="e6f85b7b-320c-443b-8900-ea04c396828b" data-name="re8">
      <line class="fe2098a0-2b6f-48e2-b9e3-647393740b69" x1="1431.26" y1="314.24" x2="1416.67" y2="350.76"/>
      <line class="fe2098a0-2b6f-48e2-b9e3-647393740b69" x1="1442.23" y1="339.8" x2="1405.7" y2="325.2"/>
    </g>
    <g id="6db45f15-a634-42f2-8c97-6fa70175aec4" data-name="re7">
      <line class="fe2098a0-2b6f-48e2-b9e3-647393740b69" x1="889.83" y1="823.15" x2="853.35" y2="837.87"/>
      <line class="fe2098a0-2b6f-48e2-b9e3-647393740b69" x1="878.95" y1="848.75" x2="864.23" y2="812.27"/>
    </g>
    <g id="5f98047b-ce00-45e8-af7c-81a3c6deaf04" data-name="re6">
      <line class="d3114450-fe9d-4573-b91a-812464841fda" x1="967.69" y1="240.17" x2="931.21" y2="254.89"/>
      <line class="d3114450-fe9d-4573-b91a-812464841fda" x1="956.81" y1="265.77" x2="942.09" y2="229.29"/>
    </g>
    <circle id="f287c095-7f61-4b9c-829d-66df011089ec" data-name="re5" class="d3114450-fe9d-4573-b91a-812464841fda" cx="586" cy="792.76" r="17"/>
    <circle id="37cfdc18-b827-4c2e-9763-12f309d7abe0" data-name="re4" class="fe2098a0-2b6f-48e2-b9e3-647393740b69" cx="1481.82" cy="775.76" r="17"/>
    <circle id="15b46b94-52fd-4a69-a52e-2f070c76267c" data-name="re3" class="fe2098a0-2b6f-48e2-b9e3-647393740b69" cx="765.73" cy="193.77" r="17"/>
    <circle id="6153582a-49d2-4a24-b8da-162e531da632" data-name="re2" class="d3114450-fe9d-4573-b91a-812464841fda" cx="252.47" cy="258.76" r="17"/>
    <circle id="21604b29-68f4-4d60-be21-128c822520f0" data-name="re1" class="d3114450-fe9d-4573-b91a-812464841fda" cx="1594.06" cy="210" r="17"/>
    <g id="d880f677-4a41-42c0-844b-10980dbf06d6" data-name="youtube">
      <path class="0d030b03-a9e2-4d3d-b0ff-b11606ca47b8" d="M1776.35,1000.66l-15.75,8.5V992.08l7.1,3.86Zm18.86-11.54s-.57-4.21-2.32-6.06a8.21,8.21,0,0,0-5.86-2.57c-8.17-.6-20.41-.6-20.41-.6h0s-12.24,0-20.41.6a8.19,8.19,0,0,0-5.86,2.59c-1.74,1.84-2.29,6-2.29,6a93.17,93.17,0,0,0-.6,9.84v4.61a93.19,93.19,0,0,0,.6,9.84s.55,4.19,2.29,6c2.24,2.44,5.16,2.37,6.45,2.62,4.66.45,19.84.6,19.84.6s12.24,0,20.41-.62a8.15,8.15,0,0,0,5.86-2.59c1.74-1.84,2.32-6,2.32-6a97.25,97.25,0,0,0,.57-9.84V999a97.23,97.23,0,0,0-.57-9.84Z"/>
      <path class="cdc4634f-e332-419c-9434-fee26fbb2d06" d="M1773.8,996.21l-15.75,8.5V987.64l7.1,3.86Zm18.86-11.54s-.57-4.21-2.32-6.06a8.21,8.21,0,0,0-5.86-2.57c-8.17-.6-20.41-.6-20.41-.6h0s-12.24,0-20.41.6a8.19,8.19,0,0,0-5.86,2.59c-1.74,1.84-2.29,6-2.29,6a93.17,93.17,0,0,0-.6,9.84v4.61a93.19,93.19,0,0,0,.6,9.84s.55,4.19,2.29,6c2.24,2.44,5.16,2.37,6.45,2.62,4.66.45,19.84.6,19.84.6s12.24,0,20.41-.62a8.15,8.15,0,0,0,5.86-2.59c1.74-1.84,2.32-6,2.32-6a97.25,97.25,0,0,0,.57-9.84v-4.61a97.23,97.23,0,0,0-.57-9.84Z"/>
    </g>
    <g id="338af3f0-6737-41b2-b3c4-5de898dc33e9" data-name="facebook">
      <path class="9fcc4797-8a1e-4ca3-ae35-66fbdcc4388e" d="M1698.6,977.24h-41.09a2.55,2.55,0,0,0-2.55,2.55v41.09a2.55,2.55,0,0,0,2.55,2.55h22.12v-17.89h-6v-7h6v-5.14c0-6,3.64-9.21,9-9.21a49.4,49.4,0,0,1,5.38.27v6.23h-3.69c-2.89,0-3.45,1.38-3.45,3.39v4.45h6.9l-.9,7h-6v17.89h11.77a2.55,2.55,0,0,0,2.55-2.55V979.79A2.55,2.55,0,0,0,1698.6,977.24Z"/>
      <path class="420eaf47-e603-4a74-a6d8-e8931852b8f6" d="M1695.6,973.74h-41.09a2.55,2.55,0,0,0-2.55,2.55v41.09a2.55,2.55,0,0,0,2.55,2.55h22.12V1002h-6v-7h6v-5.14c0-6,3.64-9.21,9-9.21a49.4,49.4,0,0,1,5.38.27v6.23h-3.69c-2.89,0-3.45,1.38-3.45,3.39v4.45h6.9l-.9,7h-6v17.89h11.77a2.55,2.55,0,0,0,2.55-2.55V976.29A2.55,2.55,0,0,0,1695.6,973.74Z"/>
    </g>
    <g id="a7514483-b246-4015-93b2-3cac8b45ab23" data-name="insta">
      <g>
        <path class="9fcc4797-8a1e-4ca3-ae35-66fbdcc4388e" d="M1854.5,980.32c6.52,0,7.29,0,9.87.14a13.51,13.51,0,0,1,4.53.84,8.09,8.09,0,0,1,4.63,4.63,13.51,13.51,0,0,1,.84,4.53c.12,2.57.14,3.35.14,9.87s0,7.29-.14,9.87a13.51,13.51,0,0,1-.84,4.53,8.09,8.09,0,0,1-4.63,4.63,13.51,13.51,0,0,1-4.53.84c-2.57.12-3.35.14-9.87.14s-7.29,0-9.87-.14a13.51,13.51,0,0,1-4.53-.84,8.09,8.09,0,0,1-4.63-4.63,13.51,13.51,0,0,1-.84-4.53c-.12-2.57-.14-3.35-.14-9.87s0-7.29.14-9.87a13.51,13.51,0,0,1,.84-4.53,8.09,8.09,0,0,1,4.63-4.63,13.51,13.51,0,0,1,4.53-.84c2.57-.12,3.35-.14,9.87-.14m0-4.4c-6.63,0-7.46,0-10.07.15a17.92,17.92,0,0,0-5.93,1.13,12.49,12.49,0,0,0-7.14,7.14,17.92,17.92,0,0,0-1.13,5.93c-.12,2.6-.15,3.44-.15,10.07s0,7.46.15,10.07a17.92,17.92,0,0,0,1.13,5.93,12.49,12.49,0,0,0,7.14,7.14,17.92,17.92,0,0,0,5.93,1.13c2.6.12,3.44.15,10.07.15s7.46,0,10.07-.15a17.92,17.92,0,0,0,5.93-1.13,12.49,12.49,0,0,0,7.14-7.14,17.92,17.92,0,0,0,1.13-5.93c.12-2.6.15-3.44.15-10.07s0-7.46-.15-10.07a17.92,17.92,0,0,0-1.13-5.93,12.49,12.49,0,0,0-7.14-7.14,17.92,17.92,0,0,0-5.93-1.13c-2.6-.12-3.44-.15-10.07-.15Z"/>
        <path class="9fcc4797-8a1e-4ca3-ae35-66fbdcc4388e" d="M1854.5,987.79a12.54,12.54,0,1,0,12.54,12.54A12.54,12.54,0,0,0,1854.5,987.79Zm0,20.68a8.14,8.14,0,1,1,8.14-8.14A8.14,8.14,0,0,1,1854.5,1008.47Z"/>
        <circle class="9fcc4797-8a1e-4ca3-ae35-66fbdcc4388e" cx="1867.53" cy="987.3" r="2.93"/>
      </g>
      <g>
        <path class="420eaf47-e603-4a74-a6d8-e8931852b8f6" d="M1851.5,976.82c6.52,0,7.29,0,9.87.14a13.51,13.51,0,0,1,4.53.84,8.09,8.09,0,0,1,4.63,4.63,13.51,13.51,0,0,1,.84,4.53c.12,2.57.14,3.35.14,9.87s0,7.29-.14,9.87a13.51,13.51,0,0,1-.84,4.53,8.09,8.09,0,0,1-4.63,4.63,13.51,13.51,0,0,1-4.53.84c-2.57.12-3.35.14-9.87.14s-7.29,0-9.87-.14a13.51,13.51,0,0,1-4.53-.84,8.09,8.09,0,0,1-4.63-4.63,13.51,13.51,0,0,1-.84-4.53c-.12-2.57-.14-3.35-.14-9.87s0-7.29.14-9.87a13.51,13.51,0,0,1,.84-4.53,8.09,8.09,0,0,1,4.63-4.63,13.51,13.51,0,0,1,4.53-.84c2.57-.12,3.35-.14,9.87-.14m0-4.4c-6.63,0-7.46,0-10.07.15a17.92,17.92,0,0,0-5.93,1.13,12.49,12.49,0,0,0-7.14,7.14,17.92,17.92,0,0,0-1.13,5.93c-.12,2.6-.15,3.44-.15,10.07s0,7.46.15,10.07a17.92,17.92,0,0,0,1.13,5.93,12.49,12.49,0,0,0,7.14,7.14,17.92,17.92,0,0,0,5.93,1.13c2.6.12,3.44.15,10.07.15s7.46,0,10.07-.15a17.92,17.92,0,0,0,5.93-1.13,12.49,12.49,0,0,0,7.14-7.14,17.92,17.92,0,0,0,1.13-5.93c.12-2.6.15-3.44.15-10.07s0-7.46-.15-10.07a17.92,17.92,0,0,0-1.13-5.93,12.49,12.49,0,0,0-7.14-7.14,17.92,17.92,0,0,0-5.93-1.13c-2.6-.12-3.44-.15-10.07-.15Z"/>
        <path class="420eaf47-e603-4a74-a6d8-e8931852b8f6" d="M1851.5,984.29A12.54,12.54,0,1,0,1864,996.83,12.54,12.54,0,0,0,1851.5,984.29Zm0,20.68a8.14,8.14,0,1,1,8.14-8.14A8.14,8.14,0,0,1,1851.5,1005Z"/>
        <circle class="420eaf47-e603-4a74-a6d8-e8931852b8f6" cx="1864.53" cy="983.8" r="2.93"/>
      </g>
    </g>
    <g id="7053b9ab-d8d9-4ce0-9eb7-202b108139a8" data-name="Home">
      <path class="9fcc4797-8a1e-4ca3-ae35-66fbdcc4388e" d="M93.59,112.34A20.09,20.09,0,1,0,73.5,132.43,20.1,20.1,0,0,0,93.59,112.34Zm-6.7-40.17A13.39,13.39,0,1,0,73.5,85.56,13.39,13.39,0,0,0,86.89,72.17Zm-20.09,0a6.7,6.7,0,1,1,6.7,6.7A6.72,6.72,0,0,1,66.8,72.17Z"/>
      <path class="420eaf47-e603-4a74-a6d8-e8931852b8f6" d="M89.59,109.34A20.09,20.09,0,1,0,69.5,129.43,20.1,20.1,0,0,0,89.59,109.34Zm-6.7-40.17A13.39,13.39,0,1,0,69.5,82.56,13.39,13.39,0,0,0,82.89,69.17Zm-20.09,0a6.7,6.7,0,1,1,6.7,6.7A6.72,6.72,0,0,1,62.8,69.17Z"/>
    </g>
    <g id="8442bb44-df6d-4e13-83fc-f6e7a41a0c47" data-name="menu">
      <path class="9fcc4797-8a1e-4ca3-ae35-66fbdcc4388e" d="M1769.19,124.43h73.13V116.3h-73.13Zm0-20.31h73.13V96h-73.13Zm0-28.44V83.8h73.13V75.67Z"/>
      <path class="420eaf47-e603-4a74-a6d8-e8931852b8f6" d="M1766.84,121.15H1840V113h-73.13Zm0-20.31H1840V92.71h-73.13Zm0-28.44v8.13H1840V72.39Z"/>
    </g>
    <g id="efc86e90-b6ff-4cf8-bf90-44c23b3bf76f" data-name="video-icon">
      <g>
        <path class="9fcc4797-8a1e-4ca3-ae35-66fbdcc4388e" d="M136.53,953.87H100.31a12.11,12.11,0,0,0-12.07,12.07v36.22a12.11,12.11,0,0,0,12.07,12.07h36.22a12.11,12.11,0,0,0,12.07-12.07V965.94A12.11,12.11,0,0,0,136.53,953.87Zm-28.2,42.24V972l22.8,12.05Z"/>
        <rect class="9fcc4797-8a1e-4ca3-ae35-66fbdcc4388e" x="160.16" y="957.72" width="65.92" height="10.83"/>
        <rect class="9fcc4797-8a1e-4ca3-ae35-66fbdcc4388e" x="160.16" y="978.64" width="56.4" height="10.83"/>
        <rect class="9fcc4797-8a1e-4ca3-ae35-66fbdcc4388e" x="160.16" y="999.56" width="65.92" height="10.83"/>
      </g>
      <g>
        <path class="420eaf47-e603-4a74-a6d8-e8931852b8f6" d="M131.53,948.45H95.31a12.11,12.11,0,0,0-12.07,12.07v36.22a12.11,12.11,0,0,0,12.07,12.07h36.22a12.11,12.11,0,0,0,12.07-12.07V960.53A12.11,12.11,0,0,0,131.53,948.45Zm-28.2,42.24v-24.1l22.8,12.05Z"/>
        <rect class="420eaf47-e603-4a74-a6d8-e8931852b8f6" x="155.16" y="952.31" width="65.92" height="10.83"/>
        <rect class="420eaf47-e603-4a74-a6d8-e8931852b8f6" x="155.16" y="973.23" width="56.4" height="10.83"/>
        <rect class="420eaf47-e603-4a74-a6d8-e8931852b8f6" x="155.16" y="994.15" width="65.92" height="10.83"/>
      </g>
    </g>
  </g>
</svg>
