<svg xmlns="http://www.w3.org/2000/svg" xmlns:xlink="http://www.w3.org/1999/xlink" width="4108.65" height="3580.14" viewBox="0 0 4108.65 3580.14"><defs><clipPath id="clip-path" transform="translate(1512 579.14)"><rect x="-41" y="609" width="1994" height="483" fill="none"/></clipPath><linearGradient id="linear-gradient" x1="1341.22" y1="905.89" x2="2095.98" y2="-70.8" gradientTransform="translate(94.95 1118.75) rotate(-37.01)" gradientUnits="userSpaceOnUse"><stop offset="0" stop-color="#fff" stop-opacity="0"/><stop offset="0.22" stop-color="#fff" stop-opacity="0.5"/><stop offset="0.49" stop-color="#fff"/><stop offset="0.75" stop-color="#fff" stop-opacity="0.5"/><stop offset="1" stop-color="#fff" stop-opacity="0"/></linearGradient><linearGradient id="linear-gradient-2" x1="429.99" y1="728.22" x2="1184.75" y2="-248.48" gradientTransform="translate(18.29 534.38) rotate(-37.01)" gradientUnits="userSpaceOnUse"><stop offset="0" stop-color="#fff" stop-opacity="0"/><stop offset="0.22" stop-color="#fff" stop-opacity="0.5"/><stop offset="0.49" stop-color="#fff"/><stop offset="0.75" stop-color="#fff" stop-opacity="0.5"/><stop offset="1" stop-color="#fff" stop-opacity="0"/></linearGradient><linearGradient id="linear-gradient-3" x1="-195.38" y1="424.8" x2="559.38" y2="-551.89" gradientTransform="matrix(0.43, -0.6, 0.32, 0.8, 173.81, 133.64)" xlink:href="#linear-gradient-2"/><linearGradient id="linear-gradient-4" x1="-356.46" y1="308.04" x2="398.3" y2="-668.65" gradientTransform="matrix(0.21, -0.6, 0.16, 0.8, 196.39, 90.09)" xlink:href="#linear-gradient-2"/><linearGradient id="linear-gradient-5" x1="2503.96" y1="1782.53" x2="3258.72" y2="805.83" gradientTransform="matrix(0.21, -0.6, 0.16, 0.8, 1052.33, 1239.38)" xlink:href="#linear-gradient-2"/><linearGradient id="linear-gradient-6" x1="3142.49" y1="2576.38" x2="3897.25" y2="1599.69" gradientTransform="matrix(0.21, -0.6, 0.16, 0.8, 848.74, 1348.63)" xlink:href="#linear-gradient-2"/><linearGradient id="linear-gradient-7" x1="2964.19" y1="2510.88" x2="3718.95" y2="1534.18" gradientTransform="matrix(0.14, -0.6, 0.1, 0.8, 1218.97, 1315.98)" xlink:href="#linear-gradient-2"/><linearGradient id="linear-gradient-8" x1="-1481.51" y1="-639.39" x2="-726.75" y2="-1616.08" gradientTransform="matrix(0.21, -0.6, 0.16, 0.8, 1023.02, 396.14)" xlink:href="#linear-gradient-2"/><linearGradient id="linear-gradient-9" x1="-1857.31" y1="-912.22" x2="-1102.55" y2="-1888.92" gradientTransform="matrix(0.15, -0.6, 0.11, 0.8, 956.13, 372.55)" xlink:href="#linear-gradient-2"/></defs><title>torch</title><g id="Sky"><rect x="1382" y="249.9" width="2109" height="1287.07" fill="#b0e9ff"/><circle cx="3137.53" cy="651.09" r="169.01" fill="#ffc610"/><circle cx="3147.62" cy="661.18" r="169.01" fill="none" stroke="#041566" stroke-miterlimit="10" stroke-width="10.09"/><path d="M2247,266.72a72.58,72.58,0,0,0,9.45-35.86c0-41.59-35.14-75.31-78.49-75.31a79.31,79.31,0,0,0-65.31,33.56,94.72,94.72,0,0,0-142.54-67.87,134.48,134.48,0,0,0-253.69,9.7,76.12,76.12,0,0,0-102,59.32,64.14,64.14,0,0,0-58-.58c-7.93-36.31-42.52-63.64-84-63.64-33.76,0-62.94,18.11-76.92,44.42a64.53,64.53,0,0,0-89.18,90.71l-7.81.27S997.47,295.36,984,311.3l122.51-1.4L2584,308.66S2332.87,271.1,2247,266.72Z" transform="translate(1512 579.14)" fill="#fff"/><path d="M2254.53,276.82A72.58,72.58,0,0,0,2264,241c0-41.59-35.14-75.31-78.49-75.31a79.31,79.31,0,0,0-65.31,33.56,94.72,94.72,0,0,0-142.54-67.87,134.48,134.48,0,0,0-253.69,9.7,76.12,76.12,0,0,0-102,59.32,64.14,64.14,0,0,0-58-.58c-7.93-36.31-42.52-63.64-84-63.64-33.76,0-62.94,18.11-76.92,44.42a64.53,64.53,0,0,0-89.18,90.71l-7.81.27S1005,305.45,991.54,321.39L1114,320l1477.56-1.24S2340.44,281.2,2254.53,276.82Z" transform="translate(1512 579.14)" fill="none" stroke="#041566" stroke-linecap="round" stroke-linejoin="round" stroke-width="10.09"/><path d="M-977.19,752.19a7.5,7.5,0,0,1-2.65-.48l-72-27a7.55,7.55,0,0,1-4.42-9.72,7.55,7.55,0,0,1,9.72-4.42l72,27a7.55,7.55,0,0,1,4.42,9.72A7.55,7.55,0,0,1-977.19,752.19Z" transform="translate(1512 579.14)" fill="#041566"/><path d="M-1026.7,774.69a7.5,7.5,0,0,1-2.65-.48,7.55,7.55,0,0,1-4.42-9.72l27-72a7.55,7.55,0,0,1,9.72-4.42,7.55,7.55,0,0,1,4.42,9.72l-27,72A7.55,7.55,0,0,1-1026.7,774.69Z" transform="translate(1512 579.14)" fill="#041566"/><polygon points="592.41 312.14 592.55 186.67 579.21 185.18 579.21 312.14 592.41 312.14" fill="#0d80a3" opacity="0.28"/><polygon points="1808.18 982.46 1808.18 1115.28 1426 1116.17 1426 1785.7 2457.6 1849.42 2457.6 993.38 1808.18 982.46" fill="#0d80a3" opacity="0.28"/><path d="M1483.87,520.48a3.57,3.57,0,0,1-1.26-.23l-34.32-12.87a3.6,3.6,0,1,1,2.52-6.74l34.32,12.87a3.6,3.6,0,0,1-1.26,7Z" transform="translate(1512 579.14)" fill="#041566"/><path d="M1460.28,531.21a3.6,3.6,0,0,1-3.37-4.86L1469.78,492a3.6,3.6,0,0,1,6.74,2.53l-12.87,34.32A3.6,3.6,0,0,1,1460.28,531.21Z" transform="translate(1512 579.14)" fill="#041566"/><path d="M1904.23,31.26A3.58,3.58,0,0,1,1903,31l-34.32-12.87a3.6,3.6,0,1,1,2.53-6.74l34.32,12.87a3.6,3.6,0,0,1-1.26,7Z" transform="translate(1512 579.14)" fill="#fff"/><path d="M1880.64,42a3.6,3.6,0,0,1-3.37-4.86L1890.14,2.8a3.6,3.6,0,0,1,6.74,2.53L1884,39.64A3.6,3.6,0,0,1,1880.64,42Z" transform="translate(1512 579.14)" fill="#fff"/><path d="M154,172.73A15.94,15.94,0,1,1,170,156.79,16,16,0,0,1,154,172.73Zm0-24.68a8.74,8.74,0,1,0,8.74,8.74A8.75,8.75,0,0,0,154,148.05Z" transform="translate(1512 579.14)" fill="#041566"/><path d="M588.06,366.47A15.94,15.94,0,1,1,604,350.53,16,16,0,0,1,588.06,366.47Zm0-24.68a8.74,8.74,0,1,0,8.74,8.74A8.75,8.75,0,0,0,588.06,341.79Z" transform="translate(1512 579.14)" fill="#fff"/><path d="M417.14,88.33a3.6,3.6,0,0,1-3.41-2.44L409.5,73.4l-12.61,6.66a3.6,3.6,0,0,1-5-1.7L384.15,61.1a3.6,3.6,0,1,1,6.56-3l6.2,13.77,13-6.84a3.6,3.6,0,0,1,5.08,2l4.34,12.77,14.21-6.27a3.6,3.6,0,0,1,2.9,6.58L418.6,88A3.6,3.6,0,0,1,417.14,88.33Z" transform="translate(1512 579.14)" fill="#041566"/></g><g id="Flood_Lights" data-name="Flood Lights"><rect x="12.67" y="574.24" width="17.67" height="237.23" transform="translate(1649.45 588.57) rotate(11.41)" fill="#dedee0"/><rect x="265.03" y="627.23" width="17.67" height="237.23" transform="translate(1664.91 539.71) rotate(11.41)" fill="#dedee0"/><path d="M40.07,593.78" transform="translate(1512 579.14)" fill="none" stroke="#041566" stroke-linecap="round" stroke-linejoin="round" stroke-width="10.09"/><polyline points="1569.2 1177.31 1523.75 1402.62 1506.43 1399.13 1551.84 1174.05" fill="none" stroke="#041566" stroke-linecap="round" stroke-linejoin="round" stroke-width="10.09"/><path d="M292.8,645" transform="translate(1512 579.14)" fill="none" stroke="#041566" stroke-linecap="round" stroke-linejoin="round" stroke-width="10.09"/><polyline points="1821.58 1230.25 1776.11 1455.62 1758.8 1452.12 1804.63 1224.94" fill="none" stroke="#041566" stroke-linecap="round" stroke-linejoin="round" stroke-width="10.09"/><rect x="1946.36" y="577.69" width="17.67" height="237.23" transform="translate(5506.17 1662.93) rotate(171.16)" fill="#dedee0"/><rect x="1691.87" y="619.34" width="17.67" height="237.23" transform="translate(5006.63 1784.85) rotate(171.16)" fill="#dedee0"/><polyline points="3450.26 1179.01 3484.14 1396.86 3501.6 1394.14 3467.69 1176.12" fill="none" stroke="#041566" stroke-linecap="round" stroke-linejoin="round" stroke-width="10.09"/><path d="M1700.59,634.7" transform="translate(1512 579.14)" fill="none" stroke="#041566" stroke-linecap="round" stroke-linejoin="round" stroke-width="10.09"/><polyline points="3195.53 1219.14 3229.66 1438.51 3247.11 1435.79 3212.88 1215.73" fill="none" stroke="#041566" stroke-linecap="round" stroke-linejoin="round" stroke-width="10.09"/><rect x="-34.7" y="258.8" width="484.55" height="358.21" transform="translate(1602.7 546.73) rotate(11.41)" fill="#fafbff"/><rect x="-26.3" y="268.22" width="484.55" height="358.21" transform="translate(1604.73 545.26) rotate(11.41)" fill="none" stroke="#041566" stroke-linecap="round" stroke-linejoin="round" stroke-width="10.09"/><circle cx="18.81" cy="511.12" r="44.58" transform="translate(1503.02 579.55) rotate(-1.01)" fill="#fff8a1"/><circle cx="132.15" cy="533.6" r="44.58" transform="translate(1502.64 581.54) rotate(-1.01)" fill="#fff8a1"/><circle cx="244.53" cy="556.3" r="44.58" transform="translate(1502.26 583.52) rotate(-1.01)" fill="#fff8a1"/><circle cx="354.83" cy="578.59" r="44.58" transform="translate(1501.88 585.46) rotate(-1.01)" fill="#fff8a1"/><circle cx="40.81" cy="402.28" r="44.58" transform="translate(1504.93 579.92) rotate(-1.01)" fill="#fff8a1"/><circle cx="154.14" cy="424.76" r="44.58" transform="translate(1504.56 581.91) rotate(-1.01)" fill="#fff8a1"/><circle cx="266.52" cy="447.46" r="44.58" transform="translate(1504.17 583.89) rotate(-1.01)" fill="#fff8a1"/><circle cx="376.82" cy="469.75" r="44.58" transform="translate(1503.8 585.83) rotate(-1.01)" fill="#fff8a1"/><circle cx="62.3" cy="295.91" r="44.58" transform="translate(1506.81 580.28) rotate(-1.01)" fill="#fff8a1"/><circle cx="175.63" cy="318.39" r="44.58" transform="translate(1506.43 582.27) rotate(-1.01)" fill="#fff8a1"/><circle cx="288.01" cy="341.09" r="44.58" transform="translate(1506.05 584.25) rotate(-1.01)" fill="#fff8a1"/><circle cx="398.31" cy="363.38" r="44.58" transform="translate(1505.67 586.2) rotate(-1.01)" fill="#fff8a1"/><circle cx="22.26" cy="519.54" r="44.58" transform="translate(1502.87 579.61) rotate(-1.01)" fill="none" stroke="#041566" stroke-linecap="round" stroke-linejoin="round" stroke-width="10.09"/><circle cx="135.6" cy="542.02" r="44.58" transform="translate(1502.49 581.6) rotate(-1.01)" fill="none" stroke="#041566" stroke-linecap="round" stroke-linejoin="round" stroke-width="10.09"/><circle cx="247.98" cy="564.73" r="44.58" transform="translate(1502.11 583.58) rotate(-1.01)" fill="none" stroke="#041566" stroke-linecap="round" stroke-linejoin="round" stroke-width="10.09"/><circle cx="358.28" cy="587.01" r="44.58" transform="translate(1501.73 585.53) rotate(-1.01)" fill="none" stroke="#041566" stroke-linecap="round" stroke-linejoin="round" stroke-width="10.09"/><circle cx="44.25" cy="410.7" r="44.58" transform="translate(1504.79 579.98) rotate(-1.01)" fill="none" stroke="#041566" stroke-linecap="round" stroke-linejoin="round" stroke-width="10.09"/><circle cx="157.59" cy="433.18" r="44.58" transform="translate(1504.41 581.97) rotate(-1.01)" fill="none" stroke="#041566" stroke-linecap="round" stroke-linejoin="round" stroke-width="10.09"/><circle cx="269.97" cy="455.88" r="44.58" transform="translate(1504.03 583.95) rotate(-1.01)" fill="none" stroke="#041566" stroke-linecap="round" stroke-linejoin="round" stroke-width="10.09"/><circle cx="380.27" cy="478.17" r="44.58" transform="translate(1503.65 585.9) rotate(-1.01)" fill="none" stroke="#041566" stroke-linecap="round" stroke-linejoin="round" stroke-width="10.09"/><circle cx="65.74" cy="304.33" r="44.58" transform="translate(1506.66 580.34) rotate(-1.01)" fill="none" stroke="#041566" stroke-linecap="round" stroke-linejoin="round" stroke-width="10.09"/><circle cx="179.08" cy="326.81" r="44.58" transform="translate(1506.28 582.34) rotate(-1.01)" fill="none" stroke="#041566" stroke-linecap="round" stroke-linejoin="round" stroke-width="10.09"/><circle cx="291.46" cy="349.51" r="44.58" transform="translate(1505.9 584.32) rotate(-1.01)" fill="none" stroke="#041566" stroke-linecap="round" stroke-linejoin="round" stroke-width="10.09"/><circle cx="401.76" cy="371.8" r="44.58" transform="translate(1505.53 586.26) rotate(-1.01)" fill="none" stroke="#041566" stroke-linecap="round" stroke-linejoin="round" stroke-width="10.09"/><rect x="1525.3" y="253.59" width="484.55" height="358.21" transform="translate(5092.65 1167.69) rotate(171.16)" fill="#fafbff"/><rect x="1536.66" y="263.53" width="484.55" height="358.21" transform="translate(5116.77 1185.7) rotate(171.16)" fill="none" stroke="#041566" stroke-linecap="round" stroke-linejoin="round" stroke-width="10.09"/><circle cx="1952.87" cy="514.29" r="44.58" transform="translate(2829.92 3010.46) rotate(-86.43)" fill="#fff8a1"/><circle cx="1838.64" cy="531.67" r="44.58" transform="translate(2705.46 2912.75) rotate(-86.43)" fill="#fff8a1"/><circle cx="1725.36" cy="549.32" r="44.58" transform="translate(2581.61 2816.24) rotate(-86.43)" fill="#fff8a1"/><circle cx="1614.17" cy="566.65" r="44.58" transform="translate(2460.05 2721.52) rotate(-86.43)" fill="#fff8a1"/><circle cx="1935.77" cy="404.57" r="44.58" transform="translate(2923.39 2890.51) rotate(-86.43)" fill="#fff8a1"/><circle cx="1821.54" cy="421.95" r="44.58" transform="translate(2798.93 2792.81) rotate(-86.43)" fill="#fff8a1"/><circle cx="1708.26" cy="439.61" r="44.58" transform="translate(2675.08 2696.3) rotate(-86.43)" fill="#fff8a1"/><circle cx="1597.07" cy="456.94" r="44.58" transform="translate(2553.52 2601.57) rotate(-86.43)" fill="#fff8a1"/><circle cx="1919.06" cy="297.34" r="44.58" transform="translate(3014.73 2773.29) rotate(-86.43)" fill="#fff8a1"/><circle cx="1804.83" cy="314.73" r="44.58" transform="translate(2890.27 2675.58) rotate(-86.43)" fill="#fff8a1"/><circle cx="1691.55" cy="332.38" r="44.58" transform="translate(2766.42 2579.08) rotate(-86.43)" fill="#fff8a1"/><circle cx="1580.36" cy="349.71" r="44.58" transform="translate(2644.87 2484.35) rotate(-86.43)" fill="#fff8a1"/><circle cx="1956.61" cy="522.88" r="44.58" transform="translate(2824.85 3022.26) rotate(-86.43)" fill="none" stroke="#041566" stroke-linecap="round" stroke-linejoin="round" stroke-width="10.09"/><circle cx="1842.39" cy="540.27" r="44.58" transform="translate(2700.39 2924.55) rotate(-86.43)" fill="none" stroke="#041566" stroke-linecap="round" stroke-linejoin="round" stroke-width="10.09"/><circle cx="1729.1" cy="557.92" r="44.58" transform="translate(2576.54 2828.04) rotate(-86.43)" fill="none" stroke="#041566" stroke-linecap="round" stroke-linejoin="round" stroke-width="10.09"/><circle cx="1617.91" cy="575.25" r="44.58" transform="translate(2454.98 2733.32) rotate(-86.43)" fill="none" stroke="#041566" stroke-linecap="round" stroke-linejoin="round" stroke-width="10.09"/><circle cx="1939.51" cy="413.17" r="44.58" transform="translate(2918.32 2902.31) rotate(-86.43)" fill="none" stroke="#041566" stroke-linecap="round" stroke-linejoin="round" stroke-width="10.09"/><circle cx="1825.29" cy="430.55" r="44.58" transform="translate(2793.86 2804.6) rotate(-86.43)" fill="none" stroke="#041566" stroke-linecap="round" stroke-linejoin="round" stroke-width="10.09"/><circle cx="1712" cy="448.2" r="44.58" transform="translate(2670.01 2708.09) rotate(-86.43)" fill="none" stroke="#041566" stroke-linecap="round" stroke-linejoin="round" stroke-width="10.09"/><circle cx="1600.81" cy="465.53" r="44.58" transform="translate(2548.45 2613.37) rotate(-86.43)" fill="none" stroke="#041566" stroke-linecap="round" stroke-linejoin="round" stroke-width="10.09"/><circle cx="1922.8" cy="305.94" r="44.58" transform="translate(3009.66 2785.09) rotate(-86.43)" fill="none" stroke="#041566" stroke-linecap="round" stroke-linejoin="round" stroke-width="10.09"/><circle cx="1808.58" cy="323.32" r="44.58" transform="translate(2885.2 2687.38) rotate(-86.43)" fill="none" stroke="#041566" stroke-linecap="round" stroke-linejoin="round" stroke-width="10.09"/><circle cx="1695.29" cy="340.98" r="44.58" transform="translate(2761.35 2590.87) rotate(-86.43)" fill="none" stroke="#041566" stroke-linecap="round" stroke-linejoin="round" stroke-width="10.09"/><circle cx="1584.1" cy="358.31" r="44.58" transform="translate(2639.8 2496.15) rotate(-86.43)" fill="none" stroke="#041566" stroke-linecap="round" stroke-linejoin="round" stroke-width="10.09"/></g><g id="Stadium"><path d="M2113,1158V619.07c-43.4,7.37-68.78,10.69-68.78,10.69l-15.14,37.86-257.41,42.9-20.19-27.76c-191.8,37.86-562.78,42.9-562.78,42.9l-20.19,30.28H913.62L890.9,720.61c-244.8,5-567.83-37.86-567.83-37.86l-17.67,22.71C214.56,695.37,48,662.56,48,662.56L25.28,629.76C-36.7,624.12-115.89,609-195,591v567Z" transform="translate(1512 579.14)" fill="#e0e0e0"/><path d="M1923,795C1237,899,561.76,882.15-130,744.47v32.77c385.75,76.07,765.08,114.48,1142.82,116.23,9.07,0,18.1.06,27.17.06,293.09,0,586.71-22,883-66.44Z" transform="translate(1512 579.14)" fill="#c4c6c6"/><path d="M-204,599.8c84.52,19.65,170.51,36.55,236.81,42.57l22.71,32.81S222.13,708,313,718.08l17.67-22.71s323,42.9,567.83,37.86l22.71,35.33h254.89l20.19-30.28s371-5,562.78-42.9l20.19,27.76,257.41-42.9,15.14-37.86s28.39-3.71,76.48-12" transform="translate(1512 579.14)" fill="none" stroke="#041566" stroke-linecap="round" stroke-linejoin="round" stroke-width="10.09"/><path d="M454.31,1111.78" transform="translate(1512 579.14)" fill="none" stroke="#023149" stroke-miterlimit="10" stroke-width="30.28"/><path d="M631.85,1359.84" transform="translate(1512 579.14)" fill="none" stroke="#023149" stroke-miterlimit="10" stroke-width="30.28"/><path d="M1317.41,1359.84" transform="translate(1512 579.14)" fill="none" stroke="#023149" stroke-miterlimit="10" stroke-width="30.28"/><path d="M1494.95,1111.78" transform="translate(1512 579.14)" fill="none" stroke="#023149" stroke-miterlimit="10" stroke-width="30.28"/><rect y="3295.14" width="281" height="282" fill="#fff200"/><rect x="281" y="3295.14" width="281" height="282" fill="#f9157c"/><rect x="562" y="3298.14" width="281" height="282" fill="#00adef"/><rect x="843" y="3293.14" width="281" height="282" fill="#686b6b"/><rect x="1124" y="3298.14" width="281" height="282" fill="#878787"/><polygon points="1391.54 1369.85 1384.42 1599.15 1523.16 1607.76 1534.13 1396.2 1391.54 1369.85" fill="#fff200"/><polygon points="1389.9 1422.74 1388.78 1458.69 1462.72 1383 1432.51 1377.42 1389.9 1422.74" fill="#fff" opacity="0.4"/><polygon points="1390.61 1399.75 1390.23 1412.13 1424.38 1375.92 1415.32 1374.24 1390.61 1399.75" fill="#fff" opacity="0.4"/><polyline points="1397.55 1372.59 1391.01 1606.41 1529.76 1615.02 1540.72 1398.42" fill="none" stroke="#041566" stroke-linecap="round" stroke-linejoin="round" stroke-width="7.85"/><polygon points="1525.32 1566.15 1526.92 1535.27 1445.21 1602.92 1480.08 1605.09 1525.32 1566.15" fill="#333" opacity="0.16"/><polygon points="1524.29 1586.16 1524.85 1575.31 1489.46 1605.67 1500.13 1606.33 1524.29 1586.16" fill="#333" opacity="0.16"/><path d="M1.32,923.56c-4.46,22.71-27.35,38.74-53,35.58-27.89-3.44-48.16-27.93-43-54.42s33.23-41.5,60.35-34.13C-9.36,877.36,5.78,900.85,1.32,923.56Z" transform="translate(1512 579.14)" fill="#fff"/><path d="M3.25,928.73c-4.46,22.71-27.35,38.74-53,35.58-27.89-3.44-48.16-27.93-43-54.42s33.23-41.5,60.35-34.13C-7.43,882.53,7.7,906,3.25,928.73Z" transform="translate(1512 579.14)" fill="none" stroke="#041566" stroke-linecap="round" stroke-linejoin="round" stroke-width="5.24"/><polygon points="1492.74 1511.68 1469.44 1496.62 1440.33 1502.42 1438.38 1492.61 1471.47 1486.02 1498.17 1503.29 1492.74 1511.68" fill="#fff200"/><polygon points="1495.83 1513.52 1472.53 1498.46 1443.42 1504.26 1441.46 1494.45 1474.56 1487.86 1501.26 1505.13 1495.83 1513.52" fill="none" stroke="#041566" stroke-miterlimit="10" stroke-width="3.14"/><path d="M-218.69,735.2C573.25,904.91,1342,917,2128.28,771.42" transform="translate(1512 579.14)" fill="none" stroke="#041566" stroke-linecap="round" stroke-linejoin="round" stroke-width="10.09"/><path d="M2128.28,803.83c-364.5,66.8-724.26,99.8-1083.23,99.8-9.07,0-18.1,0-27.17-.06-410.78-1.91-823.44-47.16-1244.2-137.05" transform="translate(1512 579.14)" fill="none" stroke="#041566" stroke-linecap="round" stroke-linejoin="round" stroke-width="10.09"/><circle cx="391.69" cy="2322.17" r="30" fill="#e0e0e0"/></g><g id="People"><path d="M3159.85,909" transform="translate(1512 579.14)" fill="none" stroke="#041566" stroke-linecap="round" stroke-linejoin="round" stroke-width="3.85"/><path d="M3159.87,909.29" transform="translate(1512 579.14)" fill="none" stroke="#041566" stroke-linecap="round" stroke-linejoin="round" stroke-width="3.85"/><path d="M3159.87,909.34" transform="translate(1512 579.14)" fill="none" stroke="#041566" stroke-linecap="round" stroke-linejoin="round" stroke-width="3.85"/><path d="M3241.64,869.55" transform="translate(1512 579.14)" fill="none" stroke="#041566" stroke-linecap="round" stroke-linejoin="round" stroke-width="3.85"/><path d="M3241.66,869.8" transform="translate(1512 579.14)" fill="none" stroke="#041566" stroke-linecap="round" stroke-linejoin="round" stroke-width="3.85"/><path d="M3241.66,869.85" transform="translate(1512 579.14)" fill="none" stroke="#041566" stroke-linecap="round" stroke-linejoin="round" stroke-width="3.85"/><path d="M416.15,1108.51" transform="translate(1512 579.14)" fill="none" stroke="#041566" stroke-linecap="round" stroke-linejoin="round" stroke-width="3.85"/><path d="M416.15,1108.76" transform="translate(1512 579.14)" fill="none" stroke="#041566" stroke-linecap="round" stroke-linejoin="round" stroke-width="3.85"/><path d="M416.15,1108.81" transform="translate(1512 579.14)" fill="none" stroke="#041566" stroke-linecap="round" stroke-linejoin="round" stroke-width="3.85"/><path d="M366.86,1096.66h72.58a0,0,0,0,1,0,0V1133a36.29,36.29,0,0,1-36.29,36.29h0A36.29,36.29,0,0,1,366.86,1133v-36.29A0,0,0,0,1,366.86,1096.66Z" transform="translate(2318.29 2845.04) rotate(-180)" fill="#878787"/><path d="M364,1098.58h72.58a0,0,0,0,1,0,0v36.29a36.29,36.29,0,0,1-36.29,36.29h0A36.29,36.29,0,0,1,364,1134.88v-36.29A0,0,0,0,1,364,1098.58Z" transform="translate(2312.52 2848.89) rotate(-180)" fill="none" stroke="#041566" stroke-linecap="round" stroke-linejoin="round" stroke-width="3.85"/><ellipse cx="1914.49" cy="1689.52" rx="15.88" ry="10.89" fill="#fafbff"/><ellipse cx="1914.49" cy="1688.25" rx="13.61" ry="9.07" fill="#e5c7a8"/><circle cx="1915.15" cy="1663.7" r="26.01" fill="#ffe0b6"/><path d="M405.19,1058.64c-.23.31-13,17.94-26.34,16.64a26,26,0,0,1,24.3-16.73C403.84,1058.56,404.52,1058.59,405.19,1058.64Z" transform="translate(1512 579.14)" fill="#333"/><path d="M389.77,1062.26A26,26,0,0,1,428,1076.88S405.11,1079.56,389.77,1062.26Z" transform="translate(1512 579.14)" fill="#333"/><path d="M327.07,1100.59" transform="translate(1512 579.14)" fill="none" stroke="#041566" stroke-linecap="round" stroke-linejoin="round" stroke-width="3.85"/><path d="M327.07,1100.84" transform="translate(1512 579.14)" fill="none" stroke="#041566" stroke-linecap="round" stroke-linejoin="round" stroke-width="3.85"/><path d="M327.07,1100.89" transform="translate(1512 579.14)" fill="none" stroke="#041566" stroke-linecap="round" stroke-linejoin="round" stroke-width="3.85"/><path d="M277.78,1088.74h72.58a0,0,0,0,1,0,0V1125a36.29,36.29,0,0,1-36.29,36.29h0A36.29,36.29,0,0,1,277.78,1125v-36.29A0,0,0,0,1,277.78,1088.74Z" transform="translate(2140.13 2829.21) rotate(-180)" fill="#f9157c"/><path d="M274.89,1090.67h72.58a0,0,0,0,1,0,0V1127a36.29,36.29,0,0,1-36.29,36.29h0A36.29,36.29,0,0,1,274.89,1127v-36.29a0,0,0,0,1,0,0Z" transform="translate(2134.36 2833.05) rotate(-180)" fill="none" stroke="#041566" stroke-linecap="round" stroke-linejoin="round" stroke-width="3.85"/><ellipse cx="1825.41" cy="1681.6" rx="15.88" ry="10.89" fill="#fafbff"/><ellipse cx="1825.41" cy="1680.33" rx="13.61" ry="9.07" fill="#e5c7a8"/><circle cx="1826.07" cy="1655.78" r="26.01" fill="#ffe0b6"/><path d="M316.11,1050.72c-.23.31-13,17.94-26.34,16.64a26,26,0,0,1,24.3-16.73C314.76,1050.64,315.44,1050.67,316.11,1050.72Z" transform="translate(1512 579.14)" fill="#333"/><path d="M300.69,1054.34A26,26,0,0,1,338.92,1069S316,1071.64,300.69,1054.34Z" transform="translate(1512 579.14)" fill="#333"/><ellipse cx="1738.31" cy="1667.74" rx="15.88" ry="10.89" fill="#fafbff"/><path d="M240,1086.73" transform="translate(1512 579.14)" fill="none" stroke="#041566" stroke-linecap="round" stroke-linejoin="round" stroke-width="3.85"/><path d="M240,1087" transform="translate(1512 579.14)" fill="none" stroke="#041566" stroke-linecap="round" stroke-linejoin="round" stroke-width="3.85"/><path d="M240,1087" transform="translate(1512 579.14)" fill="none" stroke="#041566" stroke-linecap="round" stroke-linejoin="round" stroke-width="3.85"/><path d="M190.67,1074.89h72.58a0,0,0,0,1,0,0v36.29A36.29,36.29,0,0,1,227,1147.47h0a36.29,36.29,0,0,1-36.29-36.29v-36.29A0,0,0,0,1,190.67,1074.89Z" transform="translate(1965.93 2801.49) rotate(-180)" fill="#fff200"/><ellipse cx="1738.31" cy="1666.48" rx="13.61" ry="9.07" fill="#e5c7a8"/><path d="M187.79,1076.81h72.58a0,0,0,0,1,0,0v36.29a36.29,36.29,0,0,1-36.29,36.29h0a36.29,36.29,0,0,1-36.29-36.29v-36.29A0,0,0,0,1,187.79,1076.81Z" transform="translate(1960.16 2805.34) rotate(-180)" fill="none" stroke="#041566" stroke-linecap="round" stroke-linejoin="round" stroke-width="3.85"/><circle cx="1738.97" cy="1641.93" r="26.01" fill="#ffe0b6"/><path d="M229,1036.87c-.23.31-13,17.94-26.34,16.64a26,26,0,0,1,24.3-16.73C227.66,1036.78,228.34,1036.82,229,1036.87Z" transform="translate(1512 579.14)" fill="#333"/><path d="M213.59,1040.48a26,26,0,0,1,38.23,14.62S228.93,1057.78,213.59,1040.48Z" transform="translate(1512 579.14)" fill="#333"/><path d="M146.93,1070.9" transform="translate(1512 579.14)" fill="none" stroke="#041566" stroke-linecap="round" stroke-linejoin="round" stroke-width="3.85"/><path d="M146.93,1071.15" transform="translate(1512 579.14)" fill="none" stroke="#041566" stroke-linecap="round" stroke-linejoin="round" stroke-width="3.85"/><path d="M146.93,1071.2" transform="translate(1512 579.14)" fill="none" stroke="#041566" stroke-linecap="round" stroke-linejoin="round" stroke-width="3.85"/><path d="M97.64,1059h72.58a0,0,0,0,1,0,0v36.29a36.29,36.29,0,0,1-36.29,36.29h0a36.29,36.29,0,0,1-36.29-36.29V1059A0,0,0,0,1,97.64,1059Z" transform="translate(1779.85 2769.82) rotate(-180)" fill="#00adef"/><path d="M94.75,1061h72.58a0,0,0,0,1,0,0v36.29A36.29,36.29,0,0,1,131,1133.56h0a36.29,36.29,0,0,1-36.29-36.29V1061a0,0,0,0,1,0,0Z" transform="translate(1774.08 2773.67) rotate(-180)" fill="none" stroke="#041566" stroke-linecap="round" stroke-linejoin="round" stroke-width="3.85"/><ellipse cx="1645.27" cy="1651.9" rx="15.88" ry="10.89" fill="#fafbff"/><ellipse cx="1645.27" cy="1650.64" rx="13.61" ry="9.07" fill="#e5c7a8"/><circle cx="1645.93" cy="1626.09" r="26.01" fill="#ffe0b6"/><path d="M136,1021c-.23.31-13,17.94-26.34,16.64a26,26,0,0,1,24.3-16.73C134.62,1020.94,135.3,1021,136,1021Z" transform="translate(1512 579.14)" fill="#333"/><path d="M120.55,1024.65a26,26,0,0,1,38.23,14.62S135.89,1041.95,120.55,1024.65Z" transform="translate(1512 579.14)" fill="#333"/><path d="M61.8,1039.22" transform="translate(1512 579.14)" fill="none" stroke="#041566" stroke-linecap="round" stroke-linejoin="round" stroke-width="3.85"/><path d="M61.81,1039.47" transform="translate(1512 579.14)" fill="none" stroke="#041566" stroke-linecap="round" stroke-linejoin="round" stroke-width="3.85"/><path d="M61.81,1039.53" transform="translate(1512 579.14)" fill="none" stroke="#041566" stroke-linecap="round" stroke-linejoin="round" stroke-width="3.85"/><path d="M420.3,1148.13h72.58a0,0,0,0,1,0,0v36.29a36.29,36.29,0,0,1-36.29,36.29h0a36.29,36.29,0,0,1-36.29-36.29v-36.29a0,0,0,0,1,0,0Z" transform="translate(2425.19 2947.98) rotate(-180)" fill="#f9157c"/><path d="M417.42,1150.05H490a0,0,0,0,1,0,0v36.29a36.29,36.29,0,0,1-36.29,36.29h0a36.29,36.29,0,0,1-36.29-36.29v-36.29a0,0,0,0,1,0,0Z" transform="translate(2419.42 2951.83) rotate(-180)" fill="none" stroke="#041566" stroke-linecap="round" stroke-linejoin="round" stroke-width="3.85"/><ellipse cx="1967.94" cy="1740.98" rx="15.88" ry="10.89" fill="#fafbff"/><ellipse cx="1967.94" cy="1739.72" rx="13.61" ry="9.07" fill="#e5c7a8"/><circle cx="1968.6" cy="1715.17" r="26.01" fill="#ffe0b6"/><path d="M458.64,1110.11c-.23.31-13,17.94-26.34,16.64A26,26,0,0,1,456.6,1110C457.28,1110,458,1110.06,458.64,1110.11Z" transform="translate(1512 579.14)" fill="#333"/><path d="M443.22,1113.73a26,26,0,0,1,38.23,14.62S458.56,1131,443.22,1113.73Z" transform="translate(1512 579.14)" fill="#333"/><path d="M321.33,1140.21h72.58a0,0,0,0,1,0,0v36.29a36.29,36.29,0,0,1-36.29,36.29h0a36.29,36.29,0,0,1-36.29-36.29v-36.29A0,0,0,0,1,321.33,1140.21Z" transform="translate(2227.23 2932.14) rotate(-180)" fill="#fff200"/><path d="M318.44,1142.13H391a0,0,0,0,1,0,0v36.29a36.29,36.29,0,0,1-36.29,36.29h0a36.29,36.29,0,0,1-36.29-36.29v-36.29A0,0,0,0,1,318.44,1142.13Z" transform="translate(2221.46 2935.99) rotate(-180)" fill="none" stroke="#041566" stroke-linecap="round" stroke-linejoin="round" stroke-width="3.85"/><ellipse cx="1868.96" cy="1733.07" rx="15.88" ry="10.89" fill="#fafbff"/><ellipse cx="1868.96" cy="1731.8" rx="13.61" ry="9.07" fill="#e5c7a8"/><circle cx="1869.62" cy="1707.25" r="26.01" fill="#ffe0b6"/><path d="M359.66,1102.19c-.23.31-13,17.94-26.34,16.64a26,26,0,0,1,24.3-16.73C358.31,1102.11,359,1102.14,359.66,1102.19Z" transform="translate(1512 579.14)" fill="#333"/><path d="M344.24,1105.81a26,26,0,0,1,38.23,14.62S359.58,1123.11,344.24,1105.81Z" transform="translate(1512 579.14)" fill="#333"/><path d="M228.29,1132.29h72.58a0,0,0,0,1,0,0v36.29a36.29,36.29,0,0,1-36.29,36.29h0a36.29,36.29,0,0,1-36.29-36.29v-36.29a0,0,0,0,1,0,0Z" transform="translate(2041.16 2916.31) rotate(-180)" fill="#878787"/><path d="M225.4,1134.22H298a0,0,0,0,1,0,0v36.29a36.29,36.29,0,0,1-36.29,36.29h0a36.29,36.29,0,0,1-36.29-36.29v-36.29a0,0,0,0,1,0,0Z" transform="translate(2035.39 2920.15) rotate(-180)" fill="none" stroke="#041566" stroke-linecap="round" stroke-linejoin="round" stroke-width="3.85"/><ellipse cx="1775.92" cy="1725.15" rx="15.88" ry="10.89" fill="#fafbff"/><ellipse cx="1775.92" cy="1723.88" rx="13.61" ry="9.07" fill="#e5c7a8"/><circle cx="1776.58" cy="1699.33" r="26.01" fill="#ffe0b6"/><path d="M266.62,1094.28c-.23.31-13,17.94-26.34,16.64a26,26,0,0,1,24.3-16.73C265.27,1094.19,265.95,1094.22,266.62,1094.28Z" transform="translate(1512 579.14)" fill="#333"/><path d="M251.2,1097.89a26,26,0,0,1,38.23,14.62S266.54,1115.19,251.2,1097.89Z" transform="translate(1512 579.14)" fill="#333"/><path d="M135.25,1112.5h72.58a0,0,0,0,1,0,0v36.29a36.29,36.29,0,0,1-36.29,36.29h0a36.29,36.29,0,0,1-36.29-36.29V1112.5A0,0,0,0,1,135.25,1112.5Z" transform="translate(1855.08 2876.72) rotate(-180)" fill="#f9157c"/><path d="M132.36,1114.42h72.58a0,0,0,0,1,0,0v36.29A36.29,36.29,0,0,1,168.65,1187h0a36.29,36.29,0,0,1-36.29-36.29v-36.29A0,0,0,0,1,132.36,1114.42Z" transform="translate(1849.31 2880.56) rotate(-180)" fill="none" stroke="#041566" stroke-linecap="round" stroke-linejoin="round" stroke-width="3.85"/><ellipse cx="1682.88" cy="1705.35" rx="15.88" ry="10.89" fill="#fafbff"/><ellipse cx="1682.88" cy="1704.09" rx="13.61" ry="9.07" fill="#e5c7a8"/><circle cx="1683.54" cy="1679.54" r="26.01" fill="#ffe0b6"/><path d="M173.58,1074.48c-.23.31-13,17.94-26.34,16.64a26,26,0,0,1,24.3-16.73C172.23,1074.39,172.91,1074.43,173.58,1074.48Z" transform="translate(1512 579.14)" fill="#333"/><path d="M158.16,1078.1a26,26,0,0,1,38.23,14.62S173.5,1095.4,158.16,1078.1Z" transform="translate(1512 579.14)" fill="#333"/><path d="M44.19,1084.78h72.58a0,0,0,0,1,0,0v36.29a36.29,36.29,0,0,1-36.29,36.29h0a36.29,36.29,0,0,1-36.29-36.29v-36.29a0,0,0,0,1,0,0Z" transform="translate(1672.96 2821.29) rotate(-180)" fill="#fff200"/><path d="M41.3,1086.71h72.58a0,0,0,0,1,0,0V1123a36.29,36.29,0,0,1-36.29,36.29h0A36.29,36.29,0,0,1,41.3,1123v-36.29A0,0,0,0,1,41.3,1086.71Z" transform="translate(1667.19 2825.13) rotate(-180)" fill="none" stroke="#041566" stroke-linecap="round" stroke-linejoin="round" stroke-width="3.85"/><ellipse cx="1591.82" cy="1677.64" rx="15.88" ry="10.89" fill="#fafbff"/><ellipse cx="1591.82" cy="1676.37" rx="13.61" ry="9.07" fill="#e5c7a8"/><circle cx="1592.48" cy="1651.82" r="26.01" fill="#ffe0b6"/><path d="M82.52,1046.77c-.23.31-13,17.94-26.34,16.64a26,26,0,0,1,24.3-16.73C81.17,1046.68,81.85,1046.71,82.52,1046.77Z" transform="translate(1512 579.14)" fill="#333"/><path d="M67.1,1050.38A26,26,0,0,1,105.33,1065S82.44,1067.68,67.1,1050.38Z" transform="translate(1512 579.14)" fill="#333"/><path d="M364.88,1187.72h72.58a0,0,0,0,1,0,0V1224a36.29,36.29,0,0,1-36.29,36.29h0A36.29,36.29,0,0,1,364.88,1224v-36.29A0,0,0,0,1,364.88,1187.72Z" transform="translate(2314.33 3027.16) rotate(-180)" fill="#878787"/><path d="M362,1189.64h72.58a0,0,0,0,1,0,0v36.29a36.29,36.29,0,0,1-36.29,36.29h0A36.29,36.29,0,0,1,362,1225.94v-36.29a0,0,0,0,1,0,0Z" transform="translate(2308.57 3031.01) rotate(-180)" fill="none" stroke="#041566" stroke-linecap="round" stroke-linejoin="round" stroke-width="3.85"/><ellipse cx="1912.51" cy="1780.58" rx="15.88" ry="10.89" fill="#fafbff"/><ellipse cx="1912.51" cy="1779.31" rx="13.61" ry="9.07" fill="#e5c7a8"/><circle cx="1913.17" cy="1754.76" r="26.01" fill="#ffe0b6"/><path d="M403.21,1149.7c-.23.31-13,17.94-26.34,16.64a26,26,0,0,1,24.3-16.73C401.86,1149.62,402.54,1149.65,403.21,1149.7Z" transform="translate(1512 579.14)" fill="#333"/><path d="M387.79,1153.32A26,26,0,0,1,426,1167.94S403.13,1170.62,387.79,1153.32Z" transform="translate(1512 579.14)" fill="#333"/><path d="M260,1181.78h72.58a0,0,0,0,1,0,0v36.29a36.29,36.29,0,0,1-36.29,36.29h0A36.29,36.29,0,0,1,260,1218.07v-36.29A0,0,0,0,1,260,1181.78Z" transform="translate(2104.5 3015.28) rotate(-180)" fill="#00adef"/><path d="M257.07,1183.71h72.58a0,0,0,0,1,0,0V1220a36.29,36.29,0,0,1-36.29,36.29h0A36.29,36.29,0,0,1,257.07,1220v-36.29A0,0,0,0,1,257.07,1183.71Z" transform="translate(2098.73 3019.13) rotate(-180)" fill="none" stroke="#041566" stroke-linecap="round" stroke-linejoin="round" stroke-width="3.85"/><ellipse cx="1807.59" cy="1774.64" rx="15.88" ry="10.89" fill="#fafbff"/><ellipse cx="1807.59" cy="1773.37" rx="13.61" ry="9.07" fill="#e5c7a8"/><circle cx="1808.25" cy="1748.82" r="26.01" fill="#ffe0b6"/><path d="M298.3,1143.76c-.23.31-13,17.94-26.34,16.64a26,26,0,0,1,24.3-16.73C296.94,1143.68,297.62,1143.71,298.3,1143.76Z" transform="translate(1512 579.14)" fill="#333"/><path d="M282.87,1147.38A26,26,0,0,1,321.1,1162S298.21,1164.68,282.87,1147.38Z" transform="translate(1512 579.14)" fill="#333"/><path d="M170.88,1171.88h72.58a0,0,0,0,1,0,0v36.29a36.29,36.29,0,0,1-36.29,36.29h0a36.29,36.29,0,0,1-36.29-36.29v-36.29a0,0,0,0,1,0,0Z" transform="translate(1926.34 2995.49) rotate(-180)" fill="#fff200"/><path d="M168,1173.81h72.58a0,0,0,0,1,0,0v36.29a36.29,36.29,0,0,1-36.29,36.29h0A36.29,36.29,0,0,1,168,1210.1v-36.29A0,0,0,0,1,168,1173.81Z" transform="translate(1920.57 2999.33) rotate(-180)" fill="none" stroke="#041566" stroke-linecap="round" stroke-linejoin="round" stroke-width="3.85"/><ellipse cx="1718.51" cy="1764.74" rx="15.88" ry="10.89" fill="#fafbff"/><ellipse cx="1718.51" cy="1763.48" rx="13.61" ry="9.07" fill="#e5c7a8"/><circle cx="1719.17" cy="1738.92" r="26.01" fill="#ffe0b6"/><path d="M209.22,1133.87c-.23.31-13,17.94-26.34,16.64a26,26,0,0,1,24.3-16.73C207.86,1133.78,208.54,1133.81,209.22,1133.87Z" transform="translate(1512 579.14)" fill="#333"/><path d="M193.79,1137.48A26,26,0,0,1,232,1152.1S209.13,1154.78,193.79,1137.48Z" transform="translate(1512 579.14)" fill="#333"/><path d="M79.82,1148.13H152.4a0,0,0,0,1,0,0v36.29a36.29,36.29,0,0,1-36.29,36.29h0a36.29,36.29,0,0,1-36.29-36.29v-36.29a0,0,0,0,1,0,0Z" transform="translate(1744.22 2947.98) rotate(-180)" fill="#f9157c"/><path d="M76.93,1150.05h72.58a0,0,0,0,1,0,0v36.29a36.29,36.29,0,0,1-36.29,36.29h0a36.29,36.29,0,0,1-36.29-36.29v-36.29a0,0,0,0,1,0,0Z" transform="translate(1738.45 2951.83) rotate(-180)" fill="none" stroke="#041566" stroke-linecap="round" stroke-linejoin="round" stroke-width="3.85"/><ellipse cx="1627.45" cy="1740.98" rx="15.88" ry="10.89" fill="#fafbff"/><ellipse cx="1627.45" cy="1739.72" rx="13.61" ry="9.07" fill="#e5c7a8"/><circle cx="1628.11" cy="1715.17" r="26.01" fill="#ffe0b6"/><path d="M118.16,1110.11c-.23.31-13,17.94-26.34,16.64a26,26,0,0,1,24.3-16.73C116.8,1110,117.48,1110.06,118.16,1110.11Z" transform="translate(1512 579.14)" fill="#333"/><path d="M102.73,1113.73A26,26,0,0,1,141,1128.34S118.07,1131,102.73,1113.73Z" transform="translate(1512 579.14)" fill="#333"/><path d="M400.51,1219.39h72.58a0,0,0,0,1,0,0v36.29A36.29,36.29,0,0,1,436.8,1292h0a36.29,36.29,0,0,1-36.29-36.29v-36.29A0,0,0,0,1,400.51,1219.39Z" transform="translate(2385.6 3090.51) rotate(-180)" fill="#fff200"/><path d="M397.62,1221.32h72.58a0,0,0,0,1,0,0v36.29a36.29,36.29,0,0,1-36.29,36.29h0a36.29,36.29,0,0,1-36.29-36.29v-36.29a0,0,0,0,1,0,0Z" transform="translate(2379.83 3094.35) rotate(-180)" fill="none" stroke="#041566" stroke-linecap="round" stroke-linejoin="round" stroke-width="3.85"/><ellipse cx="1948.14" cy="1812.25" rx="15.88" ry="10.89" fill="#fafbff"/><ellipse cx="1948.14" cy="1810.98" rx="13.61" ry="9.07" fill="#e5c7a8"/><circle cx="1948.8" cy="1786.43" r="26.01" fill="#ffe0b6"/><path d="M438.84,1181.38c-.23.31-13,17.94-26.34,16.64a26,26,0,0,1,24.3-16.73C437.49,1181.29,438.17,1181.32,438.84,1181.38Z" transform="translate(1512 579.14)" fill="#333"/><path d="M423.42,1185a26,26,0,0,1,38.23,14.62S438.76,1202.29,423.42,1185Z" transform="translate(1512 579.14)" fill="#333"/><path d="M309.45,1209.5H382a0,0,0,0,1,0,0v36.29a36.29,36.29,0,0,1-36.29,36.29h0a36.29,36.29,0,0,1-36.29-36.29V1209.5A0,0,0,0,1,309.45,1209.5Z" transform="translate(2203.48 3070.71) rotate(-180)" fill="#f9157c"/><path d="M306.56,1211.42h72.58a0,0,0,0,1,0,0v36.29A36.29,36.29,0,0,1,342.85,1284h0a36.29,36.29,0,0,1-36.29-36.29v-36.29A0,0,0,0,1,306.56,1211.42Z" transform="translate(2197.71 3074.56) rotate(-180)" fill="none" stroke="#041566" stroke-linecap="round" stroke-linejoin="round" stroke-width="3.85"/><ellipse cx="1857.08" cy="1802.35" rx="15.88" ry="10.89" fill="#fafbff"/><ellipse cx="1857.08" cy="1801.09" rx="13.61" ry="9.07" fill="#e5c7a8"/><circle cx="1857.74" cy="1776.54" r="26.01" fill="#ffe0b6"/><path d="M347.78,1171.48c-.23.31-13,17.94-26.34,16.64a26,26,0,0,1,24.3-16.73C346.43,1171.39,347.11,1171.43,347.78,1171.48Z" transform="translate(1512 579.14)" fill="#333"/><path d="M332.36,1175.09a26,26,0,0,1,38.23,14.62S347.7,1192.39,332.36,1175.09Z" transform="translate(1512 579.14)" fill="#333"/><path d="M-35.31,1058.12H37.27a0,0,0,0,1,0,0v36.29A36.29,36.29,0,0,1,1,1130.7H1a36.29,36.29,0,0,1-36.29-36.29v-36.29A0,0,0,0,1-35.31,1058.12Z" transform="translate(1513.96 2767.96) rotate(-180)" fill="#00adef"/><path d="M-38.2,1060H34.39a0,0,0,0,1,0,0v36.29A36.29,36.29,0,0,1-1.9,1132.63h0a36.29,36.29,0,0,1-36.29-36.29V1060A0,0,0,0,1-38.2,1060Z" transform="translate(1508.19 2771.81) rotate(-180)" fill="none" stroke="#041566" stroke-linecap="round" stroke-linejoin="round" stroke-width="3.85"/><ellipse cx="1512.32" cy="1650.98" rx="15.88" ry="10.89" fill="#fafbff"/><ellipse cx="1512.32" cy="1649.71" rx="13.61" ry="9.07" fill="#e5c7a8"/><circle cx="1512.98" cy="1625.16" r="26.01" fill="#ffe0b6"/><path d="M3,1020.1c-.23.31-13,17.94-26.34,16.64A26,26,0,0,1,1,1020C1.67,1020,2.35,1020.05,3,1020.1Z" transform="translate(1512 579.14)" fill="#333"/><path d="M-12.4,1023.72A25.88,25.88,0,0,1,1,1020a26,26,0,0,1,24.85,18.32S2.94,1041-12.4,1023.72Z" transform="translate(1512 579.14)" fill="#333"/><path d="M111.06,1191.88h72.58a0,0,0,0,1,0,0v36.29a36.29,36.29,0,0,1-36.29,36.29h0a36.29,36.29,0,0,1-36.29-36.29v-36.29A0,0,0,0,1,111.06,1191.88Z" transform="translate(1806.71 3035.47) rotate(-180)" fill="#00adef"/><path d="M108.18,1193.8h72.58a0,0,0,0,1,0,0v36.29a36.29,36.29,0,0,1-36.29,36.29h0a36.29,36.29,0,0,1-36.29-36.29V1193.8A0,0,0,0,1,108.18,1193.8Z" transform="translate(1800.94 3039.32) rotate(-180)" fill="none" stroke="#041566" stroke-linecap="round" stroke-linejoin="round" stroke-width="3.85"/><ellipse cx="1658.69" cy="1784.73" rx="15.88" ry="10.89" fill="#fafbff"/><ellipse cx="1658.69" cy="1783.47" rx="13.61" ry="9.07" fill="#e5c7a8"/><circle cx="1659.35" cy="1758.92" r="26.01" fill="#ffe0b6"/><path d="M149.4,1153.86c-.23.31-13,17.94-26.34,16.64a26,26,0,0,1,24.3-16.73C148,1153.77,148.72,1153.81,149.4,1153.86Z" transform="translate(1512 579.14)" fill="#333"/><path d="M134,1157.48a26,26,0,0,1,38.23,14.62S149.32,1174.78,134,1157.48Z" transform="translate(1512 579.14)" fill="#333"/><path d="M1568.08,1093.36" transform="translate(1512 579.14)" fill="none" stroke="#041566" stroke-linecap="round" stroke-linejoin="round" stroke-width="3.85"/><path d="M1568.07,1093.62" transform="translate(1512 579.14)" fill="none" stroke="#041566" stroke-linecap="round" stroke-linejoin="round" stroke-width="3.85"/><path d="M1568.07,1093.67" transform="translate(1512 579.14)" fill="none" stroke="#041566" stroke-linecap="round" stroke-linejoin="round" stroke-width="3.85"/><path d="M3093.08,1660.66h0a36.29,36.29,0,0,1,36.29,36.29v36.29a0,0,0,0,1,0,0h-72.58a0,0,0,0,1,0,0v-36.29A36.29,36.29,0,0,1,3093.08,1660.66Z" fill="#878787"/><path d="M3096,1662.58h0a36.29,36.29,0,0,1,36.29,36.29v36.29a0,0,0,0,1,0,0h-72.58a0,0,0,0,1,0,0v-36.29A36.29,36.29,0,0,1,3096,1662.58Z" fill="none" stroke="#041566" stroke-linecap="round" stroke-linejoin="round" stroke-width="3.85"/><ellipse cx="3093.74" cy="1674.37" rx="15.88" ry="10.89" fill="#fafbff"/><ellipse cx="3093.74" cy="1673.11" rx="13.61" ry="9.07" fill="#e5c7a8"/><circle cx="3093.08" cy="1648.56" r="26.01" fill="#ffe0b6"/><path d="M1579,1043.5c.23.31,13,17.94,26.34,16.64a26,26,0,0,0-24.3-16.73C1580.39,1043.41,1579.71,1043.45,1579,1043.5Z" transform="translate(1512 579.14)" fill="#333"/><path d="M1594.46,1047.12a26,26,0,0,0-38.23,14.62S1579.12,1064.42,1594.46,1047.12Z" transform="translate(1512 579.14)" fill="#333"/><path d="M1657.16,1085.45" transform="translate(1512 579.14)" fill="none" stroke="#041566" stroke-linecap="round" stroke-linejoin="round" stroke-width="3.85"/><path d="M1657.15,1085.7" transform="translate(1512 579.14)" fill="none" stroke="#041566" stroke-linecap="round" stroke-linejoin="round" stroke-width="3.85"/><path d="M1657.15,1085.75" transform="translate(1512 579.14)" fill="none" stroke="#041566" stroke-linecap="round" stroke-linejoin="round" stroke-width="3.85"/><path d="M3182.16,1652.74h0a36.29,36.29,0,0,1,36.29,36.29v36.29a0,0,0,0,1,0,0h-72.58a0,0,0,0,1,0,0V1689a36.29,36.29,0,0,1,36.29-36.29Z" fill="#f9157c"/><path d="M3185,1654.66h0a36.29,36.29,0,0,1,36.29,36.29v36.29a0,0,0,0,1,0,0h-72.58a0,0,0,0,1,0,0V1691A36.29,36.29,0,0,1,3185,1654.66Z" fill="none" stroke="#041566" stroke-linecap="round" stroke-linejoin="round" stroke-width="3.85"/><ellipse cx="3182.82" cy="1666.46" rx="15.88" ry="10.89" fill="#fafbff"/><ellipse cx="3182.82" cy="1665.19" rx="13.61" ry="9.07" fill="#e5c7a8"/><circle cx="3182.16" cy="1640.64" r="26.01" fill="#ffe0b6"/><path d="M1668.11,1035.58c.23.31,13,17.94,26.34,16.64a26,26,0,0,0-24.3-16.73C1669.47,1035.5,1668.79,1035.53,1668.11,1035.58Z" transform="translate(1512 579.14)" fill="#333"/><path d="M1683.54,1039.2a26,26,0,0,0-38.23,14.62S1668.2,1056.5,1683.54,1039.2Z" transform="translate(1512 579.14)" fill="#333"/><ellipse cx="3269.92" cy="1652.6" rx="15.88" ry="10.89" fill="#fafbff"/><path d="M1744.26,1071.59" transform="translate(1512 579.14)" fill="none" stroke="#041566" stroke-linecap="round" stroke-linejoin="round" stroke-width="3.85"/><path d="M1744.25,1071.84" transform="translate(1512 579.14)" fill="none" stroke="#041566" stroke-linecap="round" stroke-linejoin="round" stroke-width="3.85"/><path d="M1744.25,1071.89" transform="translate(1512 579.14)" fill="none" stroke="#041566" stroke-linecap="round" stroke-linejoin="round" stroke-width="3.85"/><path d="M3269.26,1638.88h0a36.29,36.29,0,0,1,36.29,36.29v36.29a0,0,0,0,1,0,0H3233a0,0,0,0,1,0,0v-36.29A36.29,36.29,0,0,1,3269.26,1638.88Z" fill="#fff200"/><ellipse cx="3269.92" cy="1651.33" rx="13.61" ry="9.07" fill="#e5c7a8"/><path d="M3272.14,1640.8h0a36.29,36.29,0,0,1,36.29,36.29v36.29a0,0,0,0,1,0,0h-72.58a0,0,0,0,1,0,0V1677.1A36.29,36.29,0,0,1,3272.14,1640.8Z" fill="none" stroke="#041566" stroke-linecap="round" stroke-linejoin="round" stroke-width="3.85"/><circle cx="3269.26" cy="1626.78" r="26.01" fill="#ffe0b6"/><path d="M1755.21,1021.73c.23.31,13,17.94,26.34,16.64a26,26,0,0,0-24.3-16.73C1756.57,1021.64,1755.89,1021.67,1755.21,1021.73Z" transform="translate(1512 579.14)" fill="#333"/><path d="M1770.64,1025.34a26,26,0,0,0-38.23,14.62S1755.3,1042.64,1770.64,1025.34Z" transform="translate(1512 579.14)" fill="#333"/><path d="M1837.3,1055.75" transform="translate(1512 579.14)" fill="none" stroke="#041566" stroke-linecap="round" stroke-linejoin="round" stroke-width="3.85"/><path d="M1837.29,1056" transform="translate(1512 579.14)" fill="none" stroke="#041566" stroke-linecap="round" stroke-linejoin="round" stroke-width="3.85"/><path d="M1837.29,1056.06" transform="translate(1512 579.14)" fill="none" stroke="#041566" stroke-linecap="round" stroke-linejoin="round" stroke-width="3.85"/><path d="M3324.69,1676.49h0a36.29,36.29,0,0,1,36.29,36.29v36.29a0,0,0,0,1,0,0h-72.58a0,0,0,0,1,0,0v-36.29A36.29,36.29,0,0,1,3324.69,1676.49Z" fill="#f9157c"/><path d="M3327.57,1678.42h0a36.29,36.29,0,0,1,36.29,36.29V1751a0,0,0,0,1,0,0h-72.58a0,0,0,0,1,0,0v-36.29A36.29,36.29,0,0,1,3327.57,1678.42Z" fill="none" stroke="#041566" stroke-linecap="round" stroke-linejoin="round" stroke-width="3.85"/><ellipse cx="3325.35" cy="1690.21" rx="15.88" ry="10.89" fill="#fafbff"/><ellipse cx="3325.35" cy="1688.95" rx="13.61" ry="9.07" fill="#e5c7a8"/><circle cx="3324.69" cy="1664.4" r="26.01" fill="#ffe0b6"/><path d="M1810.64,1059.34c.23.31,13,17.94,26.34,16.64a26,26,0,0,0-24.3-16.73C1812,1059.25,1811.32,1059.28,1810.64,1059.34Z" transform="translate(1512 579.14)" fill="#333"/><path d="M1826.07,1063a26,26,0,0,0-38.23,14.62S1810.72,1080.25,1826.07,1063Z" transform="translate(1512 579.14)" fill="#333"/><path d="M306.87,1357.08" transform="translate(1512 579.14)" fill="none" stroke="#041566" stroke-linecap="round" stroke-linejoin="round" stroke-width="3.85"/><path d="M306.88,1357.33" transform="translate(1512 579.14)" fill="none" stroke="#041566" stroke-linecap="round" stroke-linejoin="round" stroke-width="3.85"/><path d="M306.88,1357.38" transform="translate(1512 579.14)" fill="none" stroke="#041566" stroke-linecap="round" stroke-linejoin="round" stroke-width="3.85"/><path d="M221.31,1326.62" transform="translate(1512 579.14)" fill="none" stroke="#041566" stroke-linecap="round" stroke-linejoin="round" stroke-width="3.85"/><path d="M221.32,1326.87" transform="translate(1512 579.14)" fill="none" stroke="#041566" stroke-linecap="round" stroke-linejoin="round" stroke-width="3.85"/><path d="M221.32,1326.92" transform="translate(1512 579.14)" fill="none" stroke="#041566" stroke-linecap="round" stroke-linejoin="round" stroke-width="3.85"/><path d="M1411.2,1378.25" transform="translate(1512 579.14)" fill="none" stroke="#041566" stroke-linecap="round" stroke-linejoin="round" stroke-width="3.85"/><path d="M1411.19,1378.51" transform="translate(1512 579.14)" fill="none" stroke="#041566" stroke-linecap="round" stroke-linejoin="round" stroke-width="3.85"/><path d="M1411.19,1378.56" transform="translate(1512 579.14)" fill="none" stroke="#041566" stroke-linecap="round" stroke-linejoin="round" stroke-width="3.85"/><path d="M1500.39,1371.6" transform="translate(1512 579.14)" fill="none" stroke="#041566" stroke-linecap="round" stroke-linejoin="round" stroke-width="3.85"/><path d="M1500.38,1371.85" transform="translate(1512 579.14)" fill="none" stroke="#041566" stroke-linecap="round" stroke-linejoin="round" stroke-width="3.85"/><path d="M1500.38,1371.9" transform="translate(1512 579.14)" fill="none" stroke="#041566" stroke-linecap="round" stroke-linejoin="round" stroke-width="3.85"/><path d="M1587.67,1359" transform="translate(1512 579.14)" fill="none" stroke="#041566" stroke-linecap="round" stroke-linejoin="round" stroke-width="3.85"/><path d="M1587.67,1359.23" transform="translate(1512 579.14)" fill="none" stroke="#041566" stroke-linecap="round" stroke-linejoin="round" stroke-width="3.85"/><path d="M1587.67,1359.28" transform="translate(1512 579.14)" fill="none" stroke="#041566" stroke-linecap="round" stroke-linejoin="round" stroke-width="3.85"/><rect x="88.66" y="985.86" width="380.79" height="205.49" transform="translate(1569.94 565.91) rotate(3.03)" fill="#fff200"/><rect x="94.97" y="993.43" width="380.79" height="205.49" transform="matrix(1, 0.05, -0.05, 1, 1570.35, 565.58)" fill="none" stroke="#041566" stroke-linecap="round" stroke-linejoin="round" stroke-width="7.39"/><text transform="matrix(1, 0.05, -0.05, 1, 1648.26, 1702.17)" font-size="123.43" fill="#00adef" font-family="CollegeBold, CollegeBold">BOSM</text><text transform="matrix(1, 0.05, -0.05, 1, 1652.05, 1708.48)" font-size="123.43" fill="none" stroke="#041566" stroke-linecap="round" stroke-linejoin="round" stroke-width="7.39" font-family="CollegeBold, CollegeBold">BOSM</text></g><g id="Stairs"><rect x="2313.68" y="1662.73" width="379.11" height="48.28" fill="#f4f4f4"/><rect x="2430.55" y="1569.63" width="145.37" height="95.14" fill="#686868"/><path d="M991.13,839.31c-174,0-318.36-20.06-345.78-46.36,21.38,39.28,116.3,193.73,298.14,217.42a368.4,368.4,0,0,0,47.64,3.06c213,0,322.62-177.92,345.78-220.48C1309.48,819.25,1165.12,839.31,991.13,839.31Z" transform="translate(1512 579.14)" fill="#e0e0e0"/><path d="M923.6,1012.48" transform="translate(1512 579.14)" fill="none" stroke="#041566" stroke-linecap="round" stroke-linejoin="round" stroke-width="8.18"/><polyline points="2582.23 1589.22 2582.23 1666.31 2436.86 1666.31 2436.86 1588.9" fill="none" stroke="#041566" stroke-linecap="round" stroke-linejoin="round" stroke-width="8.18"/><ellipse cx="2503.13" cy="1363" rx="350.5" ry="55.45" fill="#bababa"/><path d="M817,742.52s3.71,59.76,64.44,160.67" transform="translate(1512 579.14)" fill="none" stroke="#041566" stroke-linecap="round" stroke-linejoin="round" stroke-width="5.05"/><line x1="2505.82" y1="1313.86" x2="2505.82" y2="1424.76" fill="none" stroke="#041566" stroke-linecap="round" stroke-linejoin="round" stroke-width="5.05"/><path d="M1148,742.52s-3.71,59.76-64.44,160.67" transform="translate(1512 579.14)" fill="none" stroke="#041566" stroke-linecap="round" stroke-linejoin="round" stroke-width="5.05"/><path d="M929.59,18s-239.25,100-187,352.35S699,566.1,681.65,561.75s-52.2-78.3,0-130.5c0,0-95.7,82.65-82.65,169.65s52.2,174,147.9,234.9,217.5,87,395.85,52.2,213.15-191.4,213.15-234.9,4.35-160.95-56.55-234.9c0,0,4.35,213.15-69.6,204.45s-95.7-104.4-65.25-213.15,17.4-239.25-108.75-282.75c0,0,21.75,160.95-78.3,160.95S855.65,126.75,929.59,18Z" transform="translate(1512 579.14)" fill="#f78e2a"/><path d="M953,910s-102-7-143-99-16-201,13-229c0,0,5,47,36,65,0,0-19-209,150-256,0,0-28,43,42,151s51,166,51,166,6-46,37-73a219.65,219.65,0,0,1,18-14s-8,32,0,84-33,123-52,144-33,45-82,53S953,910,953,910Z" transform="translate(1512 579.14)" fill="#fff200"/><path d="M991.13,839.31c-174,0-318.36-20.06-345.78-46.36,23.16,42.56,132.74,220.48,345.78,220.48S1313.74,835.51,1336.91,793C1309.48,819.25,1165.12,839.31,991.13,839.31Z" transform="translate(1512 579.14)" fill="#e0e0e0"/><polyline points="2606.15 1713.44 2627.59 1621.09 2732.24 2038.02 2695.65 2190.41" fill="none" stroke="#041566" stroke-linecap="round" stroke-linejoin="round" stroke-width="7.39"/><polyline points="2409.04 1713.93 2387.48 1621.09 2282.83 2038.02 2319.42 2190.41" fill="none" stroke="#041566" stroke-linecap="round" stroke-linejoin="round" stroke-width="7.39"/><path d="M1079.15,1196.45" transform="translate(1512 579.14)" fill="none" stroke="#041566" stroke-linecap="round" stroke-linejoin="round" stroke-width="7.39"/><path d="M1115.75,1044.06" transform="translate(1512 579.14)" fill="none" stroke="#041566" stroke-linecap="round" stroke-linejoin="round" stroke-width="7.39"/><line x1="2393.48" y1="1646.93" x2="2292.81" y2="2067.33" fill="none" stroke="#041566" stroke-linecap="round" stroke-linejoin="round" stroke-width="7.39"/><line x1="2622.92" y1="1650.99" x2="2723.59" y2="2071.39" fill="none" stroke="#041566" stroke-linecap="round" stroke-linejoin="round" stroke-width="7.39"/><path d="M680.78,813.85" transform="translate(1512 579.14)" fill="#041566"/><path d="M1346.88,790.17" transform="translate(1512 579.14)" fill="none" stroke="#041566" stroke-linecap="round" stroke-linejoin="round" stroke-width="7.54"/><path d="M1342.44,798.76" transform="translate(1512 579.14)" fill="none" stroke="#041566" stroke-linecap="round" stroke-linejoin="round" stroke-width="7.54"/><path d="M645.89,790.17s108.52,229.57,350.5,229.57c211.75,0,321.3-175.8,345.37-219.72" transform="translate(1512 579.14)" fill="none" stroke="#041566" stroke-linecap="round" stroke-linejoin="round" stroke-width="7.54"/><path d="M1021.89,1010.56H965.51l2-45.85a5.2,5.2,0,0,1,5.42-4.67h41.55a5.2,5.2,0,0,1,5.42,4.67Z" transform="translate(1512 579.14)" fill="#bababa"/><path d="M1012.79,1060.59h-37.2a5.93,5.93,0,0,1-6.14-5.09l-3.94-45.43h56.38l-3,45.32A5.91,5.91,0,0,1,1012.79,1060.59Z" transform="translate(1512 579.14)" fill="#9d9fa0"/><path d="M1321.33,769.34c16.48,6.43,25.55,13.46,25.55,20.82,0,30.63-156.92,55.45-350.5,55.45s-350.5-24.83-350.5-55.45c0-7.35,9-14.37,25.48-20.8" transform="translate(1512 579.14)" fill="none" stroke="#041566" stroke-linecap="round" stroke-linejoin="round" stroke-width="7.54"/><path d="M1022.14,1010.81H965.76l2-45.85a5.2,5.2,0,0,1,5.42-4.67h41.55a5.2,5.2,0,0,1,5.42,4.67Z" transform="translate(1512 579.14)" fill="none" stroke="#041566" stroke-linecap="round" stroke-linejoin="round" stroke-width="6.08"/><path d="M1013,1060.83h-37.2a5.93,5.93,0,0,1-6.14-5.09l-3.94-45.43h56.38l-3,45.32A5.91,5.91,0,0,1,1013,1060.83Z" transform="translate(1512 579.14)" fill="none" stroke="#041566" stroke-linecap="round" stroke-linejoin="round" stroke-width="6.08"/><rect x="2316.2" y="1666.52" width="379.11" height="43.85" fill="none" stroke="#041566" stroke-linecap="round" stroke-linejoin="round" stroke-width="7.8"/><path d="M1218.3,556.07s-45.52-67.17-14.09-111.82c17.24-26.43,16.73-47.54,16.49-57.29,0,0,41.91,52.63,20.31,100.29C1224,521.8,1218.1,547.95,1218.3,556.07Z" transform="translate(1512 579.14)" fill="#f78e2a"/></g><g id="Shine"><rect x="1587.34" y="-198.1" width="262.52" height="1231.3" transform="translate(2109.68 -371.33) rotate(37.01)" opacity="0.34" fill="url(#linear-gradient)"/><rect x="676.11" y="-375.78" width="262.52" height="1231.3" transform="translate(1819.1 141.43) rotate(37.01)" opacity="0.34" fill="url(#linear-gradient-2)"/><rect x="160.91" y="-642.32" width="140.01" height="1231.3" transform="translate(1542.48 434.75) rotate(37.01)" opacity="0.34" fill="url(#linear-gradient-3)"/><rect x="136.9" y="-682.13" width="70" height="1231.3" transform="translate(1506.62 462.26) rotate(37.01)" opacity="0.34" fill="url(#linear-gradient-4)"/><rect x="1843.38" y="-77.48" width="70.43" height="1231.3" transform="translate(2214.54 -443.35) rotate(37.01)" opacity="0.34" fill="url(#linear-gradient-5)"/><rect x="1904.79" y="281.27" width="70.43" height="1231.3" transform="translate(2442.88 -408.02) rotate(37.01)" opacity="0.34" fill="url(#linear-gradient-6)"/><rect x="1855.99" y="303.64" width="44.54" height="1231.3" transform="translate(2443.91 -366.34) rotate(37.01)" opacity="0.34" fill="url(#linear-gradient-7)"/><rect x="569.14" y="-455.3" width="70.43" height="1231.3" transform="translate(1730.31 247.62) rotate(37.01)" opacity="0.34" fill="url(#linear-gradient-8)"/><rect x="545.26" y="-470.51" width="50.03" height="1231.3" transform="translate(1714.29 265.08) rotate(37.01)" opacity="0.34" fill="url(#linear-gradient-9)"/></g></svg>