<svg xmlns="http://www.w3.org/2000/svg" viewBox="0 0 1920 1080">
  <defs>
    <style>
      .\34 0ad09f6-dc5d-4799-9fa0-889df3083f15 {
        fill: #b0e9ff;
      }

      .a8ffa5a8-a2eb-4540-aea4-3079c2e9b515 {
        fill: #ffc610;
      }

      .\30 6f26e04-27f6-4d5b-b84d-059145008718, .\33 1fbbea3-ff84-40a0-a00a-fa9117fc2d4e, .\33 7e69382-23c6-4eff-a04e-5002d8ddce28, .\33 d9d22e1-cb07-4912-b392-e7b98390df39, .\36 3884622-55f1-4676-9ae8-53de3c2ca2c5, .\36 814e7d2-9764-4146-9a76-89445dd6a5b8, .\36 86610d1-35a3-412a-b853-02902ccdecc7, .\38 d1d4e41-cbed-4519-9071-a4bc663c9a53, .\39 ee931d2-66a7-47fb-aaf4-dcc315ba0e0a, .b139dd1d-4a67-4c4e-a5ed-70bc2b073cda, .daea0f6e-68cc-4355-906e-7c7bf906ae56, .ef7c047f-0d1e-406d-80ae-612c74909197 {
        fill: none;
        stroke: #041566;
        stroke-linecap: round;
      }

      .\36 3884622-55f1-4676-9ae8-53de3c2ca2c5 {
        stroke-miterlimit: 10;
      }

      .\33 7e69382-23c6-4eff-a04e-5002d8ddce28, .\36 3884622-55f1-4676-9ae8-53de3c2ca2c5 {
        stroke-width: 10.09px;
      }

      .c1c4ec3c-4758-426a-8b96-040a8ad3127e {
        fill: #fff;
      }

      .\30 6f26e04-27f6-4d5b-b84d-059145008718, .\33 1fbbea3-ff84-40a0-a00a-fa9117fc2d4e, .\33 7e69382-23c6-4eff-a04e-5002d8ddce28, .\33 d9d22e1-cb07-4912-b392-e7b98390df39, .\36 814e7d2-9764-4146-9a76-89445dd6a5b8, .\36 86610d1-35a3-412a-b853-02902ccdecc7, .\38 d1d4e41-cbed-4519-9071-a4bc663c9a53, .\39 ee931d2-66a7-47fb-aaf4-dcc315ba0e0a, .b139dd1d-4a67-4c4e-a5ed-70bc2b073cda, .daea0f6e-68cc-4355-906e-7c7bf906ae56, .ef7c047f-0d1e-406d-80ae-612c74909197 {
        stroke-linejoin: round;
      }

      .\39 306b480-d866-4576-9239-34f6ee7464f6 {
        fill: #041566;
      }

      .aeea04ea-d7c7-4a76-b41c-5557360add31 {
        fill: #fafbff;
      }

      .da10d5b7-677f-47a4-b9f0-57b4abd990f0 {
        fill: #fff8a1;
      }

      .\38 e957fd0-6c6a-4b89-ac2b-9c71e149e29a {
        fill: #dedee0;
      }

      .\30 6f26e04-27f6-4d5b-b84d-059145008718 {
        stroke-width: 8.76px;
      }

      .eaf75765-3037-4c7b-a6d6-f3ebf4d7e775 {
        fill: #e0e0e0;
      }

      .d614a534-02b6-4492-a370-57b80ab7a959 {
        fill: #c4c6c6;
      }

      .aa98ef20-95ce-44a0-93ef-297f41cc9dea {
        fill: #fff200;
      }

      .ef7c047f-0d1e-406d-80ae-612c74909197 {
        stroke-width: 7.85px;
      }

      .e97f1136-c43e-438f-889e-4ecd3d6da409, .fee5425d-3c08-4f12-b499-9edf8b7d380f {
        fill: #333;
      }

      .fee5425d-3c08-4f12-b499-9edf8b7d380f {
        opacity: 0.16;
      }

      .b139dd1d-4a67-4c4e-a5ed-70bc2b073cda {
        stroke-width: 5.24px;
      }

      .f0d854f3-184d-45fc-bb33-2857c0c4163d {
        fill: #ffe0b6;
      }

      .\37 484eb1f-245c-4c0c-a9ef-ae68b3c15cc5 {
        fill: #e5c7a8;
      }

      .\39 ee931d2-66a7-47fb-aaf4-dcc315ba0e0a {
        stroke-width: 3.85px;
      }

      .c1129771-7cf5-4bb1-bf67-dc6ffb23098c {
        fill: #00adef;
      }

      .\34 4a89216-8cee-4e7c-b157-346ca7eb7c0c {
        fill: #f9157c;
      }

      .\36 814e7d2-9764-4146-9a76-89445dd6a5b8 {
        stroke-width: 7.39px;
      }

      .\33 1fbbea3-ff84-40a0-a00a-fa9117fc2d4e {
        stroke-width: 7.39px;
      }

      .\32 88ad9e4-b9a2-4896-95b4-e99e6b132169 {
        fill: #686868;
      }

      .\36 86610d1-35a3-412a-b853-02902ccdecc7 {
        stroke-width: 8.18px;
      }

      .f3e3b6e7-9068-4565-9668-52f88291205b {
        fill: #bababa;
      }

      .\33 d9d22e1-cb07-4912-b392-e7b98390df39 {
        stroke-width: 5.05px;
      }

      .\34 329a3f5-90f1-47b5-835b-9493ca8a6d69 {
        fill: #f78e2a;
      }

      .\38 d1d4e41-cbed-4519-9071-a4bc663c9a53 {
        stroke-width: 7.54px;
      }

      .\38 784fa31-b710-44e9-8f3a-bcaf2e4bb33d {
        fill: #9d9fa0;
      }

      .daea0f6e-68cc-4355-906e-7c7bf906ae56 {
        stroke-width: 6.08px;
      }
    </style>
  </defs>
  <title>zoom</title>
  <g id="84c091d4-584a-4c6b-97ed-0a48c7bd0d2e" data-name="Sky">
    <rect class="40ad09f6-dc5d-4799-9fa0-889df3083f15" width="1919" height="957.83"/>
    <path class="a8ffa5a8-a2eb-4540-aea4-3079c2e9b515" d="M1778.49,0H1472.56a169,169,0,1,0,305.93,0Z"/>
    <path class="63884622-55f1-4676-9ae8-53de3c2ca2c5" d="M1783.67.46A169,169,0,1,1,1487.83,0"/>
    <path class="c1c4ec3c-4758-426a-8b96-040a8ad3127e" d="M1919,58.27A134.45,134.45,0,0,0,1716.39,131a76.12,76.12,0,0,0-102,59.32,64.14,64.14,0,0,0-58-.58c-7.93-36.31-42.52-63.64-84-63.64-33.76,0-62.94,18.11-76.92,44.42a64.53,64.53,0,0,0-89.18,90.71l-7.81.27S997.47,295.36,984,311.3l122.51-1.4,812.53-.68Z"/>
    <path class="37e69382-23c6-4eff-a04e-5002d8ddce28" d="M1920,64.26a134.51,134.51,0,0,0-196,76.8,76.12,76.12,0,0,0-102,59.32,64.14,64.14,0,0,0-58-.58c-7.93-36.31-42.52-63.64-84-63.64-33.76,0-62.94,18.11-76.92,44.42a64.53,64.53,0,0,0-89.18,90.71l-7.81.27S1005,305.45,991.54,321.39L1114,320l806-.68"/>
    <g>
      <path class="9306b480-d866-4576-9239-34f6ee7464f6" d="M1483.87,520.48a3.57,3.57,0,0,1-1.26-.23l-34.32-12.87a3.6,3.6,0,1,1,2.52-6.74l34.32,12.87a3.6,3.6,0,0,1-1.26,7Z"/>
      <path class="9306b480-d866-4576-9239-34f6ee7464f6" d="M1460.28,531.21a3.6,3.6,0,0,1-3.37-4.86L1469.78,492a3.6,3.6,0,0,1,6.74,2.53l-12.87,34.32A3.6,3.6,0,0,1,1460.28,531.21Z"/>
    </g>
    <g>
      <path class="c1c4ec3c-4758-426a-8b96-040a8ad3127e" d="M1904.23,31.26A3.58,3.58,0,0,1,1903,31l-34.32-12.87a3.6,3.6,0,1,1,2.53-6.74l34.32,12.87a3.6,3.6,0,0,1-1.26,7Z"/>
      <path class="c1c4ec3c-4758-426a-8b96-040a8ad3127e" d="M1880.64,42a3.6,3.6,0,0,1-3.37-4.86L1890.14,2.8a3.6,3.6,0,0,1,6.74,2.53L1884,39.64A3.6,3.6,0,0,1,1880.64,42Z"/>
    </g>
    <path class="9306b480-d866-4576-9239-34f6ee7464f6" d="M154,172.73A15.94,15.94,0,1,1,170,156.79,16,16,0,0,1,154,172.73Zm0-24.68a8.74,8.74,0,1,0,8.74,8.74A8.75,8.75,0,0,0,154,148.05Z"/>
    <path class="c1c4ec3c-4758-426a-8b96-040a8ad3127e" d="M588.06,366.47A15.94,15.94,0,1,1,604,350.53,16,16,0,0,1,588.06,366.47Zm0-24.68a8.74,8.74,0,1,0,8.74,8.74A8.75,8.75,0,0,0,588.06,341.79Z"/>
    <path class="9306b480-d866-4576-9239-34f6ee7464f6" d="M417.14,88.33a3.6,3.6,0,0,1-3.41-2.44L409.5,73.4l-12.61,6.66a3.6,3.6,0,0,1-5-1.7L384.15,61.1a3.6,3.6,0,1,1,6.56-3l6.2,13.77,13-6.84a3.6,3.6,0,0,1,5.08,2l4.34,12.77,14.21-6.27a3.6,3.6,0,0,1,2.9,6.58L418.6,88A3.6,3.6,0,0,1,417.14,88.33Z"/>
  </g>
  <g id="60554569-3319-4556-9ea1-3b77651d0662" data-name="Flood Lights">
    <polygon class="aeea04ea-d7c7-4a76-b41c-5557360add31" points="5.51 214.42 0 241.72 0 578.74 409.64 661.38 480.48 310.25 5.51 214.42"/>
    <polygon class="aeea04ea-d7c7-4a76-b41c-5557360add31" points="1920 227.25 1500.65 292.95 1555.32 646.91 1920 589.78 1920 227.25"/>
    <path class="da10d5b7-677f-47a4-b9f0-57b4abd990f0" d="M1920,252.79a44.57,44.57,0,0,0-3.72,89.05c1.25.08,2.49.09,3.72.07Z"/>
    <rect class="8e957fd0-6c6a-4b89-ac2b-9c71e149e29a" x="17.99" y="574.77" width="17.67" height="183.37" transform="translate(132.33 7.86) rotate(11.41)"/>
    <path class="da10d5b7-677f-47a4-b9f0-57b4abd990f0" d="M1920,362.88a44.58,44.58,0,0,0,0,83.4Z"/>
    <path class="da10d5b7-677f-47a4-b9f0-57b4abd990f0" d="M1920,484.19a44.54,44.54,0,0,0,0,60.19Z"/>
    <rect class="8e957fd0-6c6a-4b89-ac2b-9c71e149e29a" x="265.03" y="627.23" width="17.67" height="237.23" transform="translate(152.91 -39.43) rotate(11.41)"/>
    <polyline class="06f26e04-27f6-4d5b-b84d-059145008718" points="57.2 598.17 22.94 768 5.62 764.51 39.85 594.86"/>
    <polyline class="37e69382-23c6-4eff-a04e-5002d8ddce28" points="309.58 651.12 264.11 876.48 246.8 872.99 292.63 645.8"/>
    <rect class="8e957fd0-6c6a-4b89-ac2b-9c71e149e29a" x="1691.87" y="619.34" width="17.67" height="237.23" transform="translate(3494.63 1205.72) rotate(171.16)"/>
    <polyline class="37e69382-23c6-4eff-a04e-5002d8ddce28" points="1683.53 640 1717.66 859.37 1735.11 856.65 1700.88 636.6"/>
    <polyline class="37e69382-23c6-4eff-a04e-5002d8ddce28" points="2.82 278.77 13.9 223.84 488.88 319.67 418.04 670.8 -3.52 585.75"/>
    <circle class="da10d5b7-677f-47a4-b9f0-57b4abd990f0" cx="18.81" cy="511.12" r="44.58" transform="translate(-8.98 0.41) rotate(-1.01)"/>
    <circle class="da10d5b7-677f-47a4-b9f0-57b4abd990f0" cx="132.15" cy="533.6" r="44.58" transform="translate(-9.36 2.41) rotate(-1.01)"/>
    <circle class="da10d5b7-677f-47a4-b9f0-57b4abd990f0" cx="244.53" cy="556.3" r="44.58" transform="translate(-9.74 4.39) rotate(-1.01)"/>
    <circle class="da10d5b7-677f-47a4-b9f0-57b4abd990f0" cx="354.83" cy="578.59" r="44.58" transform="translate(-10.12 6.33) rotate(-1.01)"/>
    <circle class="da10d5b7-677f-47a4-b9f0-57b4abd990f0" cx="40.81" cy="402.28" r="44.58" transform="translate(-7.07 0.78) rotate(-1.01)"/>
    <circle class="da10d5b7-677f-47a4-b9f0-57b4abd990f0" cx="154.14" cy="424.76" r="44.58" transform="translate(-7.44 2.78) rotate(-1.01)"/>
    <circle class="da10d5b7-677f-47a4-b9f0-57b4abd990f0" cx="266.52" cy="447.46" r="44.58" transform="translate(-7.83 4.75) rotate(-1.01)"/>
    <circle class="da10d5b7-677f-47a4-b9f0-57b4abd990f0" cx="376.82" cy="469.75" r="44.58" transform="translate(-8.2 6.7) rotate(-1.01)"/>
    <circle class="da10d5b7-677f-47a4-b9f0-57b4abd990f0" cx="62.3" cy="295.91" r="44.58" transform="translate(-5.19 1.14) rotate(-1.01)"/>
    <circle class="da10d5b7-677f-47a4-b9f0-57b4abd990f0" cx="175.63" cy="318.39" r="44.58" transform="translate(-5.57 3.14) rotate(-1.01)"/>
    <circle class="da10d5b7-677f-47a4-b9f0-57b4abd990f0" cx="288.01" cy="341.09" r="44.58" transform="translate(-5.95 5.12) rotate(-1.01)"/>
    <circle class="da10d5b7-677f-47a4-b9f0-57b4abd990f0" cx="398.31" cy="363.38" r="44.58" transform="translate(-6.33 7.06) rotate(-1.01)"/>
    <circle class="37e69382-23c6-4eff-a04e-5002d8ddce28" cx="22.26" cy="519.54" r="44.58" transform="translate(-9.13 0.47) rotate(-1.01)"/>
    <circle class="37e69382-23c6-4eff-a04e-5002d8ddce28" cx="135.6" cy="542.02" r="44.58" transform="translate(-9.51 2.47) rotate(-1.01)"/>
    <circle class="37e69382-23c6-4eff-a04e-5002d8ddce28" cx="247.98" cy="564.73" r="44.58" transform="translate(-9.89 4.45) rotate(-1.01)"/>
    <circle class="37e69382-23c6-4eff-a04e-5002d8ddce28" cx="358.28" cy="587.01" r="44.58" transform="translate(-10.27 6.39) rotate(-1.01)"/>
    <circle class="37e69382-23c6-4eff-a04e-5002d8ddce28" cx="44.25" cy="410.7" r="44.58" transform="translate(-7.21 0.84) rotate(-1.01)"/>
    <circle class="37e69382-23c6-4eff-a04e-5002d8ddce28" cx="157.59" cy="433.18" r="44.58" transform="translate(-7.59 2.84) rotate(-1.01)"/>
    <circle class="37e69382-23c6-4eff-a04e-5002d8ddce28" cx="269.97" cy="455.88" r="44.58" transform="translate(-7.97 4.82) rotate(-1.01)"/>
    <circle class="37e69382-23c6-4eff-a04e-5002d8ddce28" cx="380.27" cy="478.17" r="44.58" transform="translate(-8.35 6.76) rotate(-1.01)"/>
    <circle class="37e69382-23c6-4eff-a04e-5002d8ddce28" cx="65.74" cy="304.33" r="44.58" transform="translate(-5.34 1.2) rotate(-1.01)"/>
    <circle class="37e69382-23c6-4eff-a04e-5002d8ddce28" cx="179.08" cy="326.81" r="44.58" transform="translate(-5.72 3.2) rotate(-1.01)"/>
    <circle class="37e69382-23c6-4eff-a04e-5002d8ddce28" cx="291.46" cy="349.51" r="44.58" transform="translate(-6.1 5.18) rotate(-1.01)"/>
    <circle class="37e69382-23c6-4eff-a04e-5002d8ddce28" cx="401.76" cy="371.8" r="44.58" transform="translate(-6.47 7.12) rotate(-1.01)"/>
    <polyline class="37e69382-23c6-4eff-a04e-5002d8ddce28" points="1920.24 239.39 1512.01 302.89 1567.07 656.85 1920 601.95"/>
    <circle class="da10d5b7-677f-47a4-b9f0-57b4abd990f0" cx="1838.64" cy="531.67" r="44.58" transform="translate(1193.46 2333.62) rotate(-86.43)"/>
    <circle class="da10d5b7-677f-47a4-b9f0-57b4abd990f0" cx="1725.36" cy="549.32" r="44.58" transform="translate(1069.61 2237.11) rotate(-86.43)"/>
    <circle class="da10d5b7-677f-47a4-b9f0-57b4abd990f0" cx="1614.17" cy="566.65" r="44.58" transform="translate(948.05 2142.39) rotate(-86.43)"/>
    <circle class="da10d5b7-677f-47a4-b9f0-57b4abd990f0" cx="1821.54" cy="421.95" r="44.58" transform="translate(1286.93 2213.67) rotate(-86.43)"/>
    <circle class="da10d5b7-677f-47a4-b9f0-57b4abd990f0" cx="1708.26" cy="439.61" r="44.58" transform="translate(1163.08 2117.16) rotate(-86.43)"/>
    <circle class="da10d5b7-677f-47a4-b9f0-57b4abd990f0" cx="1597.07" cy="456.94" r="44.58" transform="translate(1041.52 2022.44) rotate(-86.43)"/>
    <circle class="da10d5b7-677f-47a4-b9f0-57b4abd990f0" cx="1804.83" cy="314.73" r="44.58" transform="translate(1378.27 2096.45) rotate(-86.43)"/>
    <circle class="da10d5b7-677f-47a4-b9f0-57b4abd990f0" cx="1691.55" cy="332.38" r="44.58" transform="translate(1254.42 1999.94) rotate(-86.43)"/>
    <circle class="da10d5b7-677f-47a4-b9f0-57b4abd990f0" cx="1580.36" cy="349.71" r="44.58" transform="translate(1132.87 1905.22) rotate(-86.43)"/>
    <path class="37e69382-23c6-4eff-a04e-5002d8ddce28" d="M1920,497.45a44.6,44.6,0,0,0,.25,51.2"/>
    <circle class="37e69382-23c6-4eff-a04e-5002d8ddce28" cx="1842.39" cy="540.27" r="44.58" transform="translate(1188.39 2345.41) rotate(-86.43)"/>
    <circle class="37e69382-23c6-4eff-a04e-5002d8ddce28" cx="1729.1" cy="557.92" r="44.58" transform="translate(1064.54 2248.9) rotate(-86.43)"/>
    <circle class="37e69382-23c6-4eff-a04e-5002d8ddce28" cx="1617.91" cy="575.25" r="44.58" transform="translate(942.98 2154.18) rotate(-86.43)"/>
    <path class="37e69382-23c6-4eff-a04e-5002d8ddce28" d="M1920.24,373a44.59,44.59,0,0,0,0,80.41"/>
    <circle class="37e69382-23c6-4eff-a04e-5002d8ddce28" cx="1825.29" cy="430.55" r="44.58" transform="translate(1281.86 2225.47) rotate(-86.43)"/>
    <circle class="37e69382-23c6-4eff-a04e-5002d8ddce28" cx="1712" cy="448.2" r="44.58" transform="translate(1158.01 2128.96) rotate(-86.43)"/>
    <circle class="37e69382-23c6-4eff-a04e-5002d8ddce28" cx="1600.81" cy="465.53" r="44.58" transform="translate(1036.45 2034.23) rotate(-86.43)"/>
    <path class="37e69382-23c6-4eff-a04e-5002d8ddce28" d="M1920.24,261.43a44.58,44.58,0,0,0-.22,89"/>
    <circle class="37e69382-23c6-4eff-a04e-5002d8ddce28" cx="1808.58" cy="323.32" r="44.58" transform="translate(1373.2 2108.24) rotate(-86.43)"/>
    <circle class="37e69382-23c6-4eff-a04e-5002d8ddce28" cx="1695.29" cy="340.98" r="44.58" transform="translate(1249.35 2011.73) rotate(-86.43)"/>
    <circle class="37e69382-23c6-4eff-a04e-5002d8ddce28" cx="1584.1" cy="358.31" r="44.58" transform="translate(1127.8 1917.01) rotate(-86.43)"/>
  </g>
  <g id="fb4f7e86-af14-4872-a78e-e42bedb91842" data-name="Stadium">
    <path class="eaf75765-3037-4c7b-a6d6-f3ebf4d7e775" d="M0,800.83V1083H1920V685.79l-148.33,24.72-20.19-27.76c-191.8,37.86-562.78,42.9-562.78,42.9l-20.19,30.28H913.62L890.9,720.61c-244.8,5-567.83-37.86-567.83-37.86l-17.67,22.71C214.56,695.37,48,662.56,48,662.56L25.28,629.76C17.14,629,8.7,628.11,0,627.05v11.68"/>
    <path class="d614a534-02b6-4492-a370-57b80ab7a959" d="M0,801.53c340.55,60,676.47,90.39,1011.15,91.95,9.06,0,18.08.06,27.13.06,292.66,0,585.85-22,881.71-66.44V795C1278,892.47,645.51,883.79,0,769"/>
    <path class="37e69382-23c6-4eff-a04e-5002d8ddce28" d="M0,638.73c11.39,1.47,22.37,2.69,32.85,3.64l22.71,32.81S222.13,708,313,718.08l17.67-22.71s323,42.9,567.83,37.86l22.71,35.33h254.89l20.19-30.28s371-5,562.78-42.9l20.19,27.76,145.25-24.21"/>
    <polyline class="aa98ef20-95ce-44a0-93ef-297f41cc9dea" points="0 901.67 0 1028 11.16 1028.62 22.13 817.06 0 813 0 901.67"/>
    <polyline class="ef7c047f-0d1e-406d-80ae-612c74909197" points="0 1034.78 17.76 1035.88 28.72 819.28"/>
    <polyline class="fee5425d-3c08-4f12-b499-9edf8b7d380f" points="0 998.48 13.32 987.02 14.92 956.14 0 968.49"/>
    <polyline class="fee5425d-3c08-4f12-b499-9edf8b7d380f" points="0 1017.28 12.29 1007.03 12.85 996.18 0 1007.2"/>
    <path class="b139dd1d-4a67-4c4e-a5ed-70bc2b073cda" d="M0,902.62a42.75,42.75,0,0,1,3.24,26.11,41.49,41.49,0,0,1-3,9.37"/>
    <path class="37e69382-23c6-4eff-a04e-5002d8ddce28" d="M0,778.16c645.57,115.2,1278.09,124.6,1920,28.19"/>
    <path class="37e69382-23c6-4eff-a04e-5002d8ddce28" d="M1919,838.55c-293.22,43.53-583.85,65.08-874,65.08-9.07,0-18.1,0-27.17-.06C681,902,342.84,871.3,0,810.71"/>
  </g>
  <g id="3e1482cc-1566-4348-8184-d51abc8fc93e" data-name="People">
    <g>
      <circle class="f0d854f3-184d-45fc-bb33-2857c0c4163d" cx="403.15" cy="1084.56" r="26.01"/>
      <path class="e97f1136-c43e-438f-889e-4ecd3d6da409" d="M405.19,1058.64c-.23.31-13,17.94-26.34,16.64a26,26,0,0,1,24.3-16.73C403.84,1058.56,404.52,1058.59,405.19,1058.64Z"/>
      <path class="e97f1136-c43e-438f-889e-4ecd3d6da409" d="M389.77,1062.26A26,26,0,0,1,428,1076.88S405.11,1079.56,389.77,1062.26Z"/>
    </g>
    <g>
      <circle class="f0d854f3-184d-45fc-bb33-2857c0c4163d" cx="314.07" cy="1076.65" r="26.01"/>
      <path class="e97f1136-c43e-438f-889e-4ecd3d6da409" d="M316.11,1050.72c-.23.31-13,17.94-26.34,16.64a26,26,0,0,1,24.3-16.73C314.76,1050.64,315.44,1050.67,316.11,1050.72Z"/>
      <path class="e97f1136-c43e-438f-889e-4ecd3d6da409" d="M300.69,1054.34A26,26,0,0,1,338.92,1069S316,1071.64,300.69,1054.34Z"/>
    </g>
    <ellipse class="aeea04ea-d7c7-4a76-b41c-5557360add31" cx="226.31" cy="1088.6" rx="15.88" ry="10.89"/>
    <g>
      <path class="aa98ef20-95ce-44a0-93ef-297f41cc9dea" d="M190.67,1074.89h72.58a0,0,0,0,1,0,0v36.29A36.29,36.29,0,0,1,227,1147.47h0a36.29,36.29,0,0,1-36.29-36.29v-36.29A0,0,0,0,1,190.67,1074.89Z" transform="translate(453.93 2222.35) rotate(-180)"/>
      <ellipse class="7484eb1f-245c-4c0c-a9ef-ae68b3c15cc5" cx="226.31" cy="1087.34" rx="13.61" ry="9.07"/>
      <path class="9ee931d2-66a7-47fb-aaf4-dcc315ba0e0a" d="M187.79,1076.81h72.58a0,0,0,0,1,0,0v36.29a36.29,36.29,0,0,1-36.29,36.29h0a36.29,36.29,0,0,1-36.29-36.29v-36.29A0,0,0,0,1,187.79,1076.81Z" transform="translate(448.16 2226.2) rotate(-180)"/>
      <circle class="f0d854f3-184d-45fc-bb33-2857c0c4163d" cx="226.97" cy="1062.79" r="26.01"/>
      <path class="e97f1136-c43e-438f-889e-4ecd3d6da409" d="M229,1036.87c-.23.31-13,17.94-26.34,16.64a26,26,0,0,1,24.3-16.73C227.66,1036.78,228.34,1036.82,229,1036.87Z"/>
      <path class="e97f1136-c43e-438f-889e-4ecd3d6da409" d="M213.59,1040.48a26,26,0,0,1,38.23,14.62S228.93,1057.78,213.59,1040.48Z"/>
    </g>
    <g>
      <path class="c1129771-7cf5-4bb1-bf67-dc6ffb23098c" d="M97.64,1059h72.58a0,0,0,0,1,0,0v36.29a36.29,36.29,0,0,1-36.29,36.29h0a36.29,36.29,0,0,1-36.29-36.29V1059A0,0,0,0,1,97.64,1059Z" transform="translate(267.85 2190.68) rotate(-180)"/>
      <path class="9ee931d2-66a7-47fb-aaf4-dcc315ba0e0a" d="M94.75,1061h72.58a0,0,0,0,1,0,0v36.29A36.29,36.29,0,0,1,131,1133.56h0a36.29,36.29,0,0,1-36.29-36.29V1061a0,0,0,0,1,0,0Z" transform="translate(262.08 2194.53) rotate(-180)"/>
      <ellipse class="aeea04ea-d7c7-4a76-b41c-5557360add31" cx="133.27" cy="1072.77" rx="15.88" ry="10.89"/>
      <ellipse class="7484eb1f-245c-4c0c-a9ef-ae68b3c15cc5" cx="133.27" cy="1071.5" rx="13.61" ry="9.07"/>
      <circle class="f0d854f3-184d-45fc-bb33-2857c0c4163d" cx="133.93" cy="1046.95" r="26.01"/>
      <path class="e97f1136-c43e-438f-889e-4ecd3d6da409" d="M136,1021c-.23.31-13,17.94-26.34,16.64a26,26,0,0,1,24.3-16.73C134.62,1020.94,135.3,1021,136,1021Z"/>
      <path class="e97f1136-c43e-438f-889e-4ecd3d6da409" d="M120.55,1024.65a26,26,0,0,1,38.23,14.62S135.89,1041.95,120.55,1024.65Z"/>
    </g>
    <circle class="f0d854f3-184d-45fc-bb33-2857c0c4163d" cx="171.54" cy="1100.4" r="26.01"/>
    <path class="e97f1136-c43e-438f-889e-4ecd3d6da409" d="M173.58,1074.48c-.23.31-13,17.94-26.34,16.64a26,26,0,0,1,24.3-16.73C172.23,1074.39,172.91,1074.43,173.58,1074.48Z"/>
    <path class="e97f1136-c43e-438f-889e-4ecd3d6da409" d="M158.16,1078.1a26,26,0,0,1,38.23,14.62S173.5,1095.4,158.16,1078.1Z"/>
    <circle class="f0d854f3-184d-45fc-bb33-2857c0c4163d" cx="80.48" cy="1072.69" r="26.01"/>
    <path class="e97f1136-c43e-438f-889e-4ecd3d6da409" d="M82.52,1046.77c-.23.31-13,17.94-26.34,16.64a26,26,0,0,1,24.3-16.73C81.17,1046.68,81.85,1046.71,82.52,1046.77Z"/>
    <path class="e97f1136-c43e-438f-889e-4ecd3d6da409" d="M67.1,1050.38A26,26,0,0,1,105.33,1065S82.44,1067.68,67.1,1050.38Z"/>
    <path class="c1129771-7cf5-4bb1-bf67-dc6ffb23098c" d="M34.42,1080.29A36.3,36.3,0,0,0,1,1058.12H0V1080Z"/>
    <path class="9ee931d2-66a7-47fb-aaf4-dcc315ba0e0a" d="M30.47,1079.92A36.3,36.3,0,0,0,0,1060.09"/>
    <g>
      <circle class="f0d854f3-184d-45fc-bb33-2857c0c4163d" cx="1581.08" cy="1069.42" r="26.01"/>
      <path class="e97f1136-c43e-438f-889e-4ecd3d6da409" d="M1579,1043.5c.23.31,13,17.94,26.34,16.64a26,26,0,0,0-24.3-16.73C1580.39,1043.41,1579.71,1043.45,1579,1043.5Z"/>
      <path class="e97f1136-c43e-438f-889e-4ecd3d6da409" d="M1594.46,1047.12a26,26,0,0,0-38.23,14.62S1579.12,1064.42,1594.46,1047.12Z"/>
    </g>
    <g>
      <path class="44a89216-8cee-4e7c-b157-346ca7eb7c0c" d="M1670.16,1073.6h0a36.29,36.29,0,0,1,36.29,36.29v36.29a0,0,0,0,1,0,0h-72.58a0,0,0,0,1,0,0v-36.29A36.29,36.29,0,0,1,1670.16,1073.6Z"/>
      <path class="9ee931d2-66a7-47fb-aaf4-dcc315ba0e0a" d="M1673,1075.52h0a36.29,36.29,0,0,1,36.29,36.29v36.29a0,0,0,0,1,0,0h-72.58a0,0,0,0,1,0,0v-36.29A36.29,36.29,0,0,1,1673,1075.52Z"/>
      <ellipse class="aeea04ea-d7c7-4a76-b41c-5557360add31" cx="1670.82" cy="1087.32" rx="15.88" ry="10.89"/>
      <ellipse class="7484eb1f-245c-4c0c-a9ef-ae68b3c15cc5" cx="1670.82" cy="1086.05" rx="13.61" ry="9.07"/>
      <circle class="f0d854f3-184d-45fc-bb33-2857c0c4163d" cx="1670.16" cy="1061.5" r="26.01"/>
      <path class="e97f1136-c43e-438f-889e-4ecd3d6da409" d="M1668.11,1035.58c.23.31,13,17.94,26.34,16.64a26,26,0,0,0-24.3-16.73C1669.47,1035.5,1668.79,1035.53,1668.11,1035.58Z"/>
      <path class="e97f1136-c43e-438f-889e-4ecd3d6da409" d="M1683.54,1039.2a26,26,0,0,0-38.23,14.62S1668.2,1056.5,1683.54,1039.2Z"/>
    </g>
    <ellipse class="aeea04ea-d7c7-4a76-b41c-5557360add31" cx="1757.92" cy="1073.46" rx="15.88" ry="10.89"/>
    <g>
      <path class="aa98ef20-95ce-44a0-93ef-297f41cc9dea" d="M1757.26,1059.74h0a36.29,36.29,0,0,1,36.29,36.29v36.29a0,0,0,0,1,0,0H1721a0,0,0,0,1,0,0V1096a36.29,36.29,0,0,1,36.29-36.29Z"/>
      <ellipse class="7484eb1f-245c-4c0c-a9ef-ae68b3c15cc5" cx="1757.92" cy="1072.2" rx="13.61" ry="9.07"/>
      <path class="9ee931d2-66a7-47fb-aaf4-dcc315ba0e0a" d="M1760.14,1061.67h0a36.29,36.29,0,0,1,36.29,36.29v36.29a0,0,0,0,1,0,0h-72.58a0,0,0,0,1,0,0V1098a36.29,36.29,0,0,1,36.29-36.29Z"/>
      <circle class="f0d854f3-184d-45fc-bb33-2857c0c4163d" cx="1757.26" cy="1047.65" r="26.01"/>
      <path class="e97f1136-c43e-438f-889e-4ecd3d6da409" d="M1755.21,1021.73c.23.31,13,17.94,26.34,16.64a26,26,0,0,0-24.3-16.73C1756.57,1021.64,1755.89,1021.67,1755.21,1021.73Z"/>
      <path class="e97f1136-c43e-438f-889e-4ecd3d6da409" d="M1770.64,1025.34a26,26,0,0,0-38.23,14.62S1755.3,1042.64,1770.64,1025.34Z"/>
    </g>
    <circle class="f0d854f3-184d-45fc-bb33-2857c0c4163d" cx="1812.69" cy="1085.26" r="26.01"/>
    <path class="e97f1136-c43e-438f-889e-4ecd3d6da409" d="M1810.64,1059.34c.23.31,13,17.94,26.34,16.64a26,26,0,0,0-24.3-16.73C1812,1059.25,1811.32,1059.28,1810.64,1059.34Z"/>
    <path class="e97f1136-c43e-438f-889e-4ecd3d6da409" d="M1826.07,1063a26,26,0,0,0-38.23,14.62S1810.72,1080.25,1826.07,1063Z"/>
    <path class="aeea04ea-d7c7-4a76-b41c-5557360add31" d="M.32,1061H0v19H10.81c3.3-2,5.39-4.91,5.39-8.16C16.2,1065.83,9.09,1061,.32,1061Z"/>
    <path class="7484eb1f-245c-4c0c-a9ef-ae68b3c15cc5" d="M.32,1061.5H0v18.12H.32c7.52,0,13.61-4.06,13.61-9.07S7.84,1061.5.32,1061.5Z"/>
    <rect class="aa98ef20-95ce-44a0-93ef-297f41cc9dea" x="88.66" y="985.86" width="380.79" height="205.49" transform="translate(57.94 -13.23) rotate(3.03)"/>
    <rect class="6814e7d2-9764-4146-9a76-89445dd6a5b8" x="94.97" y="993.43" width="380.79" height="205.49" transform="matrix(1, 0.05, -0.05, 1, 58.35, -13.55)"/>
    <g>
      <path class="c1129771-7cf5-4bb1-bf67-dc6ffb23098c" d="M142.28,1123.36l.91-16.85,8.43.45,2.72-50.55-8.43-.45.91-16.85,45.5,2.45,12.76,14.21-1.27,23.59-8.7,4.6,8.15,5.51L202,1113l-14.2,12.76Zm26.18-15.49,16.85.91.91-16.85-16.85-.91Zm1.81-33.7,16.85.91.91-16.85-16.85-.91Z"/>
      <path class="c1129771-7cf5-4bb1-bf67-dc6ffb23098c" d="M226.77,1127.9,214,1113.69l3.08-57.29,14.2-12.76,23.59,1.27,12.76,14.21-3.08,57.29-14.2,12.76Zm4.28-16.67,16.85.91,2.72-50.55-16.85-.91Z"/>
      <path class="c1129771-7cf5-4bb1-bf67-dc6ffb23098c" d="M277.24,1105.26l16.85.91-.45,8.43,16.85.91.91-16.85-20.22-1.09-12.76-14.21,1.27-23.59,14.2-12.76,23.59,1.27,12.76,14.21-.63,11.79-16.85-.91.45-8.42-16.85-.91-.91,16.85,20,1.07,13,14.22-1.27,23.59L313,1132.53l-23.59-1.27-12.76-14.2Z"/>
      <path class="c1129771-7cf5-4bb1-bf67-dc6ffb23098c" d="M338.47,1133.9l.91-16.85,8.43.45,2.72-50.55-8.43-.45.91-16.85,25.28,1.36,14.65,41.83,19.05-40,24.07,1.29-.91,16.85-8.43-.45L414,1121.06l8.43.45-.91,16.85-32.5-1.75.91-16.85,8.43.45,1.29-24.07-18.83,40.51-14.87-42.32-1.29,24.07,8.18.44-.91,16.85Z"/>
    </g>
    <path class="31fbbea3-ff84-40a0-a00a-fa9117fc2d4e" d="M207.58,1085.65l-8.7,4.6,8.15,5.51-1.27,23.59-14.2,12.76-45.5-2.45.91-16.85,8.43.45,1.78-33.1m0,0,.94-17.45-8.43-.45.91-16.85,45.5,2.44,12.76,14.21-1,18m-35.63,34.09,16.85.91.91-16.85-16.85-.91Zm1.81-33.7,16.85.91.91-16.85-16.85-.91Z"/>
    <path class="31fbbea3-ff84-40a0-a00a-fa9117fc2d4e" d="M230.56,1134.21,217.8,1120l3.08-57.29L235.09,1050l23.59,1.27,12.76,14.21-3.08,57.29-14.2,12.76Zm4.28-16.67,16.85.91,2.72-50.55-16.85-.91Z"/>
    <path class="31fbbea3-ff84-40a0-a00a-fa9117fc2d4e" d="M281,1111.57l16.85.91-.45,8.42,16.85.91.91-16.85L295,1103.87l-12.76-14.21,1.27-23.59,14.21-12.76,23.59,1.27L334,1068.79l-.63,11.8-16.85-.91.45-8.42-16.85-.91-.91,16.85,20,1.07,13,14.22-1.27,23.59-14.2,12.76-23.59-1.27-12.76-14.21Z"/>
    <path class="31fbbea3-ff84-40a0-a00a-fa9117fc2d4e" d="M342.25,1140.21l.91-16.85,8.43.45,2.72-50.55-8.43-.45.91-16.85,25.28,1.36,14.65,41.83,19.05-40,24.07,1.29-.91,16.85-8.43-.45-2.72,50.55,8.43.45-.91,16.85-32.5-1.75.91-16.85,8.43.45,1.29-24.07L384.6,1143l-14.87-42.32-1.29,24.07,8.18.44-.91,16.85Z"/>
    <path class="f0d854f3-184d-45fc-bb33-2857c0c4163d" d="M1,1020l-1,0v52l1,0a26,26,0,0,0,0-52Z"/>
    <path class="e97f1136-c43e-438f-889e-4ecd3d6da409" d="M1,1020c-.33,0-.65,0-1,0v13.23a50,50,0,0,0,25.83,5.06A26,26,0,0,0,1,1020Z"/>
  </g>
  <g id="9a2af477-549b-4d13-be93-dde25b091f23" data-name="Stairs">
    <rect class="288ad9e4-b9a2-4896-95b4-e99e6b132169" x="918.55" y="990.49" width="145.37" height="89.51"/>
    <path class="eaf75765-3037-4c7b-a6d6-f3ebf4d7e775" d="M991.13,839.31c-174,0-318.36-20.06-345.78-46.36,21.38,39.28,116.3,193.73,298.14,217.42a368.4,368.4,0,0,0,47.64,3.06c213,0,322.62-177.92,345.78-220.48C1309.48,819.25,1165.12,839.31,991.13,839.31Z"/>
    <line class="686610d1-35a3-412a-b853-02902ccdecc7" x1="924.86" y1="1080" x2="924.86" y2="1009.76"/>
    <line class="686610d1-35a3-412a-b853-02902ccdecc7" x1="1070.23" y1="1010.08" x2="1070.23" y2="1080.1"/>
    <ellipse class="f3e3b6e7-9068-4565-9668-52f88291205b" cx="991.13" cy="783.86" rx="350.5" ry="55.45"/>
    <path class="3d9d22e1-cb07-4912-b392-e7b98390df39" d="M817,742.52s3.71,59.76,64.44,160.67"/>
    <line class="3d9d22e1-cb07-4912-b392-e7b98390df39" x1="993.82" y1="734.72" x2="993.82" y2="845.62"/>
    <path class="3d9d22e1-cb07-4912-b392-e7b98390df39" d="M1148,742.52s-3.71,59.76-64.44,160.67"/>
    <path class="4329a3f5-90f1-47b5-835b-9493ca8a6d69" d="M929.59,18s-239.25,100-187,352.35S699,566.1,681.65,561.75s-52.2-78.3,0-130.5c0,0-95.7,82.65-82.65,169.65s52.2,174,147.9,234.9,217.5,87,395.85,52.2,213.15-191.4,213.15-234.9,4.35-160.95-56.55-234.9c0,0,4.35,213.15-69.6,204.45s-95.7-104.4-65.25-213.15,17.4-239.25-108.75-282.75c0,0,21.75,160.95-78.3,160.95S855.65,126.75,929.59,18Z"/>
    <path class="aa98ef20-95ce-44a0-93ef-297f41cc9dea" d="M953,910s-102-7-143-99-16-201,13-229c0,0,5,47,36,65,0,0-19-209,150-256,0,0-28,43,42,151s51,166,51,166,6-46,37-73a219.65,219.65,0,0,1,18-14s-8,32,0,84-33,123-52,144-33,45-82,53S953,910,953,910Z"/>
    <path class="eaf75765-3037-4c7b-a6d6-f3ebf4d7e775" d="M991.13,839.31c-174,0-318.36-20.06-345.78-46.36,23.16,42.56,132.74,220.48,345.78,220.48S1313.74,835.51,1336.91,793C1309.48,819.25,1165.12,839.31,991.13,839.31Z"/>
    <polyline class="6814e7d2-9764-4146-9a76-89445dd6a5b8" points="1106.74 1080.09 1115.59 1041.96 1125.16 1080.08"/>
    <polyline class="6814e7d2-9764-4146-9a76-89445dd6a5b8" points="884.32 1080.01 875.48 1041.96 866.07 1079.47"/>
    <line class="6814e7d2-9764-4146-9a76-89445dd6a5b8" x1="881.48" y1="1067.79" x2="878.5" y2="1080.25"/>
    <line class="6814e7d2-9764-4146-9a76-89445dd6a5b8" x1="1110.92" y1="1071.85" x2="1112.89" y2="1080.1"/>
    <path class="8d1d4e41-cbed-4519-9071-a4bc663c9a53" d="M645.89,790.17s108.52,229.57,350.5,229.57c211.75,0,321.3-175.8,345.37-219.72"/>
    <path class="f3e3b6e7-9068-4565-9668-52f88291205b" d="M1021.89,1010.56H965.51l2-45.85a5.2,5.2,0,0,1,5.42-4.67h41.55a5.2,5.2,0,0,1,5.42,4.67Z"/>
    <path class="8784fa31-b710-44e9-8f3a-bcaf2e4bb33d" d="M1012.79,1060.59h-37.2a5.93,5.93,0,0,1-6.14-5.09l-3.94-45.43h56.38l-3,45.32A5.91,5.91,0,0,1,1012.79,1060.59Z"/>
    <path class="8d1d4e41-cbed-4519-9071-a4bc663c9a53" d="M1321.33,769.34c16.48,6.43,25.55,13.46,25.55,20.82,0,30.63-156.92,55.45-350.5,55.45s-350.5-24.83-350.5-55.45c0-7.35,9-14.37,25.48-20.8"/>
    <path class="daea0f6e-68cc-4355-906e-7c7bf906ae56" d="M1022.14,1010.81H965.76l2-45.85a5.2,5.2,0,0,1,5.42-4.67h41.55a5.2,5.2,0,0,1,5.42,4.67Z"/>
    <path class="daea0f6e-68cc-4355-906e-7c7bf906ae56" d="M1013,1060.83h-37.2a5.93,5.93,0,0,1-6.14-5.09l-3.94-45.43h56.38l-3,45.32A5.91,5.91,0,0,1,1013,1060.83Z"/>
    <path class="4329a3f5-90f1-47b5-835b-9493ca8a6d69" d="M1218.3,556.07s-45.52-67.17-14.09-111.82c17.24-26.43,16.73-47.54,16.49-57.29,0,0,41.91,52.63,20.31,100.29C1224,521.8,1218.1,547.95,1218.3,556.07Z"/>
  </g>
</svg>
